<svg xmlns="http://www.w3.org/2000/svg" xmlns:xlink="http://www.w3.org/1999/xlink" width="150" zoomAndPan="magnify" viewBox="0 0 112.5 112.499997" height="150" preserveAspectRatio="xMidYMid meet" version="1.0"><defs><clipPath id="e75974ac60"><path d="M 28 16.746094 L 104 16.746094 L 104 82 L 28 82 Z M 28 16.746094 " clip-rule="nonzero"/></clipPath><clipPath id="7fc8cca9ee"><path d="M 35 39 L 110.125 39 L 110.125 89 L 35 89 Z M 35 39 " clip-rule="nonzero"/></clipPath></defs><path fill="#0cc0df" d="M 70.316406 93.292969 C 59.636719 93.414062 49.917969 93.019531 40.730469 92.898438 C 30.074219 92.753906 11.695312 95.253906 6.824219 85.304688 C 4.253906 80.054688 10.394531 72.257812 6.894531 68.097656 C 1.855469 62.101562 3.335938 52.332031 9.6875 49.222656 C 15.226562 46.507812 19.480469 47.28125 22.226562 43.078125 C 25.859375 37.523438 22.78125 29.773438 32.457031 24.363281 C 37.007812 21.816406 45.394531 25.75 50.96875 24.832031 C 56.265625 23.964844 61.449219 17.625 65.925781 18.867188 C 70.40625 20.109375 73.578125 28.976562 77.84375 32.285156 C 78.597656 32.867188 87.847656 33.136719 90.410156 38.386719 C 95.113281 48.003906 93.097656 67.082031 91.195312 69.359375 C 88.664062 72.40625 80.683594 73.65625 75.890625 76.652344 C 70.898438 79.773438 77.558594 93.210938 70.316406 93.292969 Z M 40.332031 35.402344 C 40.757812 35.910156 42.429688 36.398438 43.097656 36.195312 C 43.765625 35.996094 44.289062 34.875 44.335938 34.195312 C 44.382812 33.542969 43.378906 33.054688 42.949219 33.484375 C 42.683594 33.75 42.53125 34.175781 42.160156 34.269531 C 41.785156 34.359375 41.042969 33.957031 40.71875 34.03125 C 40.179688 34.152344 39.890625 34.882812 40.332031 35.402344 Z M 38.222656 40.441406 C 38.644531 40.945312 40.316406 41.433594 40.984375 41.234375 C 41.652344 41.03125 42.175781 39.914062 42.226562 39.234375 C 42.273438 38.578125 41.269531 38.09375 40.839844 38.519531 C 40.570312 38.785156 40.347656 39.414062 39.976562 39.507812 C 39.605469 39.597656 38.929688 38.996094 38.609375 39.070312 C 38.070312 39.191406 37.78125 39.917969 38.222656 40.441406 Z M 32.179688 35.808594 C 32.882812 36.648438 35.644531 37.453125 36.75 37.121094 C 37.855469 36.789062 38.722656 34.9375 38.800781 33.8125 C 38.878906 32.730469 37.222656 31.925781 36.507812 32.632812 C 36.066406 33.074219 35.695312 34.117188 35.082031 34.265625 C 34.464844 34.417969 33.601562 33.347656 32.820312 33.539062 C 31.929688 33.757812 31.453125 34.945312 32.179688 35.808594 Z M 32.179688 35.808594 " fill-opacity="1" fill-rule="evenodd"/><path fill="#38b6ff" d="M 12.449219 44.59375 C 13.699219 45.917969 19.042969 43.617188 20.515625 41.941406 C 21.992188 40.265625 22.914062 34.820312 21.289062 34.535156 C 19.238281 34.175781 18.675781 38.605469 17.203125 40.285156 C 15.789062 41.890625 10.851562 42.894531 12.449219 44.59375 Z M 12.449219 44.59375 " fill-opacity="1" fill-rule="evenodd"/><path fill="#38b6ff" d="M 46.652344 23.085938 C 47.128906 23.777344 49.417969 23.871094 50.386719 23.671875 C 51.285156 23.488281 52.921875 22.675781 52.472656 21.894531 C 51.773438 20.671875 45.886719 21.976562 46.652344 23.085938 Z M 46.652344 23.085938 " fill-opacity="1" fill-rule="evenodd"/><g clip-path="url(#e75974ac60)"><path fill="#38b6ff" d="M 28.945312 54.4375 L 85.46875 16.902344 L 92.085938 26.867188 C 90.117188 28.171875 89.578125 30.832031 90.886719 32.800781 C 92.191406 34.769531 94.851562 35.304688 96.820312 33.996094 L 103.4375 43.960938 L 46.914062 81.496094 Z M 28.945312 54.4375 " fill-opacity="1" fill-rule="evenodd"/><path fill="#000000" d="M 103.519531 44.078125 L 46.992188 81.613281 C 46.929688 81.65625 46.84375 81.636719 46.800781 81.574219 L 28.832031 54.515625 C 28.789062 54.449219 28.808594 54.363281 28.871094 54.320312 L 85.394531 16.789062 C 85.457031 16.746094 85.546875 16.761719 85.585938 16.828125 L 92.203125 26.789062 C 92.246094 26.855469 92.230469 26.941406 92.164062 26.984375 C 91.6875 27.300781 91.296875 27.699219 91 28.148438 C 90.113281 29.496094 90.058594 31.296875 91.007812 32.722656 C 91.953125 34.152344 93.636719 34.800781 95.222656 34.503906 C 95.75 34.40625 96.269531 34.199219 96.746094 33.882812 C 96.8125 33.839844 96.898438 33.859375 96.941406 33.921875 L 103.554688 43.886719 C 103.597656 43.949219 103.582031 44.035156 103.519531 44.078125 Z M 84.042969 18.019531 L 29.140625 54.476562 C 29.140625 54.476562 46.957031 81.304688 46.957031 81.304688 C 46.957031 81.304688 93.1875 50.601562 101.855469 44.847656 C 101.183594 43.832031 96.3125 36.5 96.3125 36.5 C 93.699219 37.296875 90.761719 36.332031 89.171875 33.941406 C 87.585938 31.550781 87.835938 28.46875 89.585938 26.371094 Z M 52.398438 53.074219 L 53.945312 52.046875 C 54.914062 51.402344 55.679688 51.503906 56.242188 52.351562 L 59.421875 57.140625 C 59.988281 57.992188 59.789062 58.742188 58.816406 59.386719 L 57.273438 60.410156 C 56.296875 61.058594 55.523438 60.957031 54.957031 60.105469 L 51.777344 55.316406 C 51.214844 54.46875 51.421875 53.722656 52.398438 53.074219 Z M 57.625 58.015625 L 54.746094 53.675781 C 54.617188 53.484375 54.453125 53.457031 54.253906 53.589844 L 53.699219 53.957031 C 53.492188 54.09375 53.453125 54.257812 53.582031 54.449219 L 56.460938 58.789062 C 56.589844 58.980469 56.757812 59.007812 56.964844 58.871094 L 57.515625 58.503906 C 57.71875 58.371094 57.753906 58.207031 57.625 58.015625 Z M 59.195312 48.5625 L 60.84375 47.464844 L 64.867188 53.523438 C 65.433594 54.375 65.230469 55.128906 64.253906 55.777344 L 62.707031 56.804688 C 61.738281 57.445312 60.96875 57.339844 60.402344 56.488281 L 56.378906 50.429688 L 58.03125 49.335938 L 61.90625 55.171875 C 62.035156 55.367188 62.199219 55.394531 62.398438 55.261719 L 62.949219 54.894531 C 63.160156 54.757812 63.199219 54.589844 63.070312 54.398438 Z M 70.167969 41.277344 L 71.796875 40.195312 L 76.667969 47.53125 L 75.039062 48.613281 L 73.035156 45.589844 L 71.558594 46.570312 L 73.5625 49.59375 L 71.9375 50.675781 L 67.0625 43.335938 L 68.691406 42.257812 L 70.75 45.359375 L 72.230469 44.378906 Z M 48.671875 55.546875 L 50.382812 54.414062 L 53.636719 62.824219 L 51.617188 64.164062 L 45.117188 57.90625 L 46.839844 56.765625 L 51.367188 61.605469 Z M 82.238281 39.875 L 84.0625 42.621094 L 82.425781 43.710938 L 77.550781 36.371094 L 80.574219 34.363281 C 81.542969 33.722656 82.308594 33.824219 82.871094 34.667969 L 84.234375 36.722656 C 84.683594 37.398438 84.648438 38.011719 84.125 38.558594 L 87.269531 40.492188 L 85.503906 41.664062 L 82.527344 39.683594 Z M 79.992188 36.496094 L 81.464844 38.710938 L 82.355469 38.121094 C 82.460938 38.050781 82.523438 37.976562 82.542969 37.90625 C 82.5625 37.832031 82.535156 37.746094 82.46875 37.644531 L 81.375 35.996094 C 81.246094 35.804688 81.082031 35.773438 80.882812 35.90625 Z M 67.917969 46.476562 L 66.257812 47.578125 L 65.492188 46.425781 C 65.363281 46.234375 65.199219 46.203125 65 46.335938 L 64.527344 46.652344 C 64.320312 46.789062 64.277344 46.953125 64.40625 47.144531 L 67.394531 51.644531 C 67.464844 51.753906 67.539062 51.8125 67.613281 51.824219 C 67.6875 51.835938 67.78125 51.804688 67.898438 51.726562 L 68.371094 51.414062 C 68.476562 51.339844 68.539062 51.269531 68.558594 51.195312 C 68.578125 51.125 68.550781 51.03125 68.476562 50.925781 L 67.734375 49.804688 L 69.398438 48.703125 L 70.238281 49.972656 C 70.804688 50.816406 70.59375 51.566406 69.617188 52.214844 L 68.140625 53.195312 C 67.171875 53.839844 66.40625 53.738281 65.84375 52.890625 L 62.65625 48.089844 C 62.09375 47.246094 62.300781 46.5 63.269531 45.855469 L 64.742188 44.875 C 65.722656 44.226562 66.488281 44.328125 67.054688 45.171875 Z M 78.550781 44.535156 L 80.902344 42.972656 L 81.707031 44.183594 L 77.703125 46.84375 L 72.832031 39.503906 L 76.742188 36.910156 L 77.550781 38.121094 L 75.285156 39.621094 L 76.476562 41.410156 L 78.402344 40.128906 L 79.207031 41.34375 L 77.277344 42.621094 Z M 57.367188 46.757812 C 57.636719 44.542969 58.832031 42.453125 60.832031 41.125 C 62.832031 39.796875 65.222656 39.503906 67.367188 40.117188 L 73.320312 36.164062 C 73.386719 36.121094 73.472656 36.136719 73.515625 36.203125 L 74.074219 37.042969 C 74.113281 37.105469 74.097656 37.195312 74.035156 37.234375 L 67.609375 41.5 C 67.574219 41.527344 67.527344 41.53125 67.484375 41.515625 C 65.578125 40.8125 63.371094 40.992188 61.550781 42.203125 C 59.726562 43.414062 58.703125 45.375 58.613281 47.40625 C 58.609375 47.453125 58.585938 47.492188 58.550781 47.519531 L 52.125 51.785156 C 52.0625 51.824219 51.976562 51.808594 51.933594 51.746094 L 51.375 50.902344 C 51.332031 50.839844 51.347656 50.753906 51.414062 50.710938 Z M 64.902344 56.882812 C 66.8125 57.589844 69.019531 57.40625 70.839844 56.195312 C 72.664062 54.988281 73.6875 53.023438 73.777344 50.992188 C 73.777344 50.949219 73.804688 50.90625 73.839844 50.882812 L 80.261719 46.617188 C 80.328125 46.574219 80.414062 46.59375 80.457031 46.65625 L 81.015625 47.496094 C 81.058594 47.5625 81.039062 47.648438 80.976562 47.691406 C 80.976562 47.691406 75.019531 51.644531 75.019531 51.644531 C 74.753906 53.859375 73.554688 55.945312 71.558594 57.273438 C 69.554688 58.601562 67.167969 58.898438 65.023438 58.28125 L 59.066406 62.238281 C 59.003906 62.28125 58.917969 62.261719 58.875 62.199219 L 58.316406 61.355469 C 58.273438 61.292969 58.292969 61.207031 58.355469 61.164062 L 64.78125 56.898438 C 64.816406 56.875 64.863281 56.867188 64.902344 56.882812 Z M 64.902344 56.882812 " fill-opacity="1" fill-rule="evenodd"/></g><path fill="#414141" d="M 47.261719 81.265625 L 28.109375 93.980469 L 21.496094 84.015625 C 23.460938 82.710938 24 80.050781 22.691406 78.082031 C 21.386719 76.117188 18.726562 75.578125 16.757812 76.886719 L 10.144531 66.921875 L 29.292969 54.207031 L 31.316406 57.253906 L 30.96875 57.484375 L 32.996094 60.535156 L 33.339844 60.304688 L 35.367188 63.351562 L 35.019531 63.582031 L 36.789062 66.25 L 37.136719 66.019531 L 39.160156 69.070312 L 38.816406 69.300781 L 40.839844 72.347656 L 41.1875 72.117188 L 43.210938 75.167969 L 42.863281 75.398438 L 44.890625 78.445312 L 45.234375 78.214844 Z M 47.261719 81.265625 " fill-opacity="1" fill-rule="evenodd"/><path fill="#000000" d="M 47.339844 81.382812 L 28.191406 94.097656 C 28.125 94.140625 28.039062 94.125 28 94.058594 L 21.382812 84.097656 C 21.339844 84.03125 21.355469 83.945312 21.421875 83.902344 C 21.898438 83.585938 22.289062 83.1875 22.585938 82.738281 C 23.472656 81.390625 23.527344 79.589844 22.578125 78.164062 C 21.632812 76.734375 19.949219 76.085938 18.363281 76.382812 C 17.835938 76.480469 17.316406 76.6875 16.839844 77.003906 C 16.773438 77.046875 16.6875 77.027344 16.644531 76.964844 L 10.027344 67 C 9.984375 66.9375 10.003906 66.851562 10.066406 66.808594 L 29.21875 54.09375 C 29.28125 54.050781 29.367188 54.066406 29.410156 54.132812 L 31.433594 57.179688 C 31.476562 57.242188 31.460938 57.332031 31.398438 57.371094 L 31.164062 57.523438 L 33.035156 60.34375 L 33.269531 60.191406 C 33.332031 60.148438 33.417969 60.164062 33.460938 60.230469 L 35.484375 63.277344 C 35.527344 63.34375 35.511719 63.429688 35.445312 63.46875 L 35.214844 63.625 L 36.832031 66.058594 L 37.0625 65.90625 C 37.125 65.863281 37.214844 65.882812 37.257812 65.945312 L 39.28125 68.992188 C 39.324219 69.058594 39.304688 69.144531 39.242188 69.1875 L 39.011719 69.339844 L 40.882812 72.15625 L 41.113281 72.003906 C 41.175781 71.960938 41.261719 71.980469 41.304688 72.042969 L 43.332031 75.09375 C 43.371094 75.15625 43.355469 75.242188 43.289062 75.285156 L 43.0625 75.4375 L 44.933594 78.253906 L 45.160156 78.101562 C 45.226562 78.058594 45.3125 78.078125 45.355469 78.140625 L 47.378906 81.191406 C 47.421875 81.253906 47.402344 81.339844 47.339844 81.382812 Z M 29.542969 92.867188 L 47.070312 81.226562 L 45.199219 78.410156 L 44.96875 78.5625 C 44.90625 78.605469 44.820312 78.589844 44.777344 78.523438 L 42.753906 75.476562 C 42.710938 75.410156 42.726562 75.324219 42.792969 75.28125 L 43.019531 75.128906 L 41.152344 72.3125 L 40.917969 72.464844 C 40.855469 72.507812 40.769531 72.488281 40.726562 72.425781 L 38.703125 69.378906 C 38.660156 69.3125 38.675781 69.226562 38.742188 69.183594 L 38.972656 69.03125 L 37.101562 66.214844 L 36.871094 66.367188 C 36.808594 66.410156 36.71875 66.390625 36.675781 66.328125 L 34.90625 63.660156 C 34.863281 63.597656 34.882812 63.511719 34.945312 63.46875 L 35.175781 63.316406 L 33.304688 60.5 L 33.074219 60.652344 C 33.011719 60.695312 32.925781 60.675781 32.882812 60.613281 L 30.859375 57.5625 C 30.8125 57.5 30.832031 57.414062 30.898438 57.371094 L 31.125 57.21875 C 31.125 57.21875 29.253906 54.402344 29.253906 54.402344 C 29.253906 54.402344 16.097656 63.136719 11.730469 66.039062 C 12.402344 67.054688 17.273438 74.386719 17.273438 74.386719 C 19.886719 73.589844 22.824219 74.554688 24.414062 76.945312 C 26 79.335938 25.75 82.417969 24 84.515625 Z M 29.542969 92.867188 " fill-opacity="1" fill-rule="evenodd"/><path fill="#0cc0df" d="M 36.042969 56.761719 L 101.582031 39.203125 L 104.675781 50.753906 C 102.394531 51.367188 101.039062 53.714844 101.648438 55.996094 C 102.261719 58.277344 104.609375 59.636719 106.890625 59.023438 L 109.988281 70.578125 L 44.449219 88.136719 Z M 36.042969 56.761719 " fill-opacity="1" fill-rule="evenodd"/><g clip-path="url(#7fc8cca9ee)"><path fill="#000000" d="M 110.027344 70.714844 L 44.488281 88.273438 C 44.414062 88.296875 44.339844 88.25 44.316406 88.175781 L 35.914062 56.800781 C 35.894531 56.726562 35.9375 56.652344 36.011719 56.632812 L 101.550781 39.070312 C 101.621094 39.050781 101.699219 39.09375 101.71875 39.167969 L 104.816406 50.722656 C 104.835938 50.796875 104.789062 50.871094 104.714844 50.890625 C 104.164062 51.039062 103.664062 51.292969 103.238281 51.625 C 101.96875 52.621094 101.34375 54.308594 101.789062 55.964844 C 102.230469 57.617188 103.617188 58.769531 105.214844 58.996094 C 105.75 59.070312 106.308594 59.042969 106.859375 58.894531 C 106.933594 58.875 107.011719 58.917969 107.03125 58.992188 L 110.125 70.542969 C 110.144531 70.617188 110.101562 70.695312 110.027344 70.714844 Z M 99.871094 39.808594 L 36.21875 56.863281 C 36.21875 56.863281 44.550781 87.972656 44.550781 87.972656 C 47.5 87.179688 98.105469 73.621094 108.207031 70.914062 C 107.894531 69.738281 105.613281 61.234375 105.613281 61.234375 C 102.882812 61.15625 100.40625 59.308594 99.664062 56.535156 C 98.921875 53.761719 100.140625 50.917969 102.46875 49.488281 Z M 54.386719 64.105469 L 56.367188 63.574219 L 56.773438 72.585938 L 54.433594 73.210938 L 50.269531 65.210938 L 52.261719 64.675781 L 55.011719 70.707031 Z M 58.710938 62.949219 L 60.503906 62.46875 C 61.625 62.167969 62.316406 62.507812 62.582031 63.488281 L 64.066406 69.039062 C 64.335938 70.027344 63.90625 70.675781 62.78125 70.976562 L 60.988281 71.457031 C 59.855469 71.757812 59.15625 71.417969 58.890625 70.425781 L 57.402344 64.875 C 57.140625 63.894531 57.574219 63.25 58.710938 62.949219 Z M 62.089844 69.296875 L 60.742188 64.269531 C 60.679688 64.042969 60.535156 63.964844 60.300781 64.027344 L 59.660156 64.199219 C 59.417969 64.261719 59.328125 64.40625 59.386719 64.628906 L 60.734375 69.660156 C 60.796875 69.882812 60.945312 69.960938 61.1875 69.898438 L 61.832031 69.726562 C 62.0625 69.664062 62.148438 69.519531 62.089844 69.296875 Z M 75.519531 61.640625 L 73.59375 62.15625 L 73.238281 60.820312 C 73.175781 60.597656 73.03125 60.515625 72.796875 60.578125 L 72.25 60.726562 C 72.007812 60.789062 71.917969 60.933594 71.980469 61.15625 L 73.375 66.375 C 73.410156 66.496094 73.460938 66.578125 73.527344 66.613281 C 73.59375 66.648438 73.695312 66.648438 73.828125 66.609375 L 74.375 66.464844 C 74.5 66.429688 74.585938 66.382812 74.625 66.320312 C 74.664062 66.253906 74.667969 66.160156 74.632812 66.035156 L 74.285156 64.738281 L 76.210938 64.222656 L 76.605469 65.695312 C 76.871094 66.675781 76.433594 67.316406 75.300781 67.621094 L 73.589844 68.078125 C 72.464844 68.378906 71.773438 68.039062 71.511719 67.058594 L 70.019531 61.496094 C 69.753906 60.515625 70.1875 59.871094 71.308594 59.570312 L 73.023438 59.113281 C 74.15625 58.808594 74.851562 59.148438 75.117188 60.128906 Z M 66.589844 60.835938 L 68.5 60.324219 L 70.382812 67.347656 C 70.648438 68.335938 70.214844 68.984375 69.082031 69.289062 L 67.289062 69.769531 C 66.164062 70.070312 65.472656 69.722656 65.207031 68.734375 L 63.324219 61.710938 L 65.238281 61.199219 L 67.050781 67.96875 C 67.109375 68.191406 67.253906 68.269531 67.488281 68.210938 L 68.128906 68.035156 C 68.371094 67.972656 68.460938 67.828125 68.402344 67.605469 Z M 79.3125 57.429688 L 81.195312 56.921875 L 83.476562 65.429688 L 81.589844 65.9375 L 80.648438 62.429688 L 78.9375 62.890625 L 79.878906 66.394531 L 77.992188 66.902344 L 75.710938 58.390625 L 77.597656 57.886719 L 78.5625 61.484375 L 80.273438 61.027344 Z M 86.21875 63.191406 L 88.945312 62.460938 L 89.324219 63.863281 L 84.679688 65.109375 L 82.402344 56.601562 L 86.9375 55.386719 L 87.3125 56.789062 L 84.6875 57.492188 L 85.246094 59.566406 L 87.476562 58.96875 L 87.855469 60.371094 L 85.621094 60.96875 Z M 91.199219 59.949219 L 92.050781 63.132812 L 90.152344 63.640625 L 87.871094 55.132812 L 91.375 54.195312 C 92.5 53.894531 93.191406 54.234375 93.457031 55.214844 L 94.09375 57.597656 C 94.304688 58.378906 94.074219 58.949219 93.402344 59.300781 L 95.769531 62.136719 L 93.722656 62.683594 L 91.53125 59.859375 Z M 90.148438 56.03125 L 90.835938 58.597656 L 91.863281 58.320312 C 91.992188 58.289062 92.074219 58.238281 92.113281 58.175781 C 92.152344 58.113281 92.160156 58.023438 92.128906 57.90625 L 91.617188 55.996094 C 91.554688 55.773438 91.410156 55.691406 91.175781 55.753906 Z M 69.347656 70.546875 C 70.929688 71.820312 73.082031 72.351562 75.191406 71.785156 C 77.304688 71.21875 78.902344 69.6875 79.636719 67.789062 C 79.652344 67.746094 79.683594 67.714844 79.730469 67.703125 L 87.175781 65.707031 C 87.25 65.6875 87.328125 65.734375 87.347656 65.808594 L 87.609375 66.78125 C 87.628906 66.855469 87.585938 66.933594 87.507812 66.953125 C 87.507812 66.953125 81.296875 68.617188 80.605469 68.804688 C 79.648438 70.816406 77.847656 72.414062 75.527344 73.035156 C 73.207031 73.65625 70.851562 73.171875 69.011719 71.910156 L 62.109375 73.757812 C 62.035156 73.777344 61.957031 73.734375 61.9375 73.660156 L 61.675781 72.683594 C 61.65625 72.609375 61.699219 72.535156 61.773438 72.515625 L 69.222656 70.519531 C 69.265625 70.507812 69.3125 70.515625 69.347656 70.546875 Z M 65.429688 58.542969 C 66.390625 56.53125 68.1875 54.933594 70.507812 54.3125 C 72.828125 53.691406 75.1875 54.171875 77.023438 55.4375 L 83.929688 53.585938 C 84.003906 53.566406 84.078125 53.613281 84.101562 53.6875 L 84.359375 54.660156 C 84.378906 54.734375 84.335938 54.8125 84.261719 54.832031 L 76.8125 56.828125 C 76.769531 56.839844 76.726562 56.828125 76.691406 56.800781 C 75.105469 55.523438 72.957031 54.996094 70.84375 55.5625 C 68.730469 56.125 67.136719 57.660156 66.402344 59.558594 C 66.386719 59.597656 66.351562 59.628906 66.308594 59.640625 L 58.859375 61.636719 C 58.789062 61.65625 58.710938 61.613281 58.691406 61.539062 L 58.429688 60.5625 C 58.410156 60.488281 58.453125 60.414062 58.527344 60.394531 Z M 65.429688 58.542969 " fill-opacity="1" fill-rule="evenodd"/></g><path fill="#414141" d="M 44.851562 88.03125 L 22.648438 93.980469 L 19.550781 82.425781 C 21.835938 81.816406 23.191406 79.464844 22.578125 77.183594 C 21.96875 74.902344 19.617188 73.546875 17.335938 74.15625 L 14.242188 62.605469 L 36.445312 56.65625 L 37.390625 60.191406 L 36.992188 60.296875 L 37.9375 63.832031 L 38.339844 63.726562 L 39.285156 67.261719 L 38.886719 67.367188 L 39.714844 70.460938 L 40.117188 70.355469 L 41.0625 73.890625 L 40.660156 73.996094 L 41.609375 77.53125 L 42.011719 77.425781 L 42.957031 80.960938 L 42.554688 81.066406 L 43.503906 84.601562 L 43.90625 84.496094 Z M 44.851562 88.03125 " fill-opacity="1" fill-rule="evenodd"/><path fill="#000000" d="M 44.890625 88.167969 L 22.6875 94.117188 C 22.613281 94.136719 22.535156 94.09375 22.515625 94.019531 L 19.417969 82.464844 C 19.398438 82.390625 19.445312 82.316406 19.515625 82.296875 C 20.070312 82.148438 20.570312 81.894531 20.996094 81.5625 C 22.265625 80.570312 22.890625 78.878906 22.445312 77.222656 C 22.003906 75.570312 20.617188 74.417969 19.019531 74.195312 C 18.484375 74.117188 17.929688 74.148438 17.375 74.296875 C 17.300781 74.316406 17.222656 74.269531 17.203125 74.195312 L 14.109375 62.644531 C 14.089844 62.570312 14.132812 62.492188 14.207031 62.472656 L 36.410156 56.523438 C 36.488281 56.503906 36.5625 56.550781 36.582031 56.621094 L 37.53125 60.160156 C 37.550781 60.230469 37.503906 60.308594 37.429688 60.328125 L 37.164062 60.398438 L 38.039062 63.667969 L 38.304688 63.59375 C 38.378906 63.574219 38.457031 63.621094 38.476562 63.695312 L 39.421875 67.230469 C 39.441406 67.304688 39.398438 67.378906 39.324219 67.398438 L 39.058594 67.46875 L 39.8125 70.292969 L 40.082031 70.222656 C 40.15625 70.203125 40.230469 70.246094 40.253906 70.320312 L 41.199219 73.855469 C 41.21875 73.929688 41.175781 74.007812 41.101562 74.027344 L 40.835938 74.097656 L 41.710938 77.363281 L 41.976562 77.292969 C 42.050781 77.273438 42.128906 77.316406 42.148438 77.390625 L 43.09375 80.925781 C 43.113281 81 43.070312 81.078125 42.996094 81.097656 L 42.726562 81.167969 L 43.605469 84.433594 L 43.871094 84.363281 C 43.945312 84.34375 44.019531 84.386719 44.039062 84.460938 L 44.988281 87.996094 C 45.007812 88.070312 44.964844 88.148438 44.890625 88.167969 Z M 24.363281 93.378906 L 44.683594 87.933594 L 43.808594 84.667969 L 43.542969 84.738281 C 43.46875 84.757812 43.390625 84.714844 43.371094 84.640625 L 42.421875 81.105469 C 42.40625 81.03125 42.449219 80.957031 42.523438 80.9375 L 42.789062 80.863281 L 41.914062 77.597656 L 41.648438 77.667969 C 41.574219 77.6875 41.496094 77.644531 41.476562 77.570312 L 40.53125 74.035156 C 40.511719 73.960938 40.554688 73.886719 40.628906 73.867188 L 40.894531 73.792969 L 40.019531 70.527344 L 39.75 70.597656 C 39.679688 70.617188 39.601562 70.574219 39.582031 70.5 L 38.753906 67.410156 C 38.734375 67.332031 38.777344 67.257812 38.851562 67.238281 L 39.117188 67.167969 L 38.242188 63.898438 L 37.976562 63.972656 C 37.902344 63.992188 37.824219 63.945312 37.804688 63.871094 L 36.859375 60.335938 C 36.839844 60.261719 36.882812 60.1875 36.957031 60.167969 L 37.226562 60.097656 C 37.226562 60.097656 36.347656 56.828125 36.347656 56.828125 C 36.347656 56.828125 21.09375 60.917969 16.023438 62.273438 C 16.324219 63.382812 18.359375 70.988281 18.621094 71.957031 C 21.351562 72.03125 23.828125 73.882812 24.570312 76.65625 C 25.316406 79.429688 24.09375 82.269531 21.765625 83.699219 Z M 24.363281 93.378906 " fill-opacity="1" fill-rule="evenodd"/><path fill="#ffffff" d="M 41.660156 61.5 L 109.511719 61.5 L 109.511719 73.460938 C 107.148438 73.460938 105.230469 75.378906 105.230469 77.742188 C 105.230469 80.105469 107.148438 82.023438 109.511719 82.023438 L 109.511719 93.984375 L 41.660156 93.984375 Z M 41.660156 61.5 " fill-opacity="1" fill-rule="evenodd"/><path fill="#000000" d="M 109.511719 94.121094 L 41.664062 94.121094 C 41.585938 94.121094 41.523438 94.058594 41.523438 93.984375 L 41.523438 61.5 C 41.523438 61.425781 41.585938 61.363281 41.664062 61.363281 L 109.511719 61.363281 C 109.589844 61.363281 109.652344 61.425781 109.652344 61.5 L 109.652344 73.460938 C 109.652344 73.539062 109.589844 73.601562 109.511719 73.601562 C 108.9375 73.601562 108.394531 73.71875 107.898438 73.929688 C 106.414062 74.558594 105.371094 76.03125 105.371094 77.742188 C 105.371094 79.457031 106.414062 80.925781 107.898438 81.554688 C 108.394531 81.765625 108.9375 81.882812 109.511719 81.882812 C 109.589844 81.882812 109.652344 81.945312 109.652344 82.023438 L 109.652344 93.984375 C 109.652344 94.058594 109.589844 94.121094 109.511719 94.121094 Z M 107.703125 61.640625 L 41.800781 61.640625 C 41.800781 61.640625 41.800781 93.84375 41.800781 93.84375 C 41.800781 93.84375 97.296875 93.84375 107.703125 93.847656 C 107.703125 92.625 107.703125 83.820312 107.703125 83.820312 C 105.082031 83.042969 103.171875 80.613281 103.171875 77.742188 C 103.171875 74.871094 105.082031 72.441406 107.703125 71.664062 Z M 70.261719 83.429688 C 71.460938 85.074219 73.402344 86.140625 75.585938 86.140625 C 77.773438 86.140625 79.714844 85.074219 80.914062 83.429688 C 80.9375 83.394531 80.980469 83.371094 81.027344 83.371094 L 88.738281 83.371094 C 88.8125 83.371094 88.875 83.433594 88.875 83.511719 L 88.875 84.523438 C 88.875 84.597656 88.8125 84.660156 88.738281 84.660156 C 88.738281 84.660156 82.304688 84.660156 81.589844 84.660156 C 80.144531 86.359375 77.988281 87.433594 75.585938 87.433594 C 73.183594 87.433594 71.03125 86.359375 69.585938 84.660156 L 62.441406 84.660156 C 62.363281 84.660156 62.300781 84.597656 62.300781 84.523438 L 62.300781 83.511719 C 62.300781 83.433594 62.363281 83.371094 62.441406 83.371094 L 70.148438 83.371094 C 70.195312 83.371094 70.234375 83.394531 70.261719 83.429688 Z M 88.460938 80.691406 L 91.285156 80.691406 L 91.285156 82.144531 L 86.480469 82.144531 L 86.480469 73.339844 L 91.175781 73.339844 L 91.175781 74.792969 L 88.460938 74.792969 L 88.460938 76.9375 L 90.773438 76.9375 L 90.773438 78.394531 L 88.460938 78.394531 Z M 94.113281 78.851562 L 94.113281 82.144531 L 92.144531 82.144531 L 92.144531 73.339844 L 95.773438 73.339844 C 96.9375 73.339844 97.519531 73.847656 97.519531 74.863281 L 97.519531 77.328125 C 97.519531 78.140625 97.148438 78.628906 96.410156 78.796875 L 97.960938 82.144531 L 95.839844 82.144531 L 94.457031 78.851562 Z M 94.113281 74.792969 L 94.113281 77.453125 L 95.175781 77.453125 C 95.304688 77.453125 95.398438 77.425781 95.453125 77.375 C 95.511719 77.324219 95.535156 77.238281 95.535156 77.121094 L 95.535156 75.140625 C 95.535156 74.90625 95.417969 74.792969 95.175781 74.792969 Z M 69.585938 70.824219 C 71.03125 69.128906 73.183594 68.050781 75.585938 68.050781 C 77.988281 68.050781 80.144531 69.128906 81.589844 70.824219 L 88.738281 70.824219 C 88.8125 70.824219 88.875 70.886719 88.875 70.964844 L 88.875 71.972656 C 88.875 72.050781 88.8125 72.113281 88.738281 72.113281 L 81.027344 72.113281 C 80.980469 72.113281 80.9375 72.089844 80.914062 72.054688 C 79.714844 70.414062 77.773438 69.34375 75.585938 69.34375 C 73.402344 69.34375 71.460938 70.414062 70.261719 72.054688 C 70.234375 72.089844 70.195312 72.113281 70.148438 72.113281 L 62.441406 72.113281 C 62.363281 72.113281 62.300781 72.050781 62.300781 71.972656 L 62.300781 70.964844 C 62.300781 70.886719 62.363281 70.824219 62.441406 70.824219 Z M 70.109375 73.339844 L 72.089844 73.339844 L 72.089844 80.609375 C 72.089844 81.632812 71.503906 82.144531 70.332031 82.144531 L 68.476562 82.144531 C 67.3125 82.144531 66.730469 81.632812 66.730469 80.609375 L 66.730469 73.339844 L 68.710938 73.339844 L 68.710938 80.347656 C 68.710938 80.578125 68.832031 80.691406 69.074219 80.691406 L 69.734375 80.691406 C 69.984375 80.691406 70.109375 80.578125 70.109375 80.347656 Z M 83.28125 73.339844 L 85.234375 73.339844 L 85.234375 82.144531 L 83.28125 82.144531 L 83.28125 78.519531 L 81.507812 78.519531 L 81.507812 82.144531 L 79.554688 82.144531 L 79.554688 73.339844 L 81.507812 73.339844 L 81.507812 77.0625 L 83.28125 77.0625 Z M 57.480469 73.339844 L 59.53125 73.339844 L 57.589844 82.144531 L 55.167969 82.144531 L 53.214844 73.339844 L 55.277344 73.339844 L 56.371094 79.875 Z M 61.953125 73.339844 L 63.808594 73.339844 C 64.972656 73.339844 65.554688 73.847656 65.554688 74.863281 L 65.554688 80.609375 C 65.554688 81.632812 64.972656 82.144531 63.808594 82.144531 L 61.953125 82.144531 C 60.78125 82.144531 60.191406 81.632812 60.191406 80.609375 L 60.191406 74.863281 C 60.191406 73.847656 60.78125 73.339844 61.953125 73.339844 Z M 63.574219 80.347656 L 63.574219 75.140625 C 63.574219 74.90625 63.453125 74.792969 63.214844 74.792969 L 62.546875 74.792969 C 62.300781 74.792969 62.175781 74.90625 62.175781 75.140625 L 62.175781 80.347656 C 62.175781 80.578125 62.300781 80.691406 62.546875 80.691406 L 63.214844 80.691406 C 63.453125 80.691406 63.574219 80.578125 63.574219 80.347656 Z M 78.53125 76.425781 L 76.539062 76.425781 L 76.539062 75.042969 C 76.539062 74.8125 76.417969 74.695312 76.175781 74.695312 L 75.605469 74.695312 C 75.359375 74.695312 75.234375 74.8125 75.234375 75.042969 L 75.234375 80.441406 C 75.234375 80.574219 75.261719 80.664062 75.316406 80.714844 C 75.375 80.765625 75.46875 80.789062 75.605469 80.789062 L 76.175781 80.789062 C 76.304688 80.789062 76.398438 80.765625 76.453125 80.714844 C 76.507812 80.664062 76.539062 80.574219 76.539062 80.441406 L 76.539062 79.097656 L 78.53125 79.097656 L 78.53125 80.621094 C 78.53125 81.636719 77.945312 82.144531 76.769531 82.144531 L 74.996094 82.144531 C 73.835938 82.144531 73.253906 81.636719 73.253906 80.621094 L 73.253906 74.863281 C 73.253906 73.847656 73.835938 73.339844 74.996094 73.339844 L 76.769531 73.339844 C 77.945312 73.339844 78.53125 73.847656 78.53125 74.863281 Z M 78.53125 76.425781 " fill-opacity="1" fill-rule="evenodd"/><path fill="#ffffff" d="M 42.078125 93.984375 L 19.089844 93.984375 L 19.089844 82.023438 C 21.453125 82.023438 23.371094 80.105469 23.371094 77.742188 C 23.371094 75.378906 21.453125 73.460938 19.089844 73.460938 L 19.089844 61.5 L 42.078125 61.5 L 42.078125 65.160156 L 41.660156 65.160156 L 41.660156 68.820312 L 42.078125 68.820312 L 42.078125 72.480469 L 41.660156 72.480469 L 41.660156 75.683594 L 42.078125 75.683594 L 42.078125 79.34375 L 41.660156 79.34375 L 41.660156 83.003906 L 42.078125 83.003906 L 42.078125 86.664062 L 41.660156 86.664062 L 41.660156 90.324219 L 42.078125 90.324219 Z M 42.078125 93.984375 " fill-opacity="1" fill-rule="evenodd"/><path fill="#000000" d="M 42.078125 94.121094 L 19.089844 94.121094 C 19.011719 94.121094 18.949219 94.058594 18.949219 93.984375 L 18.949219 82.023438 C 18.949219 81.945312 19.011719 81.882812 19.089844 81.882812 C 19.664062 81.882812 20.210938 81.765625 20.703125 81.554688 C 22.1875 80.925781 23.230469 79.457031 23.230469 77.742188 C 23.230469 76.03125 22.1875 74.558594 20.703125 73.929688 C 20.210938 73.71875 19.664062 73.601562 19.089844 73.601562 C 19.011719 73.601562 18.949219 73.539062 18.949219 73.460938 L 18.949219 61.5 C 18.949219 61.425781 19.011719 61.363281 19.089844 61.363281 L 42.078125 61.363281 C 42.152344 61.363281 42.214844 61.425781 42.214844 61.5 L 42.214844 65.160156 C 42.214844 65.238281 42.152344 65.300781 42.078125 65.300781 L 41.800781 65.300781 L 41.800781 68.683594 L 42.078125 68.683594 C 42.152344 68.683594 42.214844 68.746094 42.214844 68.820312 L 42.214844 72.480469 C 42.214844 72.558594 42.152344 72.621094 42.078125 72.621094 L 41.800781 72.621094 L 41.800781 75.542969 L 42.078125 75.542969 C 42.152344 75.542969 42.214844 75.605469 42.214844 75.683594 L 42.214844 79.34375 C 42.214844 79.421875 42.152344 79.480469 42.078125 79.480469 L 41.800781 79.480469 L 41.800781 82.863281 L 42.078125 82.863281 C 42.152344 82.863281 42.214844 82.925781 42.214844 83.003906 L 42.214844 86.664062 C 42.214844 86.738281 42.152344 86.800781 42.078125 86.800781 L 41.800781 86.800781 L 41.800781 90.183594 L 42.078125 90.183594 C 42.152344 90.183594 42.214844 90.246094 42.214844 90.324219 L 42.214844 93.984375 C 42.214844 94.058594 42.152344 94.121094 42.078125 94.121094 Z M 20.898438 93.84375 L 41.9375 93.84375 L 41.9375 90.460938 L 41.664062 90.460938 C 41.585938 90.460938 41.523438 90.398438 41.523438 90.324219 L 41.523438 86.664062 C 41.523438 86.585938 41.585938 86.523438 41.664062 86.523438 L 41.9375 86.523438 L 41.9375 83.140625 L 41.664062 83.140625 C 41.585938 83.140625 41.523438 83.078125 41.523438 83.003906 L 41.523438 79.34375 C 41.523438 79.265625 41.585938 79.203125 41.664062 79.203125 L 41.9375 79.203125 L 41.9375 75.824219 L 41.664062 75.824219 C 41.585938 75.824219 41.523438 75.761719 41.523438 75.683594 L 41.523438 72.480469 C 41.523438 72.40625 41.585938 72.34375 41.664062 72.34375 L 41.9375 72.34375 L 41.9375 68.960938 L 41.664062 68.960938 C 41.585938 68.960938 41.523438 68.898438 41.523438 68.820312 L 41.523438 65.160156 C 41.523438 65.085938 41.585938 65.023438 41.664062 65.023438 L 41.9375 65.023438 C 41.9375 64.441406 41.9375 62.222656 41.9375 61.640625 C 40.367188 61.640625 25.875 61.640625 20.898438 61.640625 C 20.898438 62.777344 20.898438 70.660156 20.898438 71.664062 C 23.519531 72.441406 25.433594 74.871094 25.433594 77.742188 C 25.433594 80.613281 23.519531 83.042969 20.898438 83.820312 Z M 20.898438 93.84375 " fill-opacity="1" fill-rule="evenodd"/><path fill="#000000" d="M 34.527344 70.765625 C 34.582031 70.570312 34.765625 70.433594 34.96875 70.433594 L 35.496094 70.433594 C 35.617188 70.433594 35.738281 70.492188 35.808594 70.59375 C 35.882812 70.691406 35.90625 70.820312 35.871094 70.941406 L 31.734375 84.71875 C 31.675781 84.917969 31.492188 85.050781 31.289062 85.050781 L 30.785156 85.050781 C 30.664062 85.050781 30.546875 84.992188 30.472656 84.890625 C 30.398438 84.792969 30.375 84.664062 30.414062 84.546875 Z M 38.007812 78.730469 L 38.007812 82.960938 C 38.007812 84.351562 37.558594 85.050781 36.660156 85.050781 L 35.511719 85.050781 C 34.617188 85.050781 34.167969 84.351562 34.167969 82.960938 L 34.167969 78.730469 C 34.167969 77.335938 34.617188 76.640625 35.511719 76.640625 L 36.660156 76.640625 C 37.558594 76.640625 38.007812 77.335938 38.007812 78.730469 Z M 36.503906 82.570312 L 36.503906 79.121094 C 36.503906 78.785156 36.402344 78.617188 36.203125 78.617188 L 35.96875 78.617188 C 35.855469 78.617188 35.78125 78.652344 35.738281 78.730469 C 35.703125 78.808594 35.683594 78.9375 35.683594 79.121094 L 35.683594 82.570312 C 35.683594 82.753906 35.703125 82.878906 35.738281 82.949219 C 35.78125 83.015625 35.855469 83.050781 35.96875 83.050781 L 36.203125 83.050781 C 36.316406 83.050781 36.398438 83.015625 36.441406 82.949219 C 36.484375 82.878906 36.503906 82.753906 36.503906 82.570312 Z M 32.078125 72.527344 L 32.078125 76.753906 C 32.078125 78.148438 31.632812 78.847656 30.746094 78.847656 L 29.582031 78.847656 C 28.695312 78.847656 28.25 78.148438 28.25 76.753906 L 28.25 72.527344 C 28.25 71.132812 28.695312 70.433594 29.582031 70.433594 L 30.746094 70.433594 C 31.632812 70.433594 32.078125 71.132812 32.078125 72.527344 Z M 30.574219 76.363281 L 30.574219 72.917969 C 30.574219 72.734375 30.554688 72.601562 30.515625 72.527344 C 30.476562 72.449219 30.398438 72.410156 30.289062 72.410156 L 30.039062 72.410156 C 29.925781 72.410156 29.851562 72.449219 29.808594 72.527344 C 29.773438 72.601562 29.753906 72.734375 29.753906 72.917969 L 29.753906 76.363281 C 29.753906 76.546875 29.773438 76.675781 29.808594 76.742188 C 29.851562 76.8125 29.925781 76.847656 30.039062 76.847656 L 30.289062 76.847656 C 30.398438 76.847656 30.476562 76.8125 30.515625 76.742188 C 30.554688 76.675781 30.574219 76.546875 30.574219 76.363281 Z M 30.574219 76.363281 " fill-opacity="1" fill-rule="evenodd"/></svg>