<svg xmlns="http://www.w3.org/2000/svg" xmlns:xlink="http://www.w3.org/1999/xlink" width="150" zoomAndPan="magnify" viewBox="0 0 112.5 112.499997" height="150" preserveAspectRatio="xMidYMid meet" version="1.0"><defs><clipPath id="93c9f2ecee"><path d="M 6.652344 6.652344 L 105.214844 6.652344 L 105.214844 105.214844 L 6.652344 105.214844 Z M 6.652344 6.652344 " clip-rule="nonzero"/></clipPath></defs><g clip-path="url(#93c9f2ecee)"><path fill="#2f434d" d="M 55.980469 105.335938 C 42.800781 105.335938 30.414062 100.222656 21.082031 90.886719 C 11.746094 81.554688 6.652344 69.1875 6.652344 55.988281 C 6.652344 42.792969 11.808594 30.425781 21.121094 21.089844 C 30.433594 11.757812 42.820312 6.664062 56.019531 6.664062 C 69.21875 6.664062 81.582031 11.777344 90.917969 21.109375 C 100.25 30.445312 105.34375 42.8125 105.34375 55.988281 C 105.34375 69.167969 100.230469 81.574219 90.898438 90.886719 C 81.5625 100.203125 69.179688 105.335938 55.980469 105.335938 Z M 55.980469 8.089844 C 43.199219 8.089844 31.167969 13.066406 22.132812 22.121094 C 13.074219 31.199219 8.101562 43.226562 8.101562 56.007812 C 8.101562 68.792969 13.074219 80.820312 22.132812 89.878906 C 31.1875 98.933594 43.21875 103.90625 56 103.90625 C 68.78125 103.90625 80.8125 98.933594 89.867188 89.878906 C 98.921875 80.820312 103.898438 68.792969 103.898438 56.007812 C 103.898438 43.226562 98.921875 31.199219 89.867188 22.140625 C 80.832031 13.085938 68.800781 8.089844 55.980469 8.089844 Z M 37.90625 21.40625 L 38.957031 23.390625 L 41.273438 22.179688 L 42.265625 24.042969 L 39.988281 25.253906 L 42.027344 29.117188 L 39.808594 30.285156 L 34.714844 20.617188 L 39.433594 18.136719 L 40.460938 20.121094 Z M 52.390625 25.867188 L 50.253906 21.804688 L 49.539062 21.921875 L 50.253906 26.222656 L 47.894531 26.601562 L 46.128906 15.800781 L 49.597656 15.226562 C 50.648438 15.066406 51.5 15.183594 52.15625 15.640625 C 52.828125 16.078125 53.246094 16.851562 53.421875 17.921875 C 53.484375 18.316406 53.503906 18.671875 53.460938 19.011719 C 53.421875 19.347656 53.363281 19.644531 53.226562 19.863281 C 53.125 20.121094 52.96875 20.316406 52.828125 20.496094 C 52.671875 20.65625 52.511719 20.792969 52.351562 20.894531 L 54.96875 25.410156 Z M 51.023438 18.476562 C 50.984375 18.199219 50.90625 18 50.789062 17.820312 C 50.6875 17.664062 50.550781 17.542969 50.429688 17.464844 C 50.292969 17.386719 50.132812 17.34375 49.996094 17.324219 C 49.855469 17.304688 49.699219 17.324219 49.558594 17.34375 L 48.804688 17.464844 L 49.242188 20.199219 L 49.953125 20.082031 C 50.292969 20.019531 50.589844 19.863281 50.808594 19.605469 C 51.066406 19.347656 51.125 18.96875 51.023438 18.476562 Z M 58.398438 25.6875 L 60.140625 14.867188 L 65.371094 15.699219 L 65.035156 17.859375 L 62.164062 17.40625 L 61.824219 19.527344 L 64.460938 19.941406 L 64.125 21.964844 L 61.488281 21.546875 L 61.113281 23.867188 L 64.183594 24.359375 L 63.828125 26.5625 Z M 67.296875 27.769531 L 72.191406 17.980469 L 76.925781 20.339844 L 75.957031 22.300781 L 73.359375 20.992188 L 72.386719 22.914062 L 74.804688 24.101562 L 73.894531 25.925781 L 71.476562 24.738281 L 70.425781 26.839844 L 73.199219 28.226562 L 72.210938 30.226562 Z M 31.386719 78.757812 C 31.425781 78.480469 31.425781 78.203125 31.367188 77.945312 C 31.308594 77.667969 31.167969 77.453125 31.007812 77.234375 C 30.851562 77.015625 30.613281 76.875 30.335938 76.816406 C 30.058594 76.757812 29.761719 76.855469 29.464844 77.113281 C 29.1875 77.332031 29.066406 77.589844 29.066406 77.886719 C 29.066406 78.183594 29.105469 78.582031 29.207031 79.058594 C 29.265625 79.335938 29.324219 79.632812 29.363281 79.929688 C 29.40625 80.226562 29.40625 80.582031 29.363281 80.917969 C 29.324219 81.257812 29.226562 81.59375 29.027344 81.929688 C 28.871094 82.265625 28.59375 82.585938 28.234375 82.902344 C 27.78125 83.277344 27.304688 83.535156 26.847656 83.675781 C 26.390625 83.8125 25.9375 83.871094 25.5 83.792969 C 25.085938 83.734375 24.667969 83.59375 24.292969 83.375 C 23.914062 83.160156 23.578125 82.882812 23.300781 82.542969 C 22.882812 82.050781 22.585938 81.496094 22.449219 80.917969 C 22.308594 80.34375 22.230469 79.828125 22.289062 79.375 L 24.53125 79.15625 C 24.488281 79.492188 24.507812 79.828125 24.589844 80.167969 C 24.667969 80.503906 24.828125 80.800781 25.003906 81.019531 C 25.203125 81.257812 25.421875 81.375 25.71875 81.414062 C 25.996094 81.453125 26.292969 81.355469 26.53125 81.136719 C 26.808594 80.898438 26.945312 80.640625 26.945312 80.304688 C 26.945312 79.988281 26.90625 79.550781 26.789062 79.035156 C 26.710938 78.71875 26.667969 78.382812 26.628906 78.085938 C 26.589844 77.769531 26.609375 77.453125 26.667969 77.132812 C 26.730469 76.816406 26.867188 76.519531 27.046875 76.203125 C 27.246094 75.90625 27.480469 75.609375 27.839844 75.332031 C 28.292969 74.953125 28.789062 74.675781 29.246094 74.578125 C 29.703125 74.460938 30.15625 74.4375 30.574219 74.5 C 30.988281 74.578125 31.386719 74.738281 31.722656 74.933594 C 32.078125 75.171875 32.378906 75.410156 32.65625 75.726562 C 33.03125 76.183594 33.308594 76.679688 33.445312 77.152344 C 33.585938 77.628906 33.644531 78.125 33.585938 78.582031 Z M 33.070312 90.96875 L 35.6875 87.222656 L 33.605469 85.753906 L 30.988281 89.5 L 28.96875 88.09375 L 35.25 79.136719 L 37.273438 80.542969 L 34.894531 83.953125 L 36.976562 85.417969 L 39.351562 82.007812 L 41.375 83.417969 L 35.09375 92.375 Z M 39.609375 94.476562 L 43.59375 84.289062 L 45.914062 85.199219 L 41.929688 95.386719 Z M 54.433594 90.453125 C 54.355469 91.066406 54.15625 91.5625 53.9375 91.957031 C 53.679688 92.375 53.382812 92.691406 53.027344 92.929688 C 52.671875 93.167969 52.292969 93.324219 51.898438 93.40625 C 51.5 93.484375 51.085938 93.484375 50.6875 93.425781 L 49.636719 93.265625 L 49.023438 97.210938 L 46.625 96.851562 L 48.289062 86.03125 L 51.640625 86.527344 C 52.015625 86.585938 52.414062 86.6875 52.769531 86.863281 C 53.144531 87.023438 53.484375 87.28125 53.761719 87.578125 C 54.039062 87.894531 54.234375 88.273438 54.394531 88.746094 C 54.492188 89.242188 54.511719 89.796875 54.433594 90.453125 Z M 52.136719 90.132812 C 52.214844 89.660156 52.15625 89.28125 51.9375 89.023438 C 51.71875 88.765625 51.480469 88.628906 51.144531 88.589844 L 50.371094 88.46875 L 49.933594 91.304688 L 50.707031 91.421875 C 51.046875 91.460938 51.363281 91.402344 51.621094 91.164062 C 51.898438 90.945312 52.054688 90.609375 52.136719 90.132812 Z M 63.589844 89.660156 C 63.648438 90.273438 63.628906 90.789062 63.488281 91.265625 C 63.371094 91.71875 63.152344 92.117188 62.875 92.433594 C 62.597656 92.75 62.261719 93.007812 61.90625 93.1875 C 61.527344 93.382812 61.152344 93.484375 60.753906 93.523438 L 59.707031 93.640625 L 60.140625 97.605469 L 57.722656 97.882812 L 56.476562 87.003906 L 59.863281 86.625 C 60.261719 86.585938 60.636719 86.585938 61.050781 86.667969 C 61.449219 86.726562 61.824219 86.882812 62.183594 87.101562 C 62.539062 87.339844 62.835938 87.65625 63.09375 88.074219 C 63.351562 88.46875 63.511719 89.003906 63.589844 89.660156 Z M 61.269531 89.9375 C 61.210938 89.460938 61.050781 89.105469 60.796875 88.90625 C 60.539062 88.707031 60.21875 88.628906 59.882812 88.667969 L 59.109375 88.746094 L 59.425781 91.582031 L 60.199219 91.503906 C 60.539062 91.460938 60.816406 91.304688 61.011719 91.027344 C 61.25 90.808594 61.351562 90.433594 61.269531 89.9375 Z M 68.542969 95.902344 L 64.957031 85.578125 L 67.316406 84.765625 L 70.902344 95.089844 Z M 79.464844 90.609375 L 73.734375 86.371094 L 73.695312 86.390625 L 77.34375 91.957031 L 75.480469 93.148438 L 69.554688 83.953125 L 71.832031 82.484375 L 77.601562 86.804688 L 77.640625 86.785156 L 73.953125 81.136719 L 75.738281 79.988281 L 81.664062 89.183594 Z M 89.214844 81.453125 C 89.015625 81.929688 88.71875 82.445312 88.261719 82.941406 C 87.824219 83.457031 87.289062 83.851562 86.753906 84.070312 C 86.179688 84.308594 85.605469 84.386719 84.972656 84.347656 C 84.339844 84.308594 83.703125 84.128906 83.050781 83.832031 C 82.375 83.535156 81.722656 83.097656 81.066406 82.523438 C 80.414062 81.949219 79.898438 81.394531 79.503906 80.761719 C 79.105469 80.125 78.828125 79.550781 78.691406 78.917969 C 78.550781 78.304688 78.550781 77.710938 78.671875 77.132812 C 78.789062 76.558594 79.066406 76.023438 79.484375 75.527344 C 79.957031 74.953125 80.472656 74.578125 80.988281 74.359375 C 81.503906 74.140625 82 74.042969 82.476562 74.082031 L 82.96875 76.28125 C 82.335938 76.222656 81.820312 76.441406 81.40625 76.9375 C 81.167969 77.195312 81.046875 77.492188 81.027344 77.769531 C 81.007812 78.085938 81.046875 78.402344 81.167969 78.71875 C 81.285156 79.058594 81.484375 79.375 81.761719 79.710938 C 82.019531 80.046875 82.335938 80.363281 82.691406 80.660156 C 83.050781 80.960938 83.40625 81.238281 83.761719 81.433594 C 84.121094 81.632812 84.476562 81.792969 84.8125 81.871094 C 85.152344 81.949219 85.46875 81.949219 85.785156 81.890625 C 86.082031 81.832031 86.359375 81.652344 86.558594 81.414062 C 86.816406 81.136719 86.933594 80.859375 86.953125 80.601562 L 85.40625 79.273438 L 84.65625 80.148438 L 83.011719 78.738281 L 85.191406 76.203125 L 89.628906 80.007812 C 89.53125 80.523438 89.429688 80.980469 89.214844 81.453125 Z M 92.621094 55.988281 C 92.621094 44.714844 87.546875 34.25 78.691406 27.253906 L 78.3125 27.730469 C 87.035156 34.605469 92.027344 44.929688 92.027344 56.007812 C 92.027344 61.398438 90.878906 66.589844 88.558594 71.445312 L 89.113281 71.703125 C 91.433594 66.769531 92.621094 61.480469 92.621094 55.988281 Z M 23.378906 71.308594 C 21.121094 66.492188 19.992188 61.359375 19.992188 55.988281 C 19.992188 45.1875 24.785156 35.082031 33.089844 28.1875 L 32.714844 27.730469 C 24.25 34.726562 19.375 45.011719 19.375 55.988281 C 19.375 61.417969 20.527344 66.652344 22.84375 71.546875 Z M 75.71875 52.796875 L 70.902344 45.664062 C 70.167969 44.554688 68.921875 43.902344 67.59375 43.902344 L 61.945312 43.902344 L 61.945312 42.078125 C 61.945312 41.125 61.191406 40.375 60.238281 40.375 L 35.429688 40.375 L 35.429688 63.0625 C 35.429688 63.757812 36.003906 64.332031 36.695312 64.332031 L 40.226562 64.332031 C 40.480469 61.539062 42.800781 59.359375 45.65625 59.359375 C 48.507812 59.359375 50.847656 61.539062 51.085938 64.332031 L 62.5 64.332031 C 62.757812 61.539062 65.074219 59.359375 67.929688 59.359375 C 70.78125 59.359375 73.121094 61.539062 73.359375 64.332031 L 74.804688 64.332031 C 75.757812 64.332031 76.511719 63.578125 76.511719 62.628906 L 76.511719 55.613281 C 76.570312 54.621094 76.273438 53.652344 75.71875 52.796875 Z M 72.746094 54.085938 L 65.15625 54.085938 C 64.835938 54.085938 64.582031 53.828125 64.582031 53.511719 L 64.582031 47.25 C 64.582031 46.933594 64.835938 46.675781 65.15625 46.675781 L 68.386719 46.675781 C 68.582031 46.675781 68.742188 46.753906 68.859375 46.933594 L 73.21875 53.195312 C 73.476562 53.570312 73.199219 54.085938 72.746094 54.085938 Z M 45.65625 60.089844 C 43.238281 60.089844 41.253906 61.933594 41.015625 64.292969 C 40.996094 64.453125 40.996094 64.609375 40.996094 64.769531 C 40.996094 64.925781 40.996094 65.105469 41.015625 65.242188 C 41.273438 67.601562 43.238281 69.445312 45.65625 69.445312 C 48.074219 69.445312 50.054688 67.601562 50.292969 65.242188 C 50.3125 65.085938 50.3125 64.925781 50.3125 64.769531 C 50.3125 64.609375 50.3125 64.429688 50.292969 64.292969 C 50.054688 61.933594 48.074219 60.089844 45.65625 60.089844 Z M 47.359375 65.265625 C 47.140625 66.015625 46.488281 66.570312 45.65625 66.570312 C 44.824219 66.570312 44.167969 66.015625 43.949219 65.265625 C 43.910156 65.125 43.871094 64.945312 43.871094 64.789062 C 43.871094 64.628906 43.890625 64.453125 43.949219 64.3125 C 44.167969 63.578125 44.824219 63.003906 45.65625 63.003906 C 46.46875 63.003906 47.140625 63.558594 47.359375 64.3125 C 47.398438 64.453125 47.4375 64.628906 47.4375 64.789062 C 47.417969 64.945312 47.398438 65.105469 47.359375 65.265625 Z M 67.96875 60.089844 C 65.550781 60.089844 63.570312 61.933594 63.332031 64.292969 C 63.3125 64.453125 63.3125 64.609375 63.3125 64.769531 C 63.3125 64.925781 63.3125 65.105469 63.332031 65.242188 C 63.589844 67.601562 65.550781 69.445312 67.96875 69.445312 C 70.386719 69.445312 72.367188 67.601562 72.605469 65.242188 C 72.625 65.085938 72.625 64.925781 72.625 64.769531 C 72.625 64.609375 72.625 64.429688 72.605469 64.292969 C 72.386719 61.933594 70.386719 60.089844 67.96875 60.089844 Z M 69.671875 65.265625 C 69.457031 66.015625 68.800781 66.570312 67.96875 66.570312 C 67.15625 66.570312 66.484375 66.015625 66.265625 65.265625 C 66.226562 65.125 66.183594 64.945312 66.183594 64.789062 C 66.183594 64.628906 66.207031 64.453125 66.265625 64.3125 C 66.484375 63.578125 67.136719 63.003906 67.96875 63.003906 C 68.78125 63.003906 69.457031 63.558594 69.671875 64.3125 C 69.710938 64.453125 69.753906 64.628906 69.753906 64.789062 C 69.753906 64.945312 69.710938 65.105469 69.671875 65.265625 Z M 69.671875 65.265625 " fill-opacity="1" fill-rule="nonzero"/></g></svg>