<svg xmlns="http://www.w3.org/2000/svg" xmlns:xlink="http://www.w3.org/1999/xlink" width="150" zoomAndPan="magnify" viewBox="0 0 112.5 112.499997" height="150" preserveAspectRatio="xMidYMid meet" version="1.0"><defs><clipPath id="fa18b97b31"><path d="M 9.21875 19 L 102.554688 19 L 102.554688 93 L 9.21875 93 Z M 9.21875 19 " clip-rule="nonzero"/></clipPath><clipPath id="8da98ae953"><path d="M 60 79 L 93 79 L 93 105.542969 L 60 105.542969 Z M 60 79 " clip-rule="nonzero"/></clipPath><clipPath id="8923a586f3"><path d="M 43 6.234375 L 63 6.234375 L 63 32 L 43 32 Z M 43 6.234375 " clip-rule="nonzero"/></clipPath></defs><g clip-path="url(#fa18b97b31)"><path fill="#ebf0fc" d="M 94.617188 91.542969 C 97.84375 91.390625 100.535156 89.101562 100.265625 83.804688 C 99.847656 75.574219 93.675781 74.875 89.1875 73.847656 C 86.964844 73.335938 83.695312 73.859375 82.707031 70.175781 C 82.15625 68.125 82.480469 65.761719 83.175781 63.808594 C 83.355469 63.300781 83.570312 62.796875 83.894531 62.484375 C 84.25 62.140625 84.695312 62.066406 85.117188 61.996094 C 89.964844 61.214844 94.730469 60.074219 99.40625 58.578125 C 100.070312 58.367188 100.773438 58.117188 101.253906 57.410156 C 101.757812 56.664062 101.90625 55.566406 102.007812 54.535156 C 102.570312 48.742188 102.363281 42.980469 101.382812 37.246094 C 101.183594 36.085938 100.902344 34.84375 100.214844 34.1875 C 99.726562 33.71875 99.113281 33.636719 98.53125 33.566406 L 76.828125 31 C 75.304688 30.816406 73.457031 30.292969 72.960938 28.191406 C 72.46875 26.09375 73.679688 23.527344 72.832031 21.6875 C 72.269531 20.472656 71.105469 20.292969 70.097656 20.238281 C 61.859375 19.78125 53.617188 19.554688 45.367188 19.5625 C 43.304688 19.5625 41.246094 19.578125 39.183594 19.609375 C 37.503906 19.632812 35.628906 19.367188 33.929688 19.707031 C 33.683594 19.757812 33.441406 19.820312 33.203125 19.898438 C 30.664062 20.726562 27.113281 21.859375 25.613281 25.234375 C 24.503906 27.726562 24.597656 31.105469 25.5625 33.722656 C 25.980469 34.898438 26.582031 35.972656 27.367188 36.941406 C 28.152344 37.914062 29.074219 38.726562 30.136719 39.386719 C 31.304688 40.089844 32.746094 40.859375 32.964844 42.667969 C 33.164062 44.332031 32.148438 45.757812 31.148438 46.625 C 27.894531 49.449219 23.972656 49.949219 20.246094 50.941406 C 16.984375 51.8125 11.621094 53.746094 10.117188 58.726562 C 9.226562 61.671875 9.542969 66.628906 9.574219 69.792969 C 9.613281 73.632812 9.882812 77.460938 10.382812 81.269531 C 10.613281 83.011719 10.910156 84.804688 11.660156 86.207031 C 12.992188 88.714844 15.375 89.359375 17.542969 89.746094 C 24.738281 91.027344 31.988281 91.445312 39.234375 91.734375 C 57.691406 92.476562 76.152344 92.414062 94.617188 91.542969 Z M 94.617188 91.542969 " fill-opacity="1" fill-rule="nonzero"/></g><path fill="#f49e85" d="M 66.039062 46.222656 L 75.042969 46.222656 L 75.042969 70.394531 L 66.039062 70.394531 Z M 66.039062 46.222656 " fill-opacity="1" fill-rule="nonzero"/><path fill="#f49e85" d="M 26.707031 67.550781 C 26.707031 65.574219 27.757812 64.203125 29.585938 62.917969 L 33.339844 59.96875 L 39.027344 59.492188 L 39.027344 65.722656 L 32.394531 70.394531 Z M 26.707031 67.550781 " fill-opacity="1" fill-rule="nonzero"/><path fill="#f49e85" d="M 24.8125 57.125 C 24.8125 55.921875 25.0625 54.773438 25.566406 53.679688 C 26.066406 52.585938 26.777344 51.648438 27.6875 50.863281 L 31.445312 47.644531 L 37.132812 46.695312 L 37.132812 54.28125 L 30.496094 59.96875 Z M 24.8125 57.125 " fill-opacity="1" fill-rule="nonzero"/><g clip-path="url(#8da98ae953)"><path fill="#fdb2a1" d="M 60.351562 90.300781 L 66.039062 105.46875 L 92.105469 105.46875 L 82.347656 79.875 L 60.351562 80.347656 Z M 60.351562 90.300781 " fill-opacity="1" fill-rule="nonzero"/></g><path fill="#f49e85" d="M 52.296875 77.09375 L 52.296875 81.136719 C 52.296875 86.722656 58.648438 91.25 64.144531 91.25 L 66.042969 91.25 C 66.882812 91.246094 67.707031 91.128906 68.515625 90.894531 C 69.324219 90.660156 70.082031 90.320312 70.792969 89.875 C 71.503906 89.425781 72.140625 88.890625 72.703125 88.265625 C 73.265625 87.640625 73.730469 86.949219 74.097656 86.195312 L 76.234375 86.195312 C 80.550781 86.195312 84.050781 82.636719 84.050781 78.253906 L 84.050781 76.082031 L 52.296875 76.082031 Z M 52.296875 77.09375 " fill-opacity="1" fill-rule="nonzero"/><path fill="#fdb2a1" d="M 24.8125 48.117188 C 24.8125 46.914062 25.0625 45.765625 25.566406 44.675781 C 26.066406 43.582031 26.777344 42.644531 27.6875 41.859375 L 31.445312 38.640625 L 37.132812 37.691406 L 37.132812 45.273438 L 30.496094 50.960938 Z M 24.8125 48.117188 " fill-opacity="1" fill-rule="nonzero"/><path fill="#f49e85" d="M 33.027344 38.375 C 32.808594 38.414062 32.601562 38.484375 32.40625 38.597656 C 32.210938 38.707031 32.039062 38.847656 31.894531 39.019531 C 31.75 39.191406 31.636719 39.382812 31.5625 39.59375 C 31.484375 39.804688 31.445312 40.019531 31.445312 40.246094 L 31.445312 42.429688 C 31.445312 42.746094 31.386719 43.046875 31.265625 43.335938 C 31.144531 43.628906 30.972656 43.882812 30.75 44.105469 C 30.527344 44.328125 30.273438 44.5 29.984375 44.621094 C 29.691406 44.742188 29.390625 44.800781 29.074219 44.800781 L 29.074219 50.25 L 30.496094 50.960938 L 37.132812 45.273438 L 37.132812 37.691406 Z M 33.027344 38.375 " fill-opacity="1" fill-rule="nonzero"/><path fill="#fdb2a1" d="M 38.078125 30.808594 L 28.398438 27.378906 C 28.25 27.328125 28.097656 27.292969 27.941406 27.273438 C 27.785156 27.257812 27.628906 27.257812 27.472656 27.277344 C 27.320312 27.296875 27.167969 27.335938 27.019531 27.394531 C 26.875 27.449219 26.734375 27.523438 26.605469 27.609375 C 26.476562 27.699219 26.359375 27.804688 26.257812 27.921875 C 26.152344 28.039062 26.0625 28.167969 25.988281 28.304688 C 25.914062 28.445312 25.859375 28.589844 25.820312 28.742188 C 25.78125 28.894531 25.761719 29.046875 25.757812 29.203125 L 25.757812 30.617188 C 25.761719 31.515625 25.894531 32.394531 26.15625 33.253906 C 26.417969 34.113281 26.796875 34.917969 27.292969 35.667969 C 27.789062 36.417969 28.382812 37.078125 29.074219 37.652344 C 29.765625 38.230469 30.523438 38.691406 31.351562 39.046875 L 38.078125 41.957031 Z M 38.078125 30.808594 " fill-opacity="1" fill-rule="nonzero"/><path fill="#ffffff" d="M 44.335938 12.097656 L 61.4375 12.097656 C 62.195312 12.097656 62.949219 12.171875 63.695312 12.320312 C 64.441406 12.46875 65.167969 12.6875 65.871094 12.980469 C 66.574219 13.269531 67.242188 13.628906 67.875 14.050781 C 68.507812 14.472656 69.09375 14.953125 69.632812 15.492188 C 70.167969 16.03125 70.648438 16.617188 71.074219 17.25 C 71.496094 17.882812 71.851562 18.550781 72.144531 19.253906 C 72.433594 19.957031 72.65625 20.683594 72.804688 21.429688 C 72.953125 22.175781 73.027344 22.929688 73.027344 23.691406 L 73.027344 74.441406 C 73.027344 75.203125 72.953125 75.957031 72.804688 76.703125 C 72.65625 77.453125 72.433594 78.175781 72.144531 78.878906 C 71.851562 79.582031 71.496094 80.25 71.074219 80.882812 C 70.648438 81.515625 70.167969 82.101562 69.632812 82.640625 C 69.09375 83.179688 68.507812 83.660156 67.875 84.082031 C 67.242188 84.503906 66.574219 84.863281 65.871094 85.152344 C 65.167969 85.445312 64.441406 85.664062 63.695312 85.8125 C 62.949219 85.960938 62.195312 86.035156 61.4375 86.035156 L 44.335938 86.035156 C 43.574219 86.035156 42.820312 85.960938 42.074219 85.8125 C 41.328125 85.664062 40.605469 85.445312 39.902344 85.152344 C 39.199219 84.863281 38.53125 84.503906 37.898438 84.082031 C 37.265625 83.660156 36.679688 83.179688 36.140625 82.640625 C 35.601562 82.101562 35.121094 81.515625 34.699219 80.882812 C 34.277344 80.25 33.917969 79.582031 33.628906 78.878906 C 33.335938 78.175781 33.117188 77.453125 32.96875 76.703125 C 32.820312 75.957031 32.746094 75.203125 32.746094 74.441406 L 32.746094 23.691406 C 32.746094 22.929688 32.820312 22.175781 32.96875 21.429688 C 33.117188 20.683594 33.335938 19.957031 33.628906 19.253906 C 33.917969 18.550781 34.277344 17.882812 34.699219 17.25 C 35.121094 16.617188 35.601562 16.03125 36.140625 15.492188 C 36.679688 14.953125 37.265625 14.472656 37.898438 14.050781 C 38.53125 13.628906 39.199219 13.269531 39.902344 12.980469 C 40.605469 12.6875 41.328125 12.46875 42.074219 12.320312 C 42.820312 12.171875 43.574219 12.097656 44.335938 12.097656 Z M 44.335938 12.097656 " fill-opacity="1" fill-rule="nonzero"/><path fill="#ebf0fc" d="M 36.085938 12.371094 C 35.597656 12.539062 35.148438 12.777344 34.734375 13.085938 C 34.320312 13.394531 33.964844 13.761719 33.667969 14.179688 C 33.367188 14.601562 33.140625 15.054688 32.980469 15.546875 C 32.824219 16.035156 32.746094 16.539062 32.746094 17.054688 L 32.746094 81.078125 C 32.746094 81.402344 32.777344 81.726562 32.839844 82.046875 C 32.902344 82.363281 33 82.675781 33.121094 82.976562 C 33.246094 83.277344 33.398438 83.5625 33.582031 83.832031 C 33.761719 84.101562 33.96875 84.351562 34.199219 84.582031 C 34.425781 84.8125 34.679688 85.019531 34.949219 85.199219 C 35.21875 85.378906 35.503906 85.535156 35.804688 85.65625 C 36.105469 85.78125 36.417969 85.875 36.734375 85.941406 C 37.054688 86.003906 37.378906 86.035156 37.703125 86.035156 L 68.070312 86.035156 C 68.394531 86.035156 68.71875 86.003906 69.035156 85.941406 C 69.355469 85.875 69.664062 85.78125 69.964844 85.65625 C 70.265625 85.535156 70.550781 85.378906 70.824219 85.199219 C 71.09375 85.019531 71.34375 84.8125 71.574219 84.582031 C 71.804688 84.351562 72.011719 84.101562 72.191406 83.832031 C 72.371094 83.5625 72.523438 83.277344 72.648438 82.976562 C 72.773438 82.675781 72.867188 82.363281 72.929688 82.046875 C 72.996094 81.726562 73.027344 81.402344 73.027344 81.078125 L 73.027344 80.8125 C 41.96875 71.210938 36.90625 26.636719 36.085938 12.371094 Z M 36.085938 12.371094 " fill-opacity="1" fill-rule="nonzero"/><path fill="#2b2c2f" d="M 61.179688 12.097656 L 37.703125 12.097656 C 37.375 12.097656 37.054688 12.128906 36.734375 12.191406 C 36.414062 12.257812 36.105469 12.351562 35.804688 12.476562 C 35.503906 12.601562 35.21875 12.753906 34.949219 12.933594 C 34.675781 13.113281 34.425781 13.320312 34.195312 13.550781 C 33.964844 13.78125 33.761719 14.03125 33.578125 14.300781 C 33.398438 14.570312 33.246094 14.855469 33.121094 15.15625 C 32.996094 15.457031 32.902344 15.769531 32.839844 16.089844 C 32.777344 16.40625 32.746094 16.730469 32.746094 17.054688 L 32.746094 81.078125 C 32.746094 81.402344 32.777344 81.726562 32.839844 82.046875 C 32.902344 82.363281 32.996094 82.675781 33.121094 82.976562 C 33.246094 83.277344 33.398438 83.5625 33.578125 83.832031 C 33.761719 84.101562 33.964844 84.351562 34.195312 84.582031 C 34.425781 84.8125 34.675781 85.019531 34.949219 85.199219 C 35.21875 85.378906 35.503906 85.535156 35.804688 85.65625 C 36.105469 85.78125 36.414062 85.875 36.734375 85.941406 C 37.054688 86.003906 37.375 86.035156 37.703125 86.035156 L 68.070312 86.035156 C 68.394531 86.035156 68.71875 86.003906 69.035156 85.941406 C 69.355469 85.875 69.664062 85.78125 69.964844 85.65625 C 70.265625 85.535156 70.550781 85.378906 70.824219 85.199219 C 71.09375 85.019531 71.34375 84.8125 71.574219 84.582031 C 71.804688 84.351562 72.011719 84.101562 72.191406 83.832031 C 72.371094 83.5625 72.523438 83.277344 72.648438 82.976562 C 72.773438 82.675781 72.867188 82.363281 72.929688 82.046875 C 72.996094 81.726562 73.027344 81.402344 73.027344 81.078125 L 73.027344 17.054688 C 73.027344 16.730469 72.996094 16.40625 72.929688 16.089844 C 72.867188 15.769531 72.773438 15.457031 72.648438 15.15625 C 72.523438 14.855469 72.371094 14.570312 72.191406 14.300781 C 72.011719 14.03125 71.804688 13.78125 71.574219 13.550781 C 71.34375 13.320312 71.09375 13.113281 70.824219 12.933594 C 70.550781 12.753906 70.265625 12.601562 69.964844 12.476562 C 69.664062 12.351562 69.355469 12.257812 69.035156 12.191406 C 68.71875 12.128906 68.394531 12.097656 68.070312 12.097656 Z M 71.605469 17.652344 L 71.605469 80.480469 C 71.605469 80.753906 71.578125 81.023438 71.523438 81.289062 C 71.472656 81.554688 71.394531 81.8125 71.289062 82.0625 C 71.1875 82.3125 71.058594 82.550781 70.910156 82.777344 C 70.757812 83.003906 70.585938 83.210938 70.394531 83.402344 C 70.203125 83.59375 69.996094 83.765625 69.769531 83.917969 C 69.542969 84.066406 69.304688 84.195312 69.054688 84.300781 C 68.804688 84.402344 68.546875 84.480469 68.28125 84.535156 C 68.011719 84.585938 67.746094 84.613281 67.472656 84.613281 L 38.296875 84.613281 C 38.027344 84.613281 37.757812 84.585938 37.492188 84.535156 C 37.226562 84.480469 36.96875 84.402344 36.71875 84.300781 C 36.464844 84.195312 36.226562 84.066406 36.003906 83.917969 C 35.777344 83.765625 35.570312 83.59375 35.375 83.402344 C 35.183594 83.210938 35.015625 83.003906 34.863281 82.777344 C 34.710938 82.550781 34.585938 82.3125 34.480469 82.0625 C 34.378906 81.8125 34.300781 81.554688 34.246094 81.289062 C 34.195312 81.023438 34.167969 80.753906 34.167969 80.480469 L 34.167969 17.652344 C 34.167969 17.378906 34.195312 17.109375 34.246094 16.84375 C 34.300781 16.578125 34.378906 16.320312 34.480469 16.070312 C 34.585938 15.820312 34.710938 15.582031 34.863281 15.355469 C 35.015625 15.128906 35.183594 14.921875 35.375 14.730469 C 35.570312 14.539062 35.777344 14.367188 36.003906 14.214844 C 36.226562 14.066406 36.464844 13.9375 36.71875 13.832031 C 36.96875 13.730469 37.226562 13.652344 37.492188 13.597656 C 37.757812 13.546875 38.027344 13.519531 38.296875 13.519531 L 44.949219 13.519531 L 45.226562 14.636719 C 45.320312 15.003906 45.515625 15.304688 45.8125 15.539062 C 46.113281 15.773438 46.449219 15.890625 46.828125 15.890625 L 58.941406 15.890625 C 59.320312 15.890625 59.65625 15.773438 59.957031 15.539062 C 60.253906 15.304688 60.449219 15.003906 60.542969 14.636719 L 60.820312 13.519531 L 67.472656 13.519531 C 67.742188 13.519531 68.011719 13.546875 68.277344 13.597656 C 68.542969 13.652344 68.800781 13.730469 69.054688 13.832031 C 69.304688 13.9375 69.542969 14.066406 69.769531 14.214844 C 69.992188 14.367188 70.203125 14.539062 70.394531 14.730469 C 70.585938 14.921875 70.757812 15.128906 70.90625 15.355469 C 71.058594 15.582031 71.1875 15.820312 71.289062 16.070312 C 71.394531 16.320312 71.472656 16.578125 71.523438 16.84375 C 71.578125 17.109375 71.605469 17.378906 71.605469 17.652344 Z M 71.605469 17.652344 " fill-opacity="1" fill-rule="nonzero"/><path fill="#46474c" d="M 48.949219 13.046875 L 57.296875 13.046875 C 57.453125 13.046875 57.585938 13.101562 57.695312 13.210938 C 57.804688 13.320312 57.863281 13.453125 57.863281 13.609375 L 57.863281 13.902344 C 57.863281 14.058594 57.804688 14.191406 57.695312 14.300781 C 57.585938 14.414062 57.453125 14.46875 57.296875 14.46875 L 48.949219 14.46875 C 48.792969 14.46875 48.660156 14.414062 48.550781 14.300781 C 48.4375 14.191406 48.382812 14.058594 48.382812 13.902344 L 48.382812 13.609375 C 48.382812 13.453125 48.4375 13.320312 48.550781 13.210938 C 48.660156 13.101562 48.792969 13.046875 48.949219 13.046875 Z M 48.949219 13.046875 " fill-opacity="1" fill-rule="nonzero"/><path fill="#fdb2a1" d="M 74.09375 59.492188 C 74.09375 59.492188 71.253906 54.753906 71.253906 47.171875 C 71.253906 39.585938 72.675781 33.425781 76.464844 32.953125 L 78.359375 32.953125 L 78.359375 41.027344 C 78.359375 43.222656 78.683594 45.363281 79.335938 47.457031 C 80.722656 51.925781 83.101562 59.632812 83.101562 59.96875 C 83.101562 63.875 76.464844 67.078125 74.09375 59.492188 Z M 74.09375 59.492188 " fill-opacity="1" fill-rule="nonzero"/><path fill="#fdb2a1" d="M 75.042969 57.125 C 75.042969 57.125 70.777344 62.335938 70.777344 70.394531 C 70.777344 78.453125 70.777344 85.5625 78.835938 85.085938 C 86.890625 84.613281 84.996094 65.65625 83.101562 59.96875 C 81.203125 54.28125 75.042969 57.125 75.042969 57.125 Z M 75.042969 57.125 " fill-opacity="1" fill-rule="nonzero"/><path fill="#fdb2a1" d="M 37.132812 54.28125 C 37.085938 50.960938 29.078125 44.800781 29.078125 44.800781 L 28.496094 44.738281 C 28.261719 44.710938 28.03125 44.710938 27.796875 44.730469 C 27.566406 44.753906 27.339844 44.800781 27.117188 44.875 C 26.894531 44.945312 26.683594 45.039062 26.480469 45.152344 C 26.277344 45.269531 26.089844 45.40625 25.914062 45.5625 C 25.742188 45.714844 25.585938 45.886719 25.449219 46.078125 C 25.3125 46.265625 25.195312 46.464844 25.097656 46.679688 C 25.003906 46.890625 24.933594 47.113281 24.882812 47.339844 C 24.835938 47.570312 24.8125 47.800781 24.8125 48.03125 C 24.8125 49.039062 25.15625 49.90625 25.84375 50.636719 L 31.984375 57.136719 C 32.574219 57.761719 33.296875 58.070312 34.152344 58.070312 C 35.796875 58.070312 37.132812 56.402344 37.132812 54.753906 Z M 37.132812 54.28125 " fill-opacity="1" fill-rule="nonzero"/><path fill="#fdb2a1" d="M 37.132812 63.285156 C 37.085938 59.964844 29.078125 53.804688 29.078125 53.804688 L 28.496094 53.742188 C 28.261719 53.714844 28.03125 53.714844 27.800781 53.738281 C 27.566406 53.761719 27.339844 53.808594 27.117188 53.878906 C 26.894531 53.949219 26.683594 54.042969 26.480469 54.160156 C 26.277344 54.273438 26.089844 54.410156 25.917969 54.566406 C 25.742188 54.722656 25.585938 54.894531 25.449219 55.082031 C 25.3125 55.269531 25.195312 55.472656 25.101562 55.683594 C 25.003906 55.898438 24.933594 56.117188 24.886719 56.347656 C 24.835938 56.574219 24.8125 56.804688 24.8125 57.039062 C 24.8125 58.042969 25.15625 58.910156 25.847656 59.640625 L 31.984375 66.144531 C 32.574219 66.765625 33.296875 67.078125 34.152344 67.078125 C 35.796875 67.078125 37.132812 65.40625 37.132812 63.757812 Z M 37.132812 63.285156 " fill-opacity="1" fill-rule="nonzero"/><path fill="#fdb2a1" d="M 36.941406 71.402344 C 36.515625 68.824219 29.5625 64.96875 29.5625 64.96875 L 29.101562 64.988281 C 28.730469 65 28.378906 65.089844 28.046875 65.253906 C 27.710938 65.421875 27.425781 65.644531 27.191406 65.929688 C 26.953125 66.21875 26.785156 66.539062 26.6875 66.898438 C 26.585938 67.253906 26.566406 67.617188 26.621094 67.984375 C 26.738281 68.765625 27.109375 69.402344 27.730469 69.890625 L 33.269531 74.230469 C 33.800781 74.644531 34.402344 74.804688 35.066406 74.703125 C 36.347656 74.507812 37.191406 73.050781 37 71.769531 Z M 36.941406 71.402344 " fill-opacity="1" fill-rule="nonzero"/><g clip-path="url(#8923a586f3)"><path fill="#86b528" d="M 53.125 6.3125 C 47.992188 6.3125 43.832031 10.113281 43.832031 15.816406 C 43.832031 21.519531 51.265625 31.101562 53.125 31.101562 C 54.984375 31.101562 62.417969 21.519531 62.417969 15.816406 C 62.417969 10.113281 58.257812 6.3125 53.125 6.3125 Z M 53.125 6.3125 " fill-opacity="1" fill-rule="nonzero"/></g><path fill="#ffffff" d="M 56.429688 15.195312 C 56.429688 15.632812 56.347656 16.054688 56.179688 16.460938 C 56.011719 16.867188 55.773438 17.222656 55.460938 17.535156 C 55.152344 17.84375 54.792969 18.082031 54.390625 18.25 C 53.984375 18.417969 53.5625 18.5 53.125 18.5 C 52.6875 18.5 52.265625 18.417969 51.859375 18.25 C 51.457031 18.082031 51.097656 17.84375 50.789062 17.535156 C 50.476562 17.222656 50.238281 16.867188 50.070312 16.460938 C 49.902344 16.054688 49.820312 15.632812 49.820312 15.195312 C 49.820312 14.757812 49.902344 14.335938 50.070312 13.929688 C 50.238281 13.527344 50.476562 13.167969 50.789062 12.859375 C 51.097656 12.550781 51.457031 12.308594 51.859375 12.144531 C 52.265625 11.976562 52.6875 11.890625 53.125 11.890625 C 53.5625 11.890625 53.984375 11.976562 54.390625 12.144531 C 54.792969 12.308594 55.152344 12.550781 55.460938 12.859375 C 55.773438 13.167969 56.011719 13.527344 56.179688 13.929688 C 56.347656 14.335938 56.429688 14.757812 56.429688 15.195312 Z M 56.429688 15.195312 " fill-opacity="1" fill-rule="nonzero"/><path fill="#9c613b" d="M 44.882812 67.335938 C 44.617188 67.328125 44.355469 67.269531 44.109375 67.160156 C 43.863281 67.054688 43.648438 66.902344 43.460938 66.710938 C 43.273438 66.515625 43.128906 66.292969 43.03125 66.042969 C 42.929688 65.792969 42.882812 65.53125 42.882812 65.265625 C 42.886719 64.996094 42.941406 64.734375 43.046875 64.488281 C 43.148438 64.238281 43.296875 64.019531 43.488281 63.832031 C 43.679688 63.640625 43.898438 63.492188 44.148438 63.390625 C 44.398438 63.289062 44.65625 63.234375 44.925781 63.234375 L 61.324219 63.234375 C 61.59375 63.238281 61.855469 63.289062 62.101562 63.394531 C 62.351562 63.5 62.570312 63.648438 62.761719 63.839844 C 62.949219 64.035156 63.097656 64.253906 63.199219 64.503906 C 63.300781 64.753906 63.355469 65.015625 63.355469 65.285156 C 63.355469 65.554688 63.300781 65.8125 63.199219 66.0625 C 63.097656 66.3125 62.949219 66.535156 62.761719 66.726562 C 62.570312 66.917969 62.351562 67.066406 62.101562 67.171875 C 61.855469 67.277344 61.59375 67.332031 61.324219 67.335938 L 60.640625 66.652344 L 51.074219 66.652344 L 51.074219 67.335938 L 48.34375 67.335938 L 49.023438 66.652344 L 44.925781 66.652344 L 45.199219 67.199219 L 44.925781 67.335938 Z M 44.882812 67.335938 " fill-opacity="1" fill-rule="nonzero"/><path fill="#f6b98c" d="M 46.386719 71.433594 C 45.921875 71.433594 45.472656 71.34375 45.042969 71.167969 C 44.613281 70.988281 44.234375 70.734375 43.902344 70.40625 C 43.574219 70.078125 43.320312 69.695312 43.140625 69.265625 C 42.964844 68.835938 42.875 68.386719 42.875 67.921875 C 42.875 67.757812 42.929688 67.621094 43.046875 67.503906 C 43.160156 67.390625 43.300781 67.332031 43.464844 67.332031 L 44.925781 67.332031 L 45.199219 67.195312 L 46.292969 69.382812 L 48.339844 67.332031 L 51.074219 67.332031 L 54.492188 69.382812 C 54.492188 69.382812 57.222656 68.699219 58.589844 68.699219 C 59.957031 68.699219 60.640625 69.042969 60.640625 69.042969 L 61.324219 67.332031 L 62.785156 67.332031 C 62.949219 67.332031 63.085938 67.390625 63.203125 67.503906 C 63.316406 67.621094 63.375 67.757812 63.375 67.921875 C 63.375 68.386719 63.289062 68.835938 63.109375 69.269531 C 62.933594 69.699219 62.679688 70.078125 62.347656 70.410156 C 62.019531 70.738281 61.640625 70.992188 61.207031 71.171875 C 60.777344 71.347656 60.328125 71.4375 59.863281 71.433594 Z M 46.386719 71.433594 " fill-opacity="1" fill-rule="nonzero"/><path fill="#f6b98c" d="M 57.519531 50.933594 C 57.902344 50.933594 58.285156 50.972656 58.660156 51.046875 C 59.039062 51.121094 59.402344 51.230469 59.757812 51.378906 C 60.113281 51.527344 60.453125 51.707031 60.769531 51.921875 C 61.089844 52.132812 61.386719 52.378906 61.660156 52.648438 C 61.929688 52.921875 62.171875 53.21875 62.386719 53.535156 C 62.601562 53.855469 62.78125 54.195312 62.929688 54.550781 C 63.074219 54.902344 63.1875 55.269531 63.261719 55.648438 C 63.335938 56.023438 63.375 56.40625 63.375 56.789062 C 63.375 56.890625 63.359375 56.988281 63.328125 57.082031 C 63.261719 57.285156 63.144531 57.453125 62.972656 57.578125 C 62.800781 57.703125 62.609375 57.765625 62.398438 57.765625 L 43.851562 57.765625 C 43.582031 57.765625 43.351562 57.671875 43.160156 57.480469 C 42.972656 57.289062 42.875 57.058594 42.875 56.789062 C 42.875 56.40625 42.914062 56.023438 42.988281 55.648438 C 43.0625 55.269531 43.175781 54.902344 43.320312 54.546875 C 43.46875 54.191406 43.648438 53.855469 43.863281 53.535156 C 44.074219 53.214844 44.320312 52.917969 44.589844 52.648438 C 44.863281 52.375 45.160156 52.132812 45.476562 51.917969 C 45.796875 51.707031 46.136719 51.527344 46.492188 51.378906 C 46.847656 51.230469 47.210938 51.121094 47.589844 51.046875 C 47.964844 50.96875 48.347656 50.933594 48.730469 50.933594 Z M 57.519531 50.933594 " fill-opacity="1" fill-rule="nonzero"/><path fill="#fddc45" d="M 49.023438 66.652344 L 48.34375 67.335938 L 46.292969 69.382812 L 45.199219 67.199219 L 44.925781 66.652344 Z M 49.023438 66.652344 " fill-opacity="1" fill-rule="nonzero"/><path fill="#fddc45" d="M 51.074219 66.652344 L 60.640625 66.652344 L 61.324219 67.335938 L 60.640625 69.042969 C 60.640625 69.042969 59.957031 68.699219 58.589844 68.699219 C 57.226562 68.699219 54.492188 69.382812 54.492188 69.382812 L 51.074219 67.335938 Z M 51.074219 66.652344 " fill-opacity="1" fill-rule="nonzero"/><path fill="#3d9e4b" d="M 65.25 60.125 C 65.171875 60.074219 65.070312 60.042969 64.996094 59.988281 C 64.839844 59.851562 64.804688 59.683594 64.894531 59.492188 C 64.976562 59.328125 65.027344 59.160156 65.050781 58.980469 C 65.042969 58.660156 64.703125 58.414062 64.367188 58.242188 C 63.925781 58.023438 63.464844 57.859375 62.984375 57.757812 C 62.816406 57.703125 62.648438 57.707031 62.484375 57.769531 C 62.195312 57.925781 62.324219 58.363281 62.015625 58.488281 C 61.976562 58.507812 61.933594 58.511719 61.890625 58.5 C 61.867188 58.492188 61.847656 58.476562 61.828125 58.457031 C 61.632812 58.28125 61.621094 58.007812 61.40625 57.847656 C 61.164062 57.71875 60.910156 57.683594 60.640625 57.75 C 60.597656 57.753906 60.554688 57.761719 60.515625 57.765625 L 44.390625 57.753906 C 44.121094 57.8125 43.851562 57.890625 43.589844 57.976562 C 43.304688 58.078125 43.210938 58.359375 43.042969 58.570312 C 42.773438 58.878906 42.433594 59.035156 42.023438 59.039062 C 41.816406 59.046875 41.613281 59.011719 41.410156 59.019531 C 41.203125 59.011719 41.027344 59.082031 40.886719 59.234375 C 40.792969 59.421875 40.808594 59.601562 40.9375 59.769531 C 41.058594 59.925781 41.109375 60.105469 41.09375 60.304688 C 41.054688 60.402344 41.003906 60.496094 40.945312 60.582031 C 40.878906 60.722656 40.847656 60.871094 40.851562 61.027344 C 40.84375 61.257812 40.917969 61.457031 41.074219 61.625 C 41.277344 61.820312 41.511719 61.871094 41.777344 61.777344 C 41.960938 61.691406 42.070312 61.550781 42.113281 61.351562 C 42.140625 61.175781 42.1875 61.007812 42.253906 60.84375 C 42.359375 60.640625 42.792969 60.375 43.082031 60.472656 C 43.355469 60.5625 43.429688 60.871094 43.648438 61.023438 C 43.90625 61.179688 44.160156 61.171875 44.402344 60.988281 C 44.453125 60.9375 44.507812 60.890625 44.566406 60.847656 C 44.824219 60.699219 45.144531 60.941406 45.441406 61.035156 C 45.855469 61.128906 46.234375 61.050781 46.578125 60.800781 C 46.898438 60.59375 47.160156 60.324219 47.503906 60.144531 C 47.632812 60.066406 47.773438 60.03125 47.925781 60.035156 C 48.273438 60.0625 48.414062 60.402344 48.644531 60.617188 C 49.003906 60.953125 49.664062 60.980469 50.164062 60.796875 C 50.375 60.6875 50.601562 60.621094 50.839844 60.59375 C 51.164062 60.59375 51.476562 60.636719 51.808594 60.605469 C 52.171875 60.550781 52.542969 60.511719 52.910156 60.496094 C 53.207031 60.507812 53.496094 60.546875 53.785156 60.613281 L 54.804688 60.8125 C 55.507812 60.953125 56.246094 61.089844 56.941406 60.929688 C 57.089844 60.898438 57.066406 60.75 57.199219 60.6875 C 57.332031 60.625 57.496094 60.703125 57.636719 60.761719 C 58.167969 60.980469 58.816406 60.859375 59.394531 60.734375 C 59.589844 60.707031 59.769531 60.640625 59.9375 60.542969 C 60.03125 60.480469 60.097656 60.402344 60.191406 60.339844 C 60.464844 60.167969 60.746094 60.15625 61.03125 60.308594 C 61.128906 60.382812 61.234375 60.441406 61.347656 60.488281 C 61.621094 60.558594 61.898438 60.328125 62.1875 60.363281 C 62.304688 60.382812 62.414062 60.433594 62.507812 60.507812 C 62.71875 60.65625 62.902344 60.832031 63.058594 61.035156 C 63.167969 61.234375 63.332031 61.367188 63.546875 61.433594 C 63.671875 61.449219 63.796875 61.4375 63.917969 61.402344 C 64.269531 61.324219 64.609375 61.207031 64.929688 61.042969 C 65.125 60.953125 65.277344 60.816406 65.382812 60.632812 C 65.429688 60.542969 65.4375 60.449219 65.414062 60.351562 C 65.386719 60.257812 65.332031 60.179688 65.25 60.125 Z M 65.25 60.125 " fill-opacity="1" fill-rule="nonzero"/><path fill="#3d9e4b" d="M 61.828125 58.457031 C 61.847656 58.476562 61.867188 58.488281 61.890625 58.5 C 61.933594 58.511719 61.976562 58.507812 62.015625 58.488281 C 62.324219 58.363281 62.195312 57.925781 62.484375 57.769531 C 62.488281 57.769531 62.492188 57.769531 62.496094 57.765625 L 61.242188 57.765625 C 61.304688 57.785156 61.359375 57.8125 61.40625 57.847656 C 61.621094 58.003906 61.632812 58.28125 61.828125 58.457031 Z M 61.828125 58.457031 " fill-opacity="1" fill-rule="nonzero"/><path fill="#f2624c" d="M 62.007812 60.660156 C 61.882812 60.585938 61.746094 60.53125 61.605469 60.5 L 61.597656 60.5 C 61.511719 60.527344 61.429688 60.53125 61.34375 60.507812 C 61.335938 60.503906 61.332031 60.5 61.324219 60.496094 L 61.324219 60.449219 C 61.21875 60.402344 61.121094 60.347656 61.03125 60.28125 C 60.746094 60.125 60.464844 60.136719 60.1875 60.308594 C 60.097656 60.371094 60.027344 60.453125 59.9375 60.515625 C 59.769531 60.613281 59.585938 60.679688 59.394531 60.707031 C 58.8125 60.835938 58.167969 60.960938 57.632812 60.734375 C 57.496094 60.679688 57.332031 60.597656 57.199219 60.660156 C 57.0625 60.726562 57.089844 60.875 56.941406 60.90625 C 56.246094 61.070312 55.507812 60.929688 54.804688 60.789062 L 53.785156 60.585938 C 53.496094 60.519531 53.203125 60.480469 52.910156 60.46875 C 52.539062 60.484375 52.171875 60.523438 51.804688 60.582031 C 51.476562 60.613281 51.164062 60.570312 50.835938 60.566406 C 50.597656 60.59375 50.375 60.660156 50.160156 60.769531 C 49.664062 60.957031 49 60.929688 48.640625 60.589844 C 48.410156 60.375 48.273438 60.03125 47.921875 60.003906 C 47.769531 60 47.628906 60.035156 47.5 60.113281 C 47.15625 60.296875 46.898438 60.566406 46.578125 60.777344 C 46.234375 61.027344 45.855469 61.109375 45.4375 61.011719 C 45.140625 60.917969 44.824219 60.671875 44.566406 60.824219 C 44.507812 60.867188 44.453125 60.914062 44.402344 60.964844 C 44.355469 61.003906 44.300781 61.035156 44.242188 61.054688 L 44.242188 61.101562 C 44.082031 61.160156 43.921875 61.160156 43.761719 61.101562 L 43.742188 61.164062 C 43.652344 61.320312 43.59375 61.488281 43.570312 61.671875 C 43.546875 61.851562 43.558594 62.027344 43.605469 62.203125 C 43.652344 62.378906 43.730469 62.542969 43.839844 62.6875 C 43.949219 62.832031 44.085938 62.949219 44.242188 63.039062 C 44.453125 63.167969 44.679688 63.230469 44.925781 63.234375 L 61.324219 63.234375 C 61.703125 63.234375 62.023438 63.097656 62.285156 62.824219 C 62.558594 62.558594 62.691406 62.234375 62.691406 61.851562 C 62.691406 61.324219 62.460938 60.925781 62.007812 60.660156 Z M 62.007812 60.660156 " fill-opacity="1" fill-rule="nonzero"/><path fill="#9c613b" d="M 44.882812 67.335938 C 44.617188 67.328125 44.355469 67.269531 44.109375 67.160156 C 43.863281 67.054688 43.648438 66.902344 43.460938 66.710938 C 43.273438 66.515625 43.128906 66.292969 43.03125 66.042969 C 42.929688 65.792969 42.882812 65.53125 42.882812 65.265625 C 42.886719 64.996094 42.941406 64.734375 43.046875 64.488281 C 43.148438 64.238281 43.296875 64.019531 43.488281 63.832031 C 43.679688 63.640625 43.898438 63.492188 44.148438 63.390625 C 44.398438 63.289062 44.65625 63.234375 44.925781 63.234375 L 61.324219 63.234375 C 61.59375 63.238281 61.855469 63.289062 62.101562 63.394531 C 62.351562 63.5 62.570312 63.648438 62.761719 63.839844 C 62.949219 64.035156 63.097656 64.253906 63.199219 64.503906 C 63.300781 64.753906 63.355469 65.015625 63.355469 65.285156 C 63.355469 65.554688 63.300781 65.8125 63.199219 66.0625 C 63.097656 66.3125 62.949219 66.535156 62.761719 66.726562 C 62.570312 66.917969 62.351562 67.066406 62.101562 67.171875 C 61.855469 67.277344 61.59375 67.332031 61.324219 67.335938 L 60.640625 66.652344 L 51.074219 66.652344 L 51.074219 67.335938 L 48.34375 67.335938 L 49.023438 66.652344 L 44.925781 66.652344 L 45.199219 67.199219 L 44.925781 67.335938 Z M 44.882812 67.335938 " fill-opacity="1" fill-rule="nonzero"/><path fill="#f6b98c" d="M 46.386719 71.433594 C 45.921875 71.433594 45.472656 71.34375 45.042969 71.167969 C 44.613281 70.988281 44.234375 70.734375 43.902344 70.40625 C 43.574219 70.078125 43.320312 69.695312 43.140625 69.265625 C 42.964844 68.835938 42.875 68.386719 42.875 67.921875 C 42.875 67.757812 42.929688 67.621094 43.046875 67.503906 C 43.160156 67.390625 43.300781 67.332031 43.464844 67.332031 L 44.925781 67.332031 L 45.199219 67.195312 L 46.292969 69.382812 L 48.339844 67.332031 L 51.074219 67.332031 L 54.492188 69.382812 C 54.492188 69.382812 57.222656 68.699219 58.589844 68.699219 C 59.957031 68.699219 60.640625 69.042969 60.640625 69.042969 L 61.324219 67.332031 L 62.785156 67.332031 C 62.949219 67.332031 63.085938 67.390625 63.203125 67.503906 C 63.316406 67.621094 63.375 67.757812 63.375 67.921875 C 63.375 68.386719 63.289062 68.835938 63.109375 69.269531 C 62.933594 69.699219 62.679688 70.078125 62.347656 70.410156 C 62.019531 70.738281 61.640625 70.992188 61.207031 71.171875 C 60.777344 71.347656 60.328125 71.4375 59.863281 71.433594 Z M 46.386719 71.433594 " fill-opacity="1" fill-rule="nonzero"/><path fill="#f6b98c" d="M 57.519531 50.933594 C 57.902344 50.933594 58.285156 50.972656 58.660156 51.046875 C 59.039062 51.121094 59.402344 51.230469 59.757812 51.378906 C 60.113281 51.527344 60.453125 51.707031 60.769531 51.921875 C 61.089844 52.132812 61.386719 52.378906 61.660156 52.648438 C 61.929688 52.921875 62.171875 53.21875 62.386719 53.535156 C 62.601562 53.855469 62.78125 54.195312 62.929688 54.550781 C 63.074219 54.902344 63.1875 55.269531 63.261719 55.648438 C 63.335938 56.023438 63.375 56.40625 63.375 56.789062 C 63.375 56.890625 63.359375 56.988281 63.328125 57.082031 C 63.261719 57.285156 63.144531 57.453125 62.972656 57.578125 C 62.800781 57.703125 62.609375 57.765625 62.398438 57.765625 L 43.851562 57.765625 C 43.582031 57.765625 43.351562 57.671875 43.160156 57.480469 C 42.972656 57.289062 42.875 57.058594 42.875 56.789062 C 42.875 56.40625 42.914062 56.023438 42.988281 55.648438 C 43.0625 55.269531 43.175781 54.902344 43.320312 54.546875 C 43.46875 54.191406 43.648438 53.855469 43.863281 53.535156 C 44.074219 53.214844 44.320312 52.917969 44.589844 52.648438 C 44.863281 52.375 45.160156 52.132812 45.476562 51.917969 C 45.796875 51.707031 46.136719 51.527344 46.492188 51.378906 C 46.847656 51.230469 47.210938 51.121094 47.589844 51.046875 C 47.964844 50.96875 48.347656 50.933594 48.730469 50.933594 Z M 57.519531 50.933594 " fill-opacity="1" fill-rule="nonzero"/><path fill="#fddc45" d="M 49.023438 66.652344 L 48.34375 67.335938 L 46.292969 69.382812 L 45.199219 67.199219 L 44.925781 66.652344 Z M 49.023438 66.652344 " fill-opacity="1" fill-rule="nonzero"/><path fill="#fddc45" d="M 51.074219 66.652344 L 60.640625 66.652344 L 61.324219 67.335938 L 60.640625 69.042969 C 60.640625 69.042969 59.957031 68.699219 58.589844 68.699219 C 57.226562 68.699219 54.492188 69.382812 54.492188 69.382812 L 51.074219 67.335938 Z M 51.074219 66.652344 " fill-opacity="1" fill-rule="nonzero"/><path fill="#3d9e4b" d="M 65.25 60.125 C 65.171875 60.074219 65.070312 60.042969 64.996094 59.988281 C 64.839844 59.851562 64.804688 59.683594 64.894531 59.492188 C 64.976562 59.328125 65.027344 59.160156 65.050781 58.980469 C 65.042969 58.660156 64.703125 58.414062 64.367188 58.242188 C 63.925781 58.023438 63.464844 57.859375 62.984375 57.757812 C 62.816406 57.703125 62.648438 57.707031 62.484375 57.769531 C 62.195312 57.925781 62.324219 58.363281 62.015625 58.488281 C 61.976562 58.507812 61.933594 58.511719 61.890625 58.5 C 61.867188 58.492188 61.847656 58.476562 61.828125 58.457031 C 61.632812 58.28125 61.621094 58.007812 61.40625 57.847656 C 61.164062 57.71875 60.910156 57.683594 60.640625 57.75 C 60.597656 57.753906 60.554688 57.761719 60.515625 57.765625 L 44.390625 57.753906 C 44.121094 57.8125 43.851562 57.890625 43.589844 57.976562 C 43.304688 58.078125 43.210938 58.359375 43.042969 58.570312 C 42.773438 58.878906 42.433594 59.035156 42.023438 59.039062 C 41.816406 59.046875 41.613281 59.011719 41.410156 59.019531 C 41.203125 59.011719 41.027344 59.082031 40.886719 59.234375 C 40.792969 59.421875 40.808594 59.601562 40.9375 59.769531 C 41.058594 59.925781 41.109375 60.105469 41.09375 60.304688 C 41.054688 60.402344 41.003906 60.496094 40.945312 60.582031 C 40.878906 60.722656 40.847656 60.871094 40.851562 61.027344 C 40.84375 61.257812 40.917969 61.457031 41.074219 61.625 C 41.277344 61.820312 41.511719 61.871094 41.777344 61.777344 C 41.960938 61.691406 42.070312 61.550781 42.113281 61.351562 C 42.140625 61.175781 42.1875 61.007812 42.253906 60.84375 C 42.359375 60.640625 42.792969 60.375 43.082031 60.472656 C 43.355469 60.5625 43.429688 60.871094 43.648438 61.023438 C 43.90625 61.179688 44.160156 61.171875 44.402344 60.988281 C 44.453125 60.9375 44.507812 60.890625 44.566406 60.847656 C 44.824219 60.699219 45.144531 60.941406 45.441406 61.035156 C 45.855469 61.128906 46.234375 61.050781 46.578125 60.800781 C 46.898438 60.59375 47.160156 60.324219 47.503906 60.144531 C 47.632812 60.066406 47.773438 60.03125 47.925781 60.035156 C 48.273438 60.0625 48.414062 60.402344 48.644531 60.617188 C 49.003906 60.953125 49.664062 60.980469 50.164062 60.796875 C 50.375 60.6875 50.601562 60.621094 50.839844 60.59375 C 51.164062 60.59375 51.476562 60.636719 51.808594 60.605469 C 52.171875 60.550781 52.542969 60.511719 52.910156 60.496094 C 53.207031 60.507812 53.496094 60.546875 53.785156 60.613281 L 54.804688 60.8125 C 55.507812 60.953125 56.246094 61.089844 56.941406 60.929688 C 57.089844 60.898438 57.066406 60.75 57.199219 60.6875 C 57.332031 60.625 57.496094 60.703125 57.636719 60.761719 C 58.167969 60.980469 58.816406 60.859375 59.394531 60.734375 C 59.589844 60.707031 59.769531 60.640625 59.9375 60.542969 C 60.03125 60.480469 60.097656 60.402344 60.191406 60.339844 C 60.464844 60.167969 60.746094 60.15625 61.03125 60.308594 C 61.128906 60.382812 61.234375 60.441406 61.347656 60.488281 C 61.621094 60.558594 61.898438 60.328125 62.1875 60.363281 C 62.304688 60.382812 62.414062 60.433594 62.507812 60.507812 C 62.71875 60.65625 62.902344 60.832031 63.058594 61.035156 C 63.167969 61.234375 63.332031 61.367188 63.546875 61.433594 C 63.671875 61.449219 63.796875 61.4375 63.917969 61.402344 C 64.269531 61.324219 64.609375 61.207031 64.929688 61.042969 C 65.125 60.953125 65.277344 60.816406 65.382812 60.632812 C 65.429688 60.542969 65.4375 60.449219 65.414062 60.351562 C 65.386719 60.257812 65.332031 60.179688 65.25 60.125 Z M 65.25 60.125 " fill-opacity="1" fill-rule="nonzero"/><path fill="#3d9e4b" d="M 61.828125 58.457031 C 61.847656 58.476562 61.867188 58.488281 61.890625 58.5 C 61.933594 58.511719 61.976562 58.507812 62.015625 58.488281 C 62.324219 58.363281 62.195312 57.925781 62.484375 57.769531 C 62.488281 57.769531 62.492188 57.769531 62.496094 57.765625 L 61.242188 57.765625 C 61.304688 57.785156 61.359375 57.8125 61.40625 57.847656 C 61.621094 58.003906 61.632812 58.28125 61.828125 58.457031 Z M 61.828125 58.457031 " fill-opacity="1" fill-rule="nonzero"/><path fill="#f2624c" d="M 62.007812 60.660156 C 61.882812 60.585938 61.746094 60.53125 61.605469 60.5 L 61.597656 60.5 C 61.511719 60.527344 61.429688 60.53125 61.34375 60.507812 C 61.335938 60.503906 61.332031 60.5 61.324219 60.496094 L 61.324219 60.449219 C 61.21875 60.402344 61.121094 60.347656 61.03125 60.28125 C 60.746094 60.125 60.464844 60.136719 60.1875 60.308594 C 60.097656 60.371094 60.027344 60.453125 59.9375 60.515625 C 59.769531 60.613281 59.585938 60.679688 59.394531 60.707031 C 58.8125 60.835938 58.167969 60.960938 57.632812 60.734375 C 57.496094 60.679688 57.332031 60.597656 57.199219 60.660156 C 57.0625 60.726562 57.089844 60.875 56.941406 60.90625 C 56.246094 61.070312 55.507812 60.929688 54.804688 60.789062 L 53.785156 60.585938 C 53.496094 60.519531 53.203125 60.480469 52.910156 60.46875 C 52.539062 60.484375 52.171875 60.523438 51.804688 60.582031 C 51.476562 60.613281 51.164062 60.570312 50.835938 60.566406 C 50.597656 60.59375 50.375 60.660156 50.160156 60.769531 C 49.664062 60.957031 49 60.929688 48.640625 60.589844 C 48.410156 60.375 48.273438 60.03125 47.921875 60.003906 C 47.769531 60 47.628906 60.035156 47.5 60.113281 C 47.15625 60.296875 46.898438 60.566406 46.578125 60.777344 C 46.234375 61.027344 45.855469 61.109375 45.4375 61.011719 C 45.140625 60.917969 44.824219 60.671875 44.566406 60.824219 C 44.507812 60.867188 44.453125 60.914062 44.402344 60.964844 C 44.355469 61.003906 44.300781 61.035156 44.242188 61.054688 L 44.242188 61.101562 C 44.082031 61.160156 43.921875 61.160156 43.761719 61.101562 L 43.742188 61.164062 C 43.652344 61.320312 43.59375 61.488281 43.570312 61.671875 C 43.546875 61.851562 43.558594 62.027344 43.605469 62.203125 C 43.652344 62.378906 43.730469 62.542969 43.839844 62.6875 C 43.949219 62.832031 44.085938 62.949219 44.242188 63.039062 C 44.453125 63.167969 44.679688 63.230469 44.925781 63.234375 L 61.324219 63.234375 C 61.703125 63.234375 62.023438 63.097656 62.285156 62.824219 C 62.558594 62.558594 62.691406 62.234375 62.691406 61.851562 C 62.691406 61.324219 62.460938 60.925781 62.007812 60.660156 Z M 62.007812 60.660156 " fill-opacity="1" fill-rule="nonzero"/><path fill="#d24f4f" d="M 44.398438 62.371094 C 44.460938 62.332031 44.503906 62.269531 44.5625 62.234375 C 44.824219 62.085938 45.144531 62.324219 45.4375 62.421875 C 45.851562 62.515625 46.234375 62.4375 46.578125 62.1875 C 46.902344 61.984375 47.160156 61.710938 47.5 61.53125 C 47.632812 61.453125 47.773438 61.417969 47.925781 61.421875 C 48.273438 61.449219 48.410156 61.792969 48.644531 62.003906 C 49.003906 62.339844 49.660156 62.367188 50.160156 62.183594 C 50.375 62.074219 50.597656 62.011719 50.835938 61.984375 C 51.160156 62.003906 51.484375 62.003906 51.804688 61.992188 C 52.171875 61.933594 52.542969 61.898438 52.914062 61.882812 C 53.207031 61.894531 53.496094 61.933594 53.78125 61.996094 L 54.804688 62.203125 C 55.507812 62.339844 56.246094 62.476562 56.9375 62.320312 C 57.089844 62.285156 57.066406 62.132812 57.199219 62.074219 C 57.335938 62.011719 57.5 62.09375 57.636719 62.148438 C 58.167969 62.367188 58.816406 62.25 59.390625 62.121094 C 59.585938 62.089844 59.765625 62.027344 59.9375 61.929688 C 60.027344 61.867188 60.09375 61.785156 60.191406 61.722656 C 60.464844 61.550781 60.746094 61.542969 61.03125 61.695312 C 61.128906 61.769531 61.230469 61.828125 61.34375 61.875 C 61.429688 61.894531 61.515625 61.894531 61.597656 61.867188 L 61.605469 61.867188 C 62 61.949219 62.300781 62.167969 62.503906 62.515625 C 62.628906 62.308594 62.691406 62.082031 62.691406 61.839844 C 62.691406 61.515625 62.589844 61.230469 62.386719 60.976562 C 62.179688 60.726562 61.921875 60.566406 61.605469 60.5 L 61.597656 60.5 C 61.515625 60.527344 61.429688 60.527344 61.34375 60.507812 C 61.230469 60.460938 61.128906 60.402344 61.03125 60.328125 C 60.746094 60.175781 60.464844 60.183594 60.191406 60.355469 C 60.09375 60.417969 60.027344 60.5 59.9375 60.5625 C 59.765625 60.660156 59.585938 60.726562 59.390625 60.753906 C 58.816406 60.882812 58.167969 61 57.636719 60.78125 C 57.5 60.726562 57.335938 60.644531 57.199219 60.707031 C 57.066406 60.765625 57.089844 60.917969 56.9375 60.953125 C 56.246094 61.109375 55.507812 60.972656 54.804688 60.835938 L 53.78125 60.628906 C 53.496094 60.566406 53.207031 60.527344 52.914062 60.515625 C 52.542969 60.53125 52.171875 60.566406 51.804688 60.625 C 51.484375 60.636719 51.160156 60.636719 50.835938 60.617188 C 50.597656 60.644531 50.375 60.707031 50.160156 60.816406 C 49.660156 61 49.003906 60.972656 48.644531 60.636719 C 48.410156 60.425781 48.273438 60.082031 47.925781 60.054688 C 47.773438 60.050781 47.632812 60.085938 47.5 60.164062 C 47.160156 60.34375 46.902344 60.617188 46.578125 60.820312 C 46.234375 61.070312 45.851562 61.148438 45.4375 61.054688 C 45.144531 60.957031 44.824219 60.71875 44.5625 60.871094 C 44.503906 60.902344 44.460938 60.964844 44.398438 61.003906 C 44.203125 61.15625 43.992188 61.183594 43.765625 61.09375 L 43.742188 61.15625 C 43.621094 61.367188 43.558594 61.59375 43.558594 61.839844 C 43.558594 62.082031 43.621094 62.308594 43.746094 62.515625 L 43.761719 62.460938 C 43.992188 62.550781 44.203125 62.523438 44.398438 62.371094 Z M 44.398438 62.371094 " fill-opacity="1" fill-rule="nonzero"/><path fill="#f4cfae" d="M 48.730469 52.984375 L 57.519531 52.984375 C 58.167969 52.984375 58.796875 53.089844 59.410156 53.300781 C 60.023438 53.507812 60.585938 53.8125 61.097656 54.210938 C 61.609375 54.605469 62.042969 55.074219 62.402344 55.617188 C 62.757812 56.15625 63.015625 56.742188 63.179688 57.367188 C 63.246094 57.28125 63.292969 57.1875 63.328125 57.082031 C 63.359375 56.988281 63.375 56.890625 63.375 56.789062 C 63.375 56.40625 63.335938 56.023438 63.261719 55.648438 C 63.1875 55.269531 63.074219 54.902344 62.929688 54.550781 C 62.78125 54.195312 62.601562 53.855469 62.386719 53.535156 C 62.171875 53.21875 61.929688 52.921875 61.660156 52.648438 C 61.386719 52.378906 61.089844 52.132812 60.769531 51.921875 C 60.453125 51.707031 60.113281 51.527344 59.757812 51.378906 C 59.402344 51.230469 59.039062 51.121094 58.660156 51.046875 C 58.285156 50.972656 57.902344 50.933594 57.519531 50.933594 L 48.730469 50.933594 C 48.347656 50.933594 47.964844 50.96875 47.589844 51.046875 C 47.210938 51.121094 46.847656 51.230469 46.492188 51.378906 C 46.136719 51.527344 45.796875 51.707031 45.476562 51.921875 C 45.160156 52.132812 44.863281 52.375 44.589844 52.648438 C 44.320312 52.921875 44.074219 53.214844 43.863281 53.535156 C 43.648438 53.855469 43.46875 54.191406 43.320312 54.546875 C 43.175781 54.902344 43.0625 55.269531 42.988281 55.648438 C 42.914062 56.023438 42.875 56.40625 42.875 56.789062 C 42.875 57.003906 42.941406 57.195312 43.070312 57.367188 C 43.230469 56.742188 43.488281 56.15625 43.847656 55.613281 C 44.203125 55.070312 44.636719 54.601562 45.148438 54.207031 C 45.660156 53.808594 46.226562 53.503906 46.839844 53.296875 C 47.453125 53.085938 48.082031 52.984375 48.730469 52.984375 Z M 48.730469 52.984375 " fill-opacity="1" fill-rule="nonzero"/><path fill="#e18d5f" d="M 62.398438 55.714844 L 43.851562 55.714844 C 43.523438 55.714844 43.261719 55.582031 43.070312 55.320312 C 42.941406 55.800781 42.878906 56.292969 42.875 56.789062 C 42.875 57.058594 42.972656 57.289062 43.160156 57.480469 C 43.351562 57.671875 43.582031 57.765625 43.851562 57.765625 L 62.398438 57.765625 C 62.609375 57.765625 62.804688 57.703125 62.972656 57.578125 C 63.144531 57.453125 63.261719 57.285156 63.328125 57.082031 C 63.359375 56.988281 63.375 56.890625 63.375 56.789062 C 63.371094 56.289062 63.308594 55.800781 63.179688 55.320312 C 62.988281 55.582031 62.726562 55.714844 62.398438 55.714844 Z M 62.398438 55.714844 " fill-opacity="1" fill-rule="nonzero"/><path fill="#b2784f" d="M 63.328125 56.398438 C 63.261719 56.605469 63.144531 56.769531 62.972656 56.894531 C 62.800781 57.019531 62.609375 57.082031 62.398438 57.082031 L 43.851562 57.082031 C 43.628906 57.082031 43.425781 57.011719 43.25 56.875 C 43.074219 56.734375 42.960938 56.558594 42.90625 56.339844 C 42.894531 56.488281 42.875 56.636719 42.875 56.789062 C 42.875 57.058594 42.972656 57.289062 43.160156 57.480469 C 43.351562 57.671875 43.582031 57.769531 43.851562 57.765625 L 62.398438 57.765625 C 62.609375 57.769531 62.804688 57.703125 62.972656 57.578125 C 63.144531 57.453125 63.261719 57.289062 63.328125 57.085938 C 63.359375 56.988281 63.375 56.890625 63.375 56.789062 C 63.375 56.625 63.355469 56.46875 63.339844 56.308594 C 63.339844 56.339844 63.332031 56.371094 63.328125 56.398438 Z M 63.328125 56.398438 " fill-opacity="1" fill-rule="nonzero"/><path fill="#8b4f2c" d="M 61.324219 65.96875 L 44.925781 65.96875 C 44.492188 65.964844 44.097656 65.839844 43.746094 65.589844 C 43.394531 65.339844 43.144531 65.007812 43 64.601562 C 42.917969 64.820312 42.878906 65.050781 42.875 65.285156 C 42.875 65.554688 42.929688 65.816406 43.03125 66.070312 C 43.136719 66.320312 43.285156 66.542969 43.476562 66.734375 C 43.667969 66.925781 43.890625 67.074219 44.140625 67.179688 C 44.390625 67.28125 44.652344 67.335938 44.925781 67.335938 L 61.324219 67.335938 C 61.488281 67.335938 61.652344 67.316406 61.8125 67.28125 C 61.972656 67.242188 62.125 67.1875 62.269531 67.109375 C 62.417969 67.035156 62.550781 66.945312 62.675781 66.835938 C 62.800781 66.726562 62.910156 66.605469 63.003906 66.472656 C 63.097656 66.339844 63.175781 66.195312 63.234375 66.042969 C 63.296875 65.886719 63.335938 65.730469 63.355469 65.566406 C 63.378906 65.402344 63.378906 65.242188 63.363281 65.078125 C 63.34375 64.914062 63.304688 64.753906 63.25 64.601562 C 63.105469 65.007812 62.855469 65.339844 62.503906 65.589844 C 62.152344 65.839844 61.757812 65.964844 61.324219 65.96875 Z M 61.324219 65.96875 " fill-opacity="1" fill-rule="nonzero"/><path fill="#e18d5f" d="M 62.347656 69.042969 C 61.660156 69.722656 60.832031 70.066406 59.863281 70.066406 L 46.386719 70.066406 C 46.007812 70.066406 45.636719 70.007812 45.277344 69.886719 C 44.917969 69.765625 44.585938 69.589844 44.285156 69.359375 C 43.980469 69.132812 43.722656 68.859375 43.507812 68.546875 C 43.292969 68.234375 43.132812 67.894531 43.03125 67.53125 C 42.925781 67.640625 42.875 67.769531 42.875 67.921875 C 42.875 68.386719 42.964844 68.835938 43.140625 69.265625 C 43.320312 69.695312 43.574219 70.078125 43.902344 70.40625 C 44.234375 70.734375 44.613281 70.988281 45.042969 71.167969 C 45.472656 71.347656 45.921875 71.433594 46.386719 71.433594 L 59.863281 71.433594 C 60.328125 71.4375 60.777344 71.347656 61.207031 71.171875 C 61.640625 70.992188 62.019531 70.738281 62.351562 70.410156 C 62.679688 70.078125 62.933594 69.699219 63.109375 69.269531 C 63.289062 68.835938 63.375 68.386719 63.375 67.921875 C 63.375 67.769531 63.324219 67.640625 63.21875 67.53125 C 63.054688 68.105469 62.765625 68.609375 62.347656 69.042969 Z M 62.347656 69.042969 " fill-opacity="1" fill-rule="nonzero"/><path fill="#e18d5f" d="M 51.074219 67.335938 L 51.074219 68.019531 L 54.492188 70.066406 C 54.492188 70.066406 57.226562 69.382812 58.589844 69.382812 C 59.957031 69.382812 60.640625 69.726562 60.640625 69.726562 L 61.324219 68.019531 L 60.640625 67.335938 Z M 51.074219 67.335938 " fill-opacity="1" fill-rule="nonzero"/><path fill="#e18d5f" d="M 45.199219 67.878906 L 46.292969 70.066406 L 48.34375 68.019531 L 49.023438 67.335938 L 44.925781 67.335938 Z M 45.199219 67.878906 " fill-opacity="1" fill-rule="nonzero"/><path fill="#fddc45" d="M 49.023438 66.652344 L 48.34375 67.335938 L 46.292969 69.382812 L 45.199219 67.199219 L 44.925781 66.652344 Z M 49.023438 66.652344 " fill-opacity="1" fill-rule="nonzero"/><path fill="#fddc45" d="M 51.074219 66.652344 L 60.640625 66.652344 L 61.324219 67.335938 L 60.640625 69.042969 C 60.640625 69.042969 59.957031 68.699219 58.589844 68.699219 C 57.226562 68.699219 54.492188 69.382812 54.492188 69.382812 L 51.074219 67.335938 Z M 51.074219 66.652344 " fill-opacity="1" fill-rule="nonzero"/><path fill="#47c04f" d="M 65.25 60.125 C 65.171875 60.074219 65.070312 60.042969 64.996094 59.988281 C 64.902344 59.917969 64.859375 59.824219 64.863281 59.703125 C 64.558594 59.851562 64.242188 59.960938 63.914062 60.035156 C 63.792969 60.070312 63.671875 60.082031 63.542969 60.066406 C 63.328125 60 63.167969 59.867188 63.058594 59.667969 C 62.902344 59.464844 62.71875 59.289062 62.507812 59.140625 C 62.410156 59.066406 62.304688 59.015625 62.183594 58.996094 C 61.898438 58.960938 61.621094 59.191406 61.34375 59.121094 C 61.230469 59.074219 61.128906 59.015625 61.03125 58.941406 C 60.746094 58.789062 60.464844 58.800781 60.1875 58.972656 C 60.097656 59.03125 60.027344 59.113281 59.9375 59.175781 C 59.769531 59.273438 59.585938 59.335938 59.394531 59.367188 C 58.8125 59.492188 58.167969 59.613281 57.632812 59.394531 C 57.496094 59.335938 57.332031 59.257812 57.199219 59.320312 C 57.0625 59.382812 57.089844 59.53125 56.941406 59.5625 C 56.246094 59.722656 55.507812 59.585938 54.804688 59.445312 L 53.785156 59.246094 C 53.496094 59.179688 53.203125 59.140625 52.910156 59.128906 C 52.539062 59.144531 52.171875 59.183594 51.804688 59.238281 C 51.476562 59.269531 51.164062 59.226562 50.835938 59.226562 C 50.601562 59.253906 50.375 59.320312 50.160156 59.429688 C 49.664062 59.613281 49 59.585938 48.640625 59.25 C 48.410156 59.035156 48.273438 58.695312 47.921875 58.667969 C 47.773438 58.664062 47.632812 58.699219 47.5 58.777344 C 47.15625 58.957031 46.898438 59.226562 46.578125 59.433594 C 46.234375 59.683594 45.851562 59.761719 45.4375 59.667969 C 45.140625 59.574219 44.824219 59.332031 44.566406 59.480469 C 44.507812 59.523438 44.453125 59.570312 44.402344 59.621094 C 44.15625 59.800781 43.90625 59.8125 43.648438 59.652344 C 43.429688 59.503906 43.355469 59.195312 43.078125 59.101562 C 42.792969 59.007812 42.359375 59.273438 42.253906 59.476562 C 42.1875 59.640625 42.136719 59.808594 42.109375 59.984375 C 42.070312 60.179688 41.957031 60.324219 41.777344 60.410156 C 41.523438 60.5 41.292969 60.453125 41.09375 60.273438 C 41.089844 60.285156 41.09375 60.292969 41.089844 60.300781 C 41.050781 60.398438 41.003906 60.492188 40.945312 60.582031 C 40.875 60.722656 40.84375 60.871094 40.851562 61.027344 C 40.839844 61.257812 40.914062 61.457031 41.070312 61.625 C 41.277344 61.820312 41.511719 61.871094 41.777344 61.777344 C 41.960938 61.691406 42.070312 61.546875 42.109375 61.351562 C 42.136719 61.175781 42.1875 61.007812 42.253906 60.84375 C 42.359375 60.640625 42.792969 60.375 43.078125 60.46875 C 43.355469 60.5625 43.429688 60.871094 43.648438 61.019531 C 43.90625 61.179688 44.15625 61.167969 44.402344 60.988281 C 44.453125 60.9375 44.507812 60.890625 44.566406 60.847656 C 44.824219 60.699219 45.140625 60.941406 45.4375 61.035156 C 45.851562 61.128906 46.234375 61.050781 46.578125 60.800781 C 46.898438 60.59375 47.15625 60.324219 47.5 60.144531 C 47.632812 60.066406 47.773438 60.03125 47.921875 60.035156 C 48.273438 60.0625 48.410156 60.402344 48.640625 60.617188 C 49 60.953125 49.664062 60.980469 50.160156 60.796875 C 50.375 60.6875 50.601562 60.621094 50.835938 60.59375 C 51.164062 60.59375 51.476562 60.636719 51.804688 60.605469 C 52.171875 60.550781 52.539062 60.511719 52.910156 60.496094 C 53.203125 60.507812 53.496094 60.546875 53.785156 60.613281 L 54.804688 60.8125 C 55.507812 60.953125 56.246094 61.089844 56.941406 60.929688 C 57.089844 60.898438 57.066406 60.75 57.199219 60.6875 C 57.332031 60.625 57.496094 60.703125 57.632812 60.761719 C 58.167969 60.980469 58.8125 60.859375 59.394531 60.734375 C 59.585938 60.703125 59.769531 60.640625 59.9375 60.542969 C 60.027344 60.480469 60.097656 60.402344 60.1875 60.335938 C 60.464844 60.167969 60.746094 60.15625 61.03125 60.308594 C 61.128906 60.382812 61.230469 60.441406 61.34375 60.488281 C 61.621094 60.558594 61.898438 60.328125 62.183594 60.363281 C 62.304688 60.382812 62.410156 60.433594 62.507812 60.507812 C 62.71875 60.65625 62.902344 60.832031 63.058594 61.035156 C 63.167969 61.234375 63.328125 61.367188 63.542969 61.433594 C 63.671875 61.449219 63.792969 61.4375 63.914062 61.398438 C 64.269531 61.324219 64.605469 61.207031 64.929688 61.042969 C 65.125 60.953125 65.273438 60.816406 65.382812 60.632812 C 65.425781 60.542969 65.4375 60.449219 65.410156 60.351562 C 65.386719 60.257812 65.332031 60.179688 65.25 60.125 Z M 65.25 60.125 " fill-opacity="1" fill-rule="nonzero"/><path fill="#47c04f" d="M 62.496094 57.765625 C 62.492188 57.769531 62.488281 57.765625 62.484375 57.769531 C 62.488281 57.765625 62.492188 57.769531 62.496094 57.765625 Z M 62.496094 57.765625 " fill-opacity="1" fill-rule="nonzero"/><path fill="#47c04f" d="M 62.496094 56.398438 C 62.492188 56.402344 62.488281 56.398438 62.484375 56.402344 C 62.488281 56.402344 62.492188 56.402344 62.496094 56.398438 Z M 62.496094 56.398438 " fill-opacity="1" fill-rule="nonzero"/><path fill="#eb8e49" d="M 47.078125 53.730469 C 47.132812 53.785156 47.152344 53.859375 47.140625 53.953125 C 47.125 54.046875 47.078125 54.132812 47 54.207031 C 46.925781 54.285156 46.839844 54.332031 46.746094 54.347656 C 46.652344 54.359375 46.578125 54.339844 46.523438 54.285156 C 46.46875 54.230469 46.449219 54.15625 46.464844 54.0625 C 46.480469 53.972656 46.527344 53.886719 46.601562 53.808594 C 46.679688 53.734375 46.765625 53.6875 46.855469 53.671875 C 46.949219 53.65625 47.023438 53.675781 47.078125 53.730469 Z M 47.078125 53.730469 " fill-opacity="1" fill-rule="nonzero"/><path fill="#eb8e49" d="M 53.230469 53.730469 C 53.285156 53.785156 53.304688 53.859375 53.289062 53.953125 C 53.273438 54.046875 53.226562 54.132812 53.152344 54.207031 C 53.074219 54.285156 52.988281 54.332031 52.894531 54.347656 C 52.804688 54.359375 52.730469 54.339844 52.675781 54.285156 C 52.617188 54.230469 52.597656 54.15625 52.613281 54.0625 C 52.628906 53.972656 52.675781 53.886719 52.753906 53.808594 C 52.828125 53.734375 52.914062 53.6875 53.007812 53.671875 C 53.101562 53.65625 53.175781 53.675781 53.230469 53.730469 Z M 53.230469 53.730469 " fill-opacity="1" fill-rule="nonzero"/><path fill="#88d645" d="M 49.585938 59.105469 C 49.585938 59.214844 49.558594 59.308594 49.5 59.382812 C 49.445312 59.460938 49.378906 59.5 49.300781 59.5 C 49.226562 59.5 49.160156 59.460938 49.101562 59.382812 C 49.046875 59.308594 49.019531 59.214844 49.019531 59.105469 C 49.019531 58.996094 49.046875 58.90625 49.101562 58.828125 C 49.160156 58.753906 49.226562 58.714844 49.300781 58.714844 C 49.378906 58.714844 49.445312 58.753906 49.5 58.828125 C 49.558594 58.90625 49.585938 58.996094 49.585938 59.105469 Z M 49.585938 59.105469 " fill-opacity="1" fill-rule="nonzero"/><path fill="#eb8e49" d="M 49.132812 54.007812 C 49.132812 54.117188 49.105469 54.210938 49.050781 54.285156 C 48.996094 54.363281 48.929688 54.402344 48.851562 54.402344 C 48.773438 54.402344 48.707031 54.363281 48.652344 54.285156 C 48.597656 54.210938 48.570312 54.117188 48.570312 54.007812 C 48.570312 53.898438 48.597656 53.808594 48.652344 53.730469 C 48.707031 53.65625 48.773438 53.617188 48.851562 53.617188 C 48.929688 53.617188 48.996094 53.65625 49.050781 53.730469 C 49.105469 53.808594 49.132812 53.898438 49.132812 54.007812 Z M 49.132812 54.007812 " fill-opacity="1" fill-rule="nonzero"/><path fill="#b96c48" d="M 46.398438 64.941406 C 46.398438 65.050781 46.371094 65.144531 46.316406 65.21875 C 46.261719 65.296875 46.195312 65.335938 46.117188 65.335938 C 46.039062 65.335938 45.972656 65.296875 45.917969 65.21875 C 45.863281 65.144531 45.835938 65.050781 45.835938 64.941406 C 45.835938 64.835938 45.863281 64.742188 45.917969 64.664062 C 45.972656 64.589844 46.039062 64.550781 46.117188 64.550781 C 46.195312 64.550781 46.261719 64.589844 46.316406 64.664062 C 46.371094 64.742188 46.398438 64.835938 46.398438 64.941406 Z M 46.398438 64.941406 " fill-opacity="1" fill-rule="nonzero"/><path fill="#fdf0b8" d="M 51.867188 54.007812 C 51.867188 54.117188 51.839844 54.210938 51.785156 54.285156 C 51.730469 54.363281 51.664062 54.402344 51.585938 54.402344 C 51.507812 54.402344 51.441406 54.363281 51.386719 54.285156 C 51.332031 54.210938 51.304688 54.117188 51.304688 54.007812 C 51.304688 53.898438 51.332031 53.808594 51.386719 53.730469 C 51.441406 53.65625 51.507812 53.617188 51.585938 53.617188 C 51.664062 53.617188 51.730469 53.65625 51.785156 53.730469 C 51.839844 53.808594 51.867188 53.898438 51.867188 54.007812 Z M 51.867188 54.007812 " fill-opacity="1" fill-rule="nonzero"/><path fill="#fdf0b8" d="M 49.816406 53.324219 C 49.816406 53.433594 49.789062 53.527344 49.734375 53.601562 C 49.679688 53.679688 49.613281 53.71875 49.535156 53.71875 C 49.457031 53.71875 49.390625 53.679688 49.335938 53.601562 C 49.28125 53.527344 49.253906 53.433594 49.253906 53.324219 C 49.253906 53.214844 49.28125 53.125 49.335938 53.046875 C 49.390625 52.972656 49.457031 52.933594 49.535156 52.933594 C 49.613281 52.933594 49.679688 52.972656 49.734375 53.046875 C 49.789062 53.125 49.816406 53.214844 49.816406 53.324219 Z M 49.816406 53.324219 " fill-opacity="1" fill-rule="nonzero"/><path fill="#eb8e49" d="M 58.617188 54.492188 C 58.695312 54.570312 58.738281 54.65625 58.753906 54.746094 C 58.769531 54.839844 58.75 54.914062 58.695312 54.96875 C 58.640625 55.023438 58.566406 55.042969 58.472656 55.03125 C 58.378906 55.015625 58.292969 54.96875 58.21875 54.890625 C 58.140625 54.816406 58.097656 54.730469 58.082031 54.636719 C 58.066406 54.542969 58.085938 54.46875 58.140625 54.414062 C 58.195312 54.359375 58.269531 54.339844 58.363281 54.355469 C 58.457031 54.371094 58.539062 54.417969 58.617188 54.492188 Z M 58.617188 54.492188 " fill-opacity="1" fill-rule="nonzero"/><path fill="#b96c48" d="M 58.617188 64.058594 C 58.695312 64.136719 58.738281 64.222656 58.753906 64.316406 C 58.769531 64.40625 58.75 64.480469 58.695312 64.535156 C 58.640625 64.59375 58.566406 64.613281 58.472656 64.597656 C 58.378906 64.582031 58.292969 64.535156 58.21875 64.457031 C 58.140625 64.382812 58.097656 64.296875 58.082031 64.203125 C 58.066406 64.109375 58.085938 64.035156 58.140625 63.980469 C 58.195312 63.925781 58.269531 63.90625 58.363281 63.921875 C 58.457031 63.9375 58.539062 63.984375 58.617188 64.058594 Z M 58.617188 64.058594 " fill-opacity="1" fill-rule="nonzero"/><path fill="#eb8e49" d="M 54.515625 53.125 C 54.59375 53.203125 54.640625 53.289062 54.65625 53.378906 C 54.671875 53.472656 54.648438 53.546875 54.59375 53.601562 C 54.539062 53.65625 54.464844 53.679688 54.375 53.664062 C 54.28125 53.648438 54.195312 53.601562 54.117188 53.523438 C 54.042969 53.449219 53.996094 53.363281 53.980469 53.269531 C 53.964844 53.175781 53.984375 53.101562 54.039062 53.046875 C 54.09375 52.992188 54.167969 52.972656 54.261719 52.988281 C 54.355469 53.003906 54.441406 53.050781 54.515625 53.125 Z M 54.515625 53.125 " fill-opacity="1" fill-rule="nonzero"/><path fill="#eb8e49" d="M 55.882812 52.441406 C 55.960938 52.519531 56.007812 52.605469 56.019531 52.699219 C 56.035156 52.789062 56.015625 52.863281 55.960938 52.917969 C 55.90625 52.972656 55.832031 52.996094 55.738281 52.980469 C 55.644531 52.964844 55.5625 52.917969 55.484375 52.839844 C 55.410156 52.765625 55.363281 52.679688 55.347656 52.585938 C 55.332031 52.492188 55.351562 52.417969 55.40625 52.363281 C 55.460938 52.308594 55.535156 52.289062 55.628906 52.304688 C 55.722656 52.320312 55.808594 52.367188 55.882812 52.441406 Z M 55.882812 52.441406 " fill-opacity="1" fill-rule="nonzero"/><path fill="#eb8e49" d="M 48.445312 52.363281 C 48.5 52.417969 48.519531 52.492188 48.503906 52.585938 C 48.488281 52.679688 48.445312 52.765625 48.367188 52.839844 C 48.289062 52.917969 48.207031 52.964844 48.113281 52.976562 C 48.019531 52.992188 47.945312 52.972656 47.890625 52.917969 C 47.835938 52.863281 47.816406 52.789062 47.832031 52.695312 C 47.847656 52.601562 47.890625 52.519531 47.96875 52.441406 C 48.046875 52.367188 48.128906 52.320312 48.222656 52.304688 C 48.316406 52.289062 48.390625 52.308594 48.445312 52.363281 Z M 48.445312 52.363281 " fill-opacity="1" fill-rule="nonzero"/><path fill="#b96c48" d="M 45.710938 63.980469 C 45.769531 64.035156 45.789062 64.109375 45.773438 64.203125 C 45.757812 64.296875 45.710938 64.382812 45.636719 64.457031 C 45.558594 64.535156 45.472656 64.582031 45.378906 64.59375 C 45.289062 64.609375 45.214844 64.589844 45.15625 64.535156 C 45.101562 64.480469 45.082031 64.40625 45.097656 64.3125 C 45.113281 64.222656 45.160156 64.136719 45.234375 64.058594 C 45.3125 63.984375 45.398438 63.9375 45.492188 63.921875 C 45.582031 63.90625 45.65625 63.925781 45.710938 63.980469 Z M 45.710938 63.980469 " fill-opacity="1" fill-rule="nonzero"/><path fill="#b96c48" d="M 51.863281 64.664062 C 51.917969 64.71875 51.9375 64.792969 51.921875 64.886719 C 51.90625 64.980469 51.859375 65.066406 51.785156 65.140625 C 51.707031 65.21875 51.621094 65.265625 51.53125 65.28125 C 51.4375 65.292969 51.363281 65.273438 51.308594 65.21875 C 51.253906 65.164062 51.234375 65.089844 51.246094 64.996094 C 51.261719 64.90625 51.308594 64.820312 51.386719 64.742188 C 51.460938 64.667969 51.546875 64.621094 51.640625 64.605469 C 51.734375 64.589844 51.808594 64.609375 51.863281 64.664062 Z M 51.863281 64.664062 " fill-opacity="1" fill-rule="nonzero"/><path fill="#88d645" d="M 59.300781 59.960938 C 59.375 60.035156 59.421875 60.121094 59.4375 60.214844 C 59.453125 60.308594 59.433594 60.382812 59.378906 60.4375 C 59.324219 60.492188 59.25 60.511719 59.15625 60.496094 C 59.0625 60.480469 58.976562 60.433594 58.902344 60.359375 C 58.824219 60.28125 58.777344 60.195312 58.765625 60.105469 C 58.75 60.011719 58.769531 59.9375 58.824219 59.882812 C 58.878906 59.828125 58.953125 59.808594 59.046875 59.820312 C 59.140625 59.835938 59.222656 59.882812 59.300781 59.960938 Z M 59.300781 59.960938 " fill-opacity="1" fill-rule="nonzero"/><path fill="#88d645" d="M 42.296875 59.878906 C 42.351562 59.9375 42.371094 60.011719 42.355469 60.101562 C 42.339844 60.195312 42.292969 60.28125 42.21875 60.359375 C 42.140625 60.433594 42.058594 60.480469 41.964844 60.496094 C 41.871094 60.511719 41.796875 60.492188 41.742188 60.4375 C 41.6875 60.378906 41.667969 60.308594 41.683594 60.214844 C 41.695312 60.121094 41.742188 60.035156 41.820312 59.960938 C 41.894531 59.882812 41.980469 59.835938 42.074219 59.820312 C 42.167969 59.804688 42.242188 59.824219 42.296875 59.878906 Z M 42.296875 59.878906 " fill-opacity="1" fill-rule="nonzero"/><path fill="#eb8e49" d="M 51.179688 52.363281 C 51.234375 52.417969 51.253906 52.492188 51.238281 52.585938 C 51.222656 52.679688 51.175781 52.765625 51.101562 52.839844 C 51.023438 52.917969 50.941406 52.964844 50.847656 52.976562 C 50.753906 52.992188 50.679688 52.972656 50.625 52.917969 C 50.570312 52.863281 50.550781 52.789062 50.566406 52.695312 C 50.578125 52.605469 50.625 52.519531 50.703125 52.441406 C 50.777344 52.367188 50.863281 52.320312 50.957031 52.304688 C 51.050781 52.289062 51.125 52.308594 51.179688 52.363281 Z M 51.179688 52.363281 " fill-opacity="1" fill-rule="nonzero"/><path fill="#eb8e49" d="M 56.566406 53.808594 C 56.644531 53.886719 56.691406 53.972656 56.703125 54.0625 C 56.71875 54.15625 56.699219 54.230469 56.644531 54.285156 C 56.589844 54.339844 56.515625 54.359375 56.421875 54.347656 C 56.328125 54.332031 56.246094 54.285156 56.167969 54.207031 C 56.09375 54.132812 56.046875 54.046875 56.03125 53.953125 C 56.015625 53.859375 56.035156 53.785156 56.089844 53.730469 C 56.144531 53.675781 56.21875 53.65625 56.3125 53.671875 C 56.40625 53.6875 56.492188 53.734375 56.566406 53.808594 Z M 56.566406 53.808594 " fill-opacity="1" fill-rule="nonzero"/><path fill="#eb8e49" d="M 50.496094 68.082031 C 50.550781 68.136719 50.570312 68.210938 50.554688 68.304688 C 50.539062 68.398438 50.492188 68.484375 50.417969 68.558594 C 50.339844 68.636719 50.257812 68.683594 50.164062 68.695312 C 50.070312 68.710938 49.996094 68.691406 49.941406 68.636719 C 49.886719 68.582031 49.867188 68.507812 49.882812 68.414062 C 49.894531 68.320312 49.941406 68.238281 50.019531 68.160156 C 50.09375 68.085938 50.179688 68.039062 50.273438 68.023438 C 50.367188 68.007812 50.441406 68.027344 50.496094 68.082031 Z M 50.496094 68.082031 " fill-opacity="1" fill-rule="nonzero"/><path fill="#eb8e49" d="M 51.179688 68.765625 C 51.234375 68.820312 51.253906 68.894531 51.238281 68.988281 C 51.222656 69.078125 51.175781 69.164062 51.101562 69.242188 C 51.023438 69.316406 50.9375 69.363281 50.847656 69.378906 C 50.753906 69.394531 50.679688 69.375 50.625 69.320312 C 50.570312 69.265625 50.550781 69.191406 50.5625 69.097656 C 50.578125 69.003906 50.625 68.917969 50.703125 68.84375 C 50.777344 68.765625 50.863281 68.71875 50.957031 68.707031 C 51.050781 68.691406 51.125 68.710938 51.179688 68.765625 Z M 51.179688 68.765625 " fill-opacity="1" fill-rule="nonzero"/><path fill="#eb8e49" d="M 45.03125 68.082031 C 45.085938 68.136719 45.105469 68.210938 45.089844 68.304688 C 45.074219 68.398438 45.027344 68.480469 44.953125 68.558594 C 44.875 68.636719 44.789062 68.679688 44.695312 68.695312 C 44.605469 68.710938 44.53125 68.691406 44.476562 68.636719 C 44.417969 68.582031 44.398438 68.507812 44.414062 68.414062 C 44.429688 68.320312 44.476562 68.234375 44.550781 68.160156 C 44.628906 68.082031 44.714844 68.035156 44.808594 68.023438 C 44.898438 68.007812 44.972656 68.027344 45.03125 68.082031 Z M 45.03125 68.082031 " fill-opacity="1" fill-rule="nonzero"/><path fill="#eb8e49" d="M 62.035156 68.160156 C 62.109375 68.238281 62.15625 68.320312 62.171875 68.414062 C 62.1875 68.507812 62.167969 68.582031 62.113281 68.636719 C 62.054688 68.691406 61.980469 68.710938 61.890625 68.695312 C 61.796875 68.683594 61.710938 68.636719 61.632812 68.558594 C 61.558594 68.484375 61.511719 68.398438 61.496094 68.304688 C 61.480469 68.210938 61.5 68.136719 61.558594 68.082031 C 61.613281 68.027344 61.6875 68.007812 61.777344 68.023438 C 61.871094 68.039062 61.957031 68.085938 62.035156 68.160156 Z M 62.035156 68.160156 " fill-opacity="1" fill-rule="nonzero"/><path fill="#b96c48" d="M 49.132812 64.941406 C 49.132812 65.050781 49.105469 65.144531 49.050781 65.21875 C 48.996094 65.296875 48.929688 65.335938 48.851562 65.335938 C 48.773438 65.335938 48.707031 65.296875 48.652344 65.21875 C 48.597656 65.144531 48.570312 65.050781 48.570312 64.941406 C 48.570312 64.835938 48.597656 64.742188 48.652344 64.664062 C 48.707031 64.589844 48.773438 64.550781 48.851562 64.550781 C 48.929688 64.550781 48.996094 64.589844 49.050781 64.664062 C 49.105469 64.742188 49.132812 64.835938 49.132812 64.941406 Z M 49.132812 64.941406 " fill-opacity="1" fill-rule="nonzero"/><path fill="#b96c48" d="M 54.515625 64.058594 C 54.59375 64.136719 54.640625 64.222656 54.65625 64.316406 C 54.671875 64.40625 54.648438 64.480469 54.59375 64.535156 C 54.539062 64.59375 54.464844 64.613281 54.375 64.597656 C 54.28125 64.582031 54.195312 64.535156 54.117188 64.457031 C 54.042969 64.382812 53.996094 64.296875 53.980469 64.203125 C 53.964844 64.109375 53.984375 64.035156 54.039062 63.980469 C 54.09375 63.925781 54.167969 63.90625 54.261719 63.921875 C 54.355469 63.9375 54.441406 63.984375 54.515625 64.058594 Z M 54.515625 64.058594 " fill-opacity="1" fill-rule="nonzero"/><path fill="#b96c48" d="M 61.351562 64.742188 C 61.425781 64.820312 61.472656 64.90625 61.488281 65 C 61.503906 65.089844 61.484375 65.164062 61.429688 65.21875 C 61.371094 65.277344 61.300781 65.296875 61.207031 65.28125 C 61.113281 65.265625 61.027344 65.21875 60.953125 65.140625 C 60.875 65.066406 60.828125 64.980469 60.8125 64.886719 C 60.796875 64.792969 60.816406 64.71875 60.875 64.664062 C 60.929688 64.609375 61.003906 64.589844 61.09375 64.605469 C 61.1875 64.621094 61.273438 64.667969 61.351562 64.742188 Z M 61.351562 64.742188 " fill-opacity="1" fill-rule="nonzero"/><path fill="#b96c48" d="M 56.566406 64.742188 C 56.644531 64.820312 56.691406 64.90625 56.703125 65 C 56.71875 65.089844 56.699219 65.164062 56.644531 65.21875 C 56.589844 65.277344 56.515625 65.296875 56.421875 65.28125 C 56.328125 65.265625 56.246094 65.21875 56.167969 65.140625 C 56.09375 65.066406 56.046875 64.980469 56.03125 64.886719 C 56.015625 64.792969 56.035156 64.71875 56.089844 64.664062 C 56.144531 64.609375 56.21875 64.589844 56.3125 64.605469 C 56.40625 64.621094 56.492188 64.667969 56.566406 64.742188 Z M 56.566406 64.742188 " fill-opacity="1" fill-rule="nonzero"/><path fill="#88d645" d="M 61.351562 59.277344 C 61.425781 59.351562 61.472656 59.4375 61.488281 59.53125 C 61.503906 59.625 61.484375 59.699219 61.429688 59.753906 C 61.371094 59.808594 61.300781 59.828125 61.207031 59.8125 C 61.113281 59.796875 61.027344 59.75 60.953125 59.675781 C 60.875 59.597656 60.828125 59.511719 60.8125 59.421875 C 60.796875 59.328125 60.816406 59.253906 60.875 59.199219 C 60.929688 59.144531 61.003906 59.125 61.09375 59.140625 C 61.1875 59.152344 61.273438 59.199219 61.351562 59.277344 Z M 61.351562 59.277344 " fill-opacity="1" fill-rule="nonzero"/><path fill="#fdf0b8" d="M 53.234375 52.640625 C 53.234375 52.75 53.207031 52.84375 53.152344 52.917969 C 53.09375 52.996094 53.027344 53.035156 52.953125 53.035156 C 52.875 53.035156 52.808594 52.996094 52.753906 52.917969 C 52.695312 52.84375 52.667969 52.75 52.667969 52.640625 C 52.667969 52.535156 52.695312 52.441406 52.753906 52.363281 C 52.808594 52.289062 52.875 52.25 52.953125 52.25 C 53.027344 52.25 53.09375 52.289062 53.152344 52.363281 C 53.207031 52.441406 53.234375 52.535156 53.234375 52.640625 Z M 53.234375 52.640625 " fill-opacity="1" fill-rule="nonzero"/><path fill="#88d645" d="M 46.164062 59.261719 C 46.273438 59.371094 46.3125 59.519531 46.28125 59.707031 C 46.253906 59.894531 46.160156 60.0625 46.007812 60.214844 C 45.855469 60.371094 45.683594 60.460938 45.5 60.492188 C 45.3125 60.523438 45.164062 60.480469 45.054688 60.371094 C 44.945312 60.261719 44.902344 60.113281 44.933594 59.925781 C 44.964844 59.742188 45.058594 59.570312 45.210938 59.417969 C 45.363281 59.265625 45.535156 59.171875 45.71875 59.144531 C 45.90625 59.113281 46.054688 59.152344 46.164062 59.261719 Z M 46.164062 59.261719 " fill-opacity="1" fill-rule="nonzero"/><path fill="#88d645" d="M 56.257812 59.417969 C 56.410156 59.570312 56.5 59.742188 56.53125 59.925781 C 56.5625 60.113281 56.523438 60.261719 56.414062 60.371094 C 56.304688 60.480469 56.15625 60.519531 55.96875 60.492188 C 55.78125 60.460938 55.613281 60.367188 55.460938 60.214844 C 55.304688 60.0625 55.214844 59.890625 55.183594 59.707031 C 55.152344 59.519531 55.191406 59.371094 55.304688 59.261719 C 55.414062 59.152344 55.5625 59.113281 55.746094 59.140625 C 55.933594 59.171875 56.101562 59.265625 56.257812 59.417969 Z M 56.257812 59.417969 " fill-opacity="1" fill-rule="nonzero"/><path fill="#b96c48" d="M 60.355469 64.882812 C 60.507812 65.039062 60.601562 65.207031 60.632812 65.394531 C 60.664062 65.578125 60.621094 65.726562 60.511719 65.839844 C 60.402344 65.949219 60.253906 65.988281 60.070312 65.957031 C 59.882812 65.925781 59.710938 65.835938 59.558594 65.683594 C 59.40625 65.527344 59.3125 65.359375 59.285156 65.171875 C 59.253906 64.988281 59.292969 64.839844 59.402344 64.730469 C 59.511719 64.617188 59.660156 64.578125 59.847656 64.609375 C 60.035156 64.640625 60.203125 64.730469 60.355469 64.882812 Z M 60.355469 64.882812 " fill-opacity="1" fill-rule="nonzero"/><path fill="#b96c48" d="M 48.214844 64.730469 C 48.324219 64.839844 48.363281 64.988281 48.332031 65.175781 C 48.300781 65.359375 48.210938 65.53125 48.058594 65.683594 C 47.902344 65.835938 47.734375 65.929688 47.546875 65.957031 C 47.363281 65.988281 47.214844 65.949219 47.105469 65.839844 C 46.992188 65.730469 46.953125 65.582031 46.984375 65.394531 C 47.015625 65.207031 47.105469 65.039062 47.261719 64.886719 C 47.414062 64.730469 47.582031 64.640625 47.769531 64.609375 C 47.957031 64.578125 48.105469 64.621094 48.214844 64.730469 Z M 48.214844 64.730469 " fill-opacity="1" fill-rule="nonzero"/><path fill="#b96c48" d="M 44.796875 64.730469 C 44.90625 64.839844 44.945312 64.988281 44.917969 65.175781 C 44.886719 65.359375 44.792969 65.53125 44.640625 65.683594 C 44.488281 65.835938 44.316406 65.929688 44.132812 65.957031 C 43.945312 65.988281 43.796875 65.949219 43.6875 65.839844 C 43.578125 65.730469 43.539062 65.582031 43.566406 65.394531 C 43.597656 65.207031 43.691406 65.039062 43.84375 64.886719 C 43.996094 64.730469 44.167969 64.640625 44.351562 64.609375 C 44.539062 64.578125 44.6875 64.621094 44.796875 64.730469 Z M 44.796875 64.730469 " fill-opacity="1" fill-rule="nonzero"/><path fill="#eef6fc" d="M 56.980469 51.757812 C 57.058594 51.835938 57.101562 51.921875 57.117188 52.015625 C 57.132812 52.105469 57.113281 52.179688 57.058594 52.238281 C 57.003906 52.292969 56.929688 52.3125 56.835938 52.296875 C 56.742188 52.28125 56.65625 52.234375 56.582031 52.15625 C 56.503906 52.082031 56.457031 51.996094 56.445312 51.902344 C 56.429688 51.808594 56.449219 51.734375 56.503906 51.679688 C 56.558594 51.625 56.632812 51.605469 56.726562 51.621094 C 56.820312 51.636719 56.902344 51.683594 56.980469 51.757812 Z M 56.980469 51.757812 " fill-opacity="1" fill-rule="nonzero"/><path fill="#f4f8fb" d="M 58.972656 52.566406 C 59.128906 52.722656 59.21875 52.890625 59.25 53.078125 C 59.28125 53.261719 59.242188 53.410156 59.128906 53.523438 C 59.019531 53.632812 58.871094 53.671875 58.6875 53.640625 C 58.5 53.609375 58.332031 53.519531 58.175781 53.367188 C 58.023438 53.214844 57.933594 53.042969 57.902344 52.855469 C 57.871094 52.671875 57.910156 52.523438 58.019531 52.414062 C 58.128906 52.300781 58.277344 52.261719 58.464844 52.292969 C 58.652344 52.324219 58.820312 52.414062 58.972656 52.566406 Z M 58.972656 52.566406 " fill-opacity="1" fill-rule="nonzero"/><path fill="#f4f8fb" d="M 60.355469 67.617188 C 60.507812 67.773438 60.601562 67.941406 60.632812 68.128906 C 60.664062 68.3125 60.621094 68.460938 60.511719 68.570312 C 60.402344 68.683594 60.253906 68.722656 60.070312 68.691406 C 59.882812 68.660156 59.710938 68.570312 59.558594 68.417969 C 59.40625 68.261719 59.3125 68.09375 59.285156 67.90625 C 59.253906 67.722656 59.292969 67.574219 59.402344 67.460938 C 59.511719 67.351562 59.660156 67.3125 59.847656 67.34375 C 60.035156 67.375 60.203125 67.464844 60.355469 67.617188 Z M 60.355469 67.617188 " fill-opacity="1" fill-rule="nonzero"/><path fill="#f4f8fb" d="M 58.617188 67.476562 C 58.695312 67.554688 58.738281 67.640625 58.753906 67.730469 C 58.769531 67.824219 58.75 67.898438 58.695312 67.953125 C 58.640625 68.007812 58.566406 68.027344 58.472656 68.011719 C 58.378906 68 58.292969 67.953125 58.21875 67.875 C 58.140625 67.800781 58.097656 67.714844 58.082031 67.621094 C 58.066406 67.527344 58.085938 67.453125 58.140625 67.398438 C 58.195312 67.34375 58.269531 67.324219 58.363281 67.339844 C 58.457031 67.355469 58.539062 67.402344 58.617188 67.476562 Z M 58.617188 67.476562 " fill-opacity="1" fill-rule="nonzero"/><path fill="#86b528" d="M 58.644531 47.835938 C 58.644531 48.199219 58.609375 48.5625 58.535156 48.921875 C 58.464844 49.28125 58.359375 49.628906 58.21875 49.96875 C 58.078125 50.308594 57.90625 50.628906 57.703125 50.933594 C 57.5 51.238281 57.269531 51.519531 57.011719 51.777344 C 56.75 52.039062 56.46875 52.269531 56.164062 52.472656 C 55.859375 52.675781 55.539062 52.847656 55.203125 52.988281 C 54.863281 53.128906 54.515625 53.234375 54.15625 53.304688 C 53.796875 53.375 53.433594 53.410156 53.066406 53.410156 C 52.699219 53.410156 52.339844 53.375 51.980469 53.304688 C 51.621094 53.234375 51.269531 53.128906 50.933594 52.988281 C 50.59375 52.847656 50.273438 52.675781 49.96875 52.472656 C 49.664062 52.269531 49.382812 52.039062 49.125 51.777344 C 48.863281 51.519531 48.632812 51.238281 48.429688 50.933594 C 48.226562 50.628906 48.054688 50.308594 47.914062 49.96875 C 47.773438 49.628906 47.667969 49.28125 47.597656 48.921875 C 47.527344 48.5625 47.492188 48.199219 47.492188 47.835938 C 47.492188 47.46875 47.527344 47.105469 47.597656 46.746094 C 47.667969 46.386719 47.773438 46.039062 47.914062 45.699219 C 48.054688 45.363281 48.226562 45.039062 48.429688 44.734375 C 48.632812 44.429688 48.863281 44.148438 49.125 43.890625 C 49.382812 43.632812 49.664062 43.402344 49.96875 43.195312 C 50.273438 42.992188 50.59375 42.820312 50.933594 42.679688 C 51.269531 42.542969 51.621094 42.4375 51.980469 42.363281 C 52.339844 42.292969 52.699219 42.257812 53.066406 42.257812 C 53.433594 42.257812 53.796875 42.292969 54.15625 42.363281 C 54.515625 42.4375 54.863281 42.542969 55.203125 42.679688 C 55.539062 42.820312 55.859375 42.992188 56.164062 43.195312 C 56.46875 43.402344 56.75 43.632812 57.011719 43.890625 C 57.269531 44.148438 57.5 44.429688 57.703125 44.734375 C 57.90625 45.039062 58.078125 45.363281 58.21875 45.699219 C 58.359375 46.039062 58.464844 46.386719 58.535156 46.746094 C 58.609375 47.105469 58.644531 47.46875 58.644531 47.835938 Z M 58.644531 47.835938 " fill-opacity="1" fill-rule="nonzero"/><path fill="#ffffff" d="M 51.503906 51.179688 C 51.257812 51.179688 51.050781 51.09375 50.875 50.917969 L 49.535156 49.582031 C 49.363281 49.40625 49.273438 49.195312 49.273438 48.949219 C 49.273438 48.703125 49.363281 48.492188 49.535156 48.320312 C 49.710938 48.144531 49.921875 48.058594 50.167969 48.058594 C 50.414062 48.058594 50.625 48.144531 50.796875 48.320312 L 51.503906 49.027344 L 55.335938 45.195312 C 55.511719 45.023438 55.71875 44.933594 55.96875 44.933594 C 56.214844 44.933594 56.421875 45.023438 56.597656 45.195312 C 56.773438 45.371094 56.859375 45.582031 56.859375 45.828125 C 56.859375 46.074219 56.773438 46.285156 56.597656 46.457031 L 52.136719 50.917969 C 51.960938 51.09375 51.753906 51.179688 51.503906 51.179688 Z M 51.503906 51.179688 " fill-opacity="1" fill-rule="nonzero"/><path fill="#86b528" d="M 54.101562 34.613281 C 54.101562 34.75 54.074219 34.882812 54.019531 35.007812 C 53.96875 35.136719 53.894531 35.246094 53.796875 35.34375 C 53.699219 35.441406 53.589844 35.515625 53.460938 35.566406 C 53.335938 35.621094 53.203125 35.648438 53.066406 35.648438 C 52.929688 35.648438 52.796875 35.621094 52.671875 35.566406 C 52.546875 35.515625 52.433594 35.441406 52.335938 35.34375 C 52.238281 35.246094 52.164062 35.136719 52.113281 35.007812 C 52.058594 34.882812 52.035156 34.75 52.035156 34.613281 C 52.035156 34.476562 52.058594 34.34375 52.113281 34.21875 C 52.164062 34.09375 52.238281 33.980469 52.335938 33.882812 C 52.433594 33.785156 52.546875 33.710938 52.671875 33.660156 C 52.796875 33.605469 52.929688 33.582031 53.066406 33.582031 C 53.203125 33.582031 53.335938 33.605469 53.460938 33.660156 C 53.589844 33.710938 53.699219 33.785156 53.796875 33.882812 C 53.894531 33.980469 53.96875 34.09375 54.019531 34.21875 C 54.074219 34.34375 54.101562 34.476562 54.101562 34.613281 Z M 54.101562 34.613281 " fill-opacity="1" fill-rule="nonzero"/><path fill="#86b528" d="M 54.101562 38.746094 C 54.101562 38.882812 54.074219 39.015625 54.019531 39.140625 C 53.96875 39.265625 53.894531 39.378906 53.796875 39.476562 C 53.699219 39.574219 53.589844 39.648438 53.460938 39.699219 C 53.335938 39.753906 53.203125 39.777344 53.066406 39.777344 C 52.929688 39.777344 52.796875 39.753906 52.671875 39.699219 C 52.546875 39.648438 52.433594 39.574219 52.335938 39.476562 C 52.238281 39.378906 52.164062 39.265625 52.113281 39.140625 C 52.058594 39.015625 52.035156 38.882812 52.035156 38.746094 C 52.035156 38.609375 52.058594 38.476562 52.113281 38.351562 C 52.164062 38.222656 52.238281 38.113281 52.335938 38.015625 C 52.433594 37.917969 52.546875 37.84375 52.671875 37.792969 C 52.796875 37.738281 52.929688 37.710938 53.066406 37.710938 C 53.203125 37.710938 53.335938 37.738281 53.460938 37.792969 C 53.589844 37.84375 53.699219 37.917969 53.796875 38.015625 C 53.894531 38.113281 53.96875 38.222656 54.019531 38.351562 C 54.074219 38.476562 54.101562 38.609375 54.101562 38.746094 Z M 54.101562 38.746094 " fill-opacity="1" fill-rule="nonzero"/></svg>