<svg xmlns="http://www.w3.org/2000/svg" xmlns:xlink="http://www.w3.org/1999/xlink" width="150" zoomAndPan="magnify" viewBox="0 0 112.5 112.499997" height="150" preserveAspectRatio="xMidYMid meet" version="1.0"><path fill="#caddff" d="M 28.785156 32.375 C 39.011719 22.101562 36.082031 15.660156 43.082031 10.902344 C 53.847656 3.585938 73.941406 9.882812 85.796875 19.949219 C 100.316406 32.28125 107.808594 54.796875 99.273438 75.167969 C 90.183594 96.859375 66.273438 108.121094 44.9375 104.726562 C 25.882812 101.695312 7.152344 86.703125 5.277344 68.722656 C 5.074219 66.777344 4.175781 56.242188 10.472656 47.15625 C 15.679688 39.648438 20.679688 40.519531 28.785156 32.375 " fill-opacity="1" fill-rule="nonzero"/><path fill="#99b9ff" d="M 26.660156 27.207031 C 23.214844 26.171875 21.261719 22.546875 22.296875 19.101562 C 23.335938 15.660156 26.96875 13.707031 30.414062 14.742188 C 33.863281 15.773438 35.816406 19.402344 34.777344 22.847656 C 33.742188 26.289062 30.105469 28.242188 26.660156 27.207031 Z M 40.710938 25.945312 L 41.441406 23.523438 L 39.035156 22.167969 C 39.101562 21.578125 39.121094 20.988281 39.089844 20.40625 L 41.574219 19.199219 L 40.992188 16.738281 L 38.226562 16.765625 C 37.992188 16.226562 37.714844 15.710938 37.394531 15.21875 L 38.941406 12.925781 L 37.207031 11.085938 L 34.828125 12.488281 C 34.363281 12.144531 33.859375 11.835938 33.328125 11.566406 L 33.523438 8.8125 L 31.097656 8.085938 L 29.738281 10.488281 C 29.148438 10.421875 28.558594 10.402344 27.976562 10.433594 L 26.765625 7.957031 L 24.304688 8.539062 L 24.328125 11.296875 C 23.789062 11.535156 23.269531 11.8125 22.777344 12.132812 L 20.484375 10.589844 L 18.640625 12.320312 L 20.046875 14.695312 C 19.699219 15.164062 19.390625 15.664062 19.121094 16.195312 L 16.363281 16.003906 L 15.632812 18.425781 L 18.039062 19.78125 C 17.972656 20.371094 17.953125 20.960938 17.984375 21.539062 L 15.5 22.75 L 16.082031 25.210938 L 18.847656 25.183594 C 19.082031 25.722656 19.359375 26.238281 19.679688 26.730469 L 18.132812 29.019531 L 19.867188 30.859375 L 22.246094 29.457031 C 22.714844 29.804688 23.214844 30.113281 23.746094 30.382812 L 23.550781 33.136719 L 25.976562 33.863281 L 27.335938 31.457031 C 27.925781 31.527344 28.515625 31.542969 29.097656 31.511719 L 30.308594 33.992188 L 32.769531 33.410156 L 32.746094 30.648438 C 33.285156 30.414062 33.804688 30.136719 34.296875 29.816406 L 36.589844 31.359375 L 38.433594 29.625 L 37.027344 27.253906 C 37.375 26.785156 37.683594 26.28125 37.953125 25.753906 L 40.710938 25.945312 " fill-opacity="1" fill-rule="nonzero"/><path fill="#5479f7" d="M 29.382812 14.417969 C 26.667969 14.417969 24.148438 16.171875 23.3125 18.898438 C 22.816406 20.515625 22.980469 22.226562 23.773438 23.71875 C 24.566406 25.214844 25.898438 26.308594 27.515625 26.800781 C 28.132812 26.988281 28.753906 27.078125 29.367188 27.078125 C 32.082031 27.082031 34.601562 25.324219 35.433594 22.597656 C 35.933594 20.980469 35.769531 19.269531 34.972656 17.773438 C 34.179688 16.28125 32.851562 15.1875 31.230469 14.691406 C 30.617188 14.503906 29.992188 14.417969 29.382812 14.417969 Z M 29.367188 27.433594 C 28.71875 27.433594 28.0625 27.339844 27.414062 27.140625 C 25.703125 26.617188 24.300781 25.460938 23.460938 23.886719 C 22.625 22.308594 22.449219 20.5 22.972656 18.792969 C 24.054688 15.269531 27.808594 13.277344 31.335938 14.355469 C 33.042969 14.878906 34.445312 16.035156 35.285156 17.609375 C 36.125 19.1875 36.296875 20.996094 35.773438 22.703125 C 34.890625 25.578125 32.230469 27.433594 29.367188 27.433594 Z M 29.882812 31.113281 C 29.949219 31.113281 30.011719 31.152344 30.039062 31.214844 L 31.175781 33.570312 L 33.367188 33.066406 L 33.355469 30.445312 C 33.355469 30.375 33.398438 30.308594 33.464844 30.28125 C 33.992188 30.054688 34.507812 29.78125 34.992188 29.46875 C 35.054688 29.429688 35.128906 29.433594 35.1875 29.472656 L 37.355469 30.949219 L 39 29.417969 L 37.679688 27.15625 C 37.644531 27.097656 37.648438 27.019531 37.691406 26.960938 C 38.035156 26.507812 38.34375 26.011719 38.609375 25.492188 C 38.640625 25.429688 38.707031 25.390625 38.78125 25.398438 L 41.394531 25.59375 L 42.054688 23.445312 L 39.777344 22.148438 C 39.714844 22.113281 39.679688 22.042969 39.6875 21.972656 C 39.757812 21.390625 39.78125 20.808594 39.753906 20.242188 C 39.75 20.171875 39.789062 20.105469 39.855469 20.074219 L 42.214844 18.941406 L 41.710938 16.75 L 39.085938 16.765625 C 39.015625 16.765625 38.953125 16.722656 38.921875 16.65625 C 38.695312 16.128906 38.421875 15.613281 38.113281 15.128906 C 38.074219 15.070312 38.074219 14.992188 38.113281 14.933594 L 39.59375 12.769531 L 38.0625 11.128906 L 35.796875 12.449219 C 35.738281 12.484375 35.660156 12.480469 35.601562 12.4375 C 35.148438 12.097656 34.652344 11.789062 34.132812 11.523438 C 34.066406 11.488281 34.03125 11.421875 34.035156 11.351562 L 34.234375 8.738281 L 32.082031 8.082031 L 30.78125 10.359375 C 30.746094 10.417969 30.679688 10.453125 30.609375 10.445312 C 30.027344 10.375 29.441406 10.355469 28.875 10.382812 C 28.804688 10.386719 28.738281 10.347656 28.707031 10.28125 L 27.570312 7.925781 L 25.378906 8.429688 L 25.390625 11.050781 C 25.390625 11.121094 25.351562 11.1875 25.285156 11.214844 C 24.753906 11.441406 24.238281 11.714844 23.753906 12.027344 C 23.695312 12.0625 23.617188 12.0625 23.558594 12.023438 L 21.390625 10.546875 L 19.746094 12.078125 L 21.066406 14.339844 C 21.101562 14.398438 21.097656 14.476562 21.054688 14.53125 C 20.714844 14.988281 20.40625 15.480469 20.136719 16.003906 C 20.105469 16.066406 20.039062 16.105469 19.96875 16.097656 L 17.351562 15.902344 L 16.691406 18.050781 L 18.96875 19.347656 C 19.03125 19.382812 19.066406 19.453125 19.058594 19.523438 C 18.988281 20.101562 18.964844 20.6875 18.992188 21.253906 C 18.996094 21.324219 18.957031 21.390625 18.894531 21.421875 L 16.53125 22.554688 L 17.035156 24.746094 L 19.660156 24.730469 C 19.730469 24.726562 19.796875 24.773438 19.824219 24.835938 C 20.050781 25.367188 20.324219 25.882812 20.636719 26.363281 C 20.675781 26.425781 20.671875 26.5 20.632812 26.558594 L 19.152344 28.726562 L 20.6875 30.367188 L 22.949219 29.046875 C 23.011719 29.011719 23.089844 29.015625 23.144531 29.058594 C 23.601562 29.398438 24.09375 29.707031 24.617188 29.972656 C 24.679688 30.007812 24.71875 30.074219 24.710938 30.144531 L 24.515625 32.757812 L 26.664062 33.414062 L 27.964844 31.136719 C 28 31.074219 28.070312 31.042969 28.140625 31.050781 C 28.722656 31.121094 29.304688 31.140625 29.871094 31.113281 C 29.875 31.113281 29.878906 31.113281 29.882812 31.113281 Z M 31.078125 33.949219 C 31.011719 33.949219 30.949219 33.914062 30.917969 33.851562 L 29.773438 31.472656 C 29.261719 31.488281 28.738281 31.46875 28.214844 31.414062 L 26.902344 33.710938 C 26.859375 33.78125 26.773438 33.816406 26.695312 33.792969 L 24.277344 33.054688 C 24.195312 33.027344 24.144531 32.953125 24.152344 32.871094 L 24.351562 30.234375 C 23.886719 29.988281 23.441406 29.710938 23.027344 29.410156 L 20.742188 30.742188 C 20.671875 30.785156 20.582031 30.769531 20.523438 30.710938 L 18.800781 28.863281 C 18.742188 28.800781 18.734375 28.710938 18.78125 28.644531 L 20.277344 26.457031 C 20 26.019531 19.753906 25.558594 19.546875 25.085938 L 16.898438 25.097656 C 16.8125 25.097656 16.742188 25.042969 16.722656 24.960938 L 16.15625 22.496094 C 16.136719 22.417969 16.175781 22.335938 16.25 22.296875 L 18.636719 21.152344 C 18.617188 20.640625 18.636719 20.117188 18.695312 19.597656 L 16.394531 18.285156 C 16.324219 18.246094 16.289062 18.160156 16.3125 18.082031 L 17.054688 15.664062 C 17.078125 15.585938 17.15625 15.535156 17.238281 15.539062 L 19.878906 15.738281 C 20.125 15.273438 20.398438 14.828125 20.703125 14.414062 L 19.371094 12.136719 C 19.328125 12.0625 19.34375 11.972656 19.402344 11.917969 L 21.253906 10.191406 C 21.316406 10.136719 21.40625 10.128906 21.476562 10.175781 L 23.664062 11.664062 C 24.101562 11.390625 24.5625 11.144531 25.039062 10.9375 L 25.027344 8.289062 C 25.027344 8.207031 25.082031 8.136719 25.164062 8.117188 L 27.628906 7.550781 C 27.710938 7.53125 27.792969 7.570312 27.828125 7.644531 L 28.976562 10.023438 C 29.488281 10.003906 30.011719 10.023438 30.53125 10.082031 L 31.847656 7.785156 C 31.886719 7.714844 31.972656 7.679688 32.050781 7.703125 L 34.472656 8.441406 C 34.550781 8.464844 34.601562 8.542969 34.597656 8.625 L 34.398438 11.261719 C 34.863281 11.507812 35.304688 11.78125 35.71875 12.085938 L 38.003906 10.753906 C 38.078125 10.710938 38.167969 10.722656 38.222656 10.785156 L 39.949219 12.632812 C 40.003906 12.695312 40.011719 12.785156 39.964844 12.851562 L 38.472656 15.039062 C 38.746094 15.476562 38.992188 15.9375 39.203125 16.410156 L 41.851562 16.398438 C 41.933594 16.398438 42.003906 16.453125 42.023438 16.535156 L 42.589844 18.996094 C 42.609375 19.078125 42.570312 19.160156 42.496094 19.195312 L 40.113281 20.34375 C 40.132812 20.855469 40.109375 21.375 40.054688 21.898438 L 42.351562 23.210938 C 42.425781 23.25 42.457031 23.335938 42.433594 23.414062 L 41.691406 25.832031 C 41.667969 25.910156 41.59375 25.960938 41.511719 25.957031 L 38.871094 25.757812 C 38.625 26.222656 38.347656 26.667969 38.046875 27.082031 L 39.378906 29.359375 C 39.417969 29.433594 39.40625 29.523438 39.34375 29.578125 L 37.492188 31.304688 C 37.433594 31.359375 37.339844 31.367188 37.273438 31.320312 L 35.085938 29.828125 C 34.644531 30.105469 34.183594 30.351562 33.710938 30.558594 L 33.722656 33.203125 C 33.722656 33.289062 33.664062 33.359375 33.585938 33.378906 L 31.117188 33.945312 C 31.105469 33.949219 31.089844 33.949219 31.078125 33.949219 " fill-opacity="1" fill-rule="nonzero"/><path fill="#ffffff" d="M 76.152344 43.160156 C 76.648438 39.65625 79.890625 37.21875 83.398438 37.710938 C 86.90625 38.207031 89.347656 41.445312 88.855469 44.945312 C 88.359375 48.449219 85.117188 50.886719 81.609375 50.394531 C 78.101562 49.898438 75.65625 46.660156 76.152344 43.160156 " fill-opacity="1" fill-rule="nonzero"/><path fill="#000000" d="M 76.328125 43.183594 C 75.847656 46.585938 78.226562 49.738281 81.632812 50.21875 C 85.039062 50.699219 88.199219 48.320312 88.679688 44.921875 C 88.910156 43.273438 88.488281 41.636719 87.484375 40.308594 C 86.484375 38.980469 85.023438 38.121094 83.375 37.886719 C 79.964844 37.40625 76.804688 39.785156 76.328125 43.183594 Z M 82.507812 50.632812 C 82.203125 50.632812 81.894531 50.613281 81.582031 50.570312 C 77.984375 50.0625 75.46875 46.726562 75.976562 43.136719 C 76.484375 39.542969 79.824219 37.03125 83.421875 37.539062 C 85.164062 37.78125 86.707031 38.691406 87.769531 40.09375 C 88.828125 41.5 89.273438 43.230469 89.027344 44.96875 C 88.566406 48.253906 85.738281 50.632812 82.507812 50.632812 " fill-opacity="1" fill-rule="nonzero"/><path fill="#99b9ff" d="M 85.523438 47.359375 L 78.71875 46.402344 C 78.574219 46.382812 78.46875 46.246094 78.488281 46.097656 L 79.179688 41.207031 C 79.199219 41.058594 79.335938 40.957031 79.484375 40.976562 L 86.289062 41.933594 C 86.4375 41.957031 86.539062 42.09375 86.519531 42.238281 L 85.828125 47.128906 C 85.808594 47.277344 85.671875 47.378906 85.523438 47.359375 " fill-opacity="1" fill-rule="nonzero"/><path fill="#000000" d="M 85.226562 47.140625 C 85.335938 47.15625 85.445312 47.125 85.535156 47.058594 C 85.625 46.992188 85.683594 46.894531 85.699219 46.785156 L 86.296875 42.539062 C 86.332031 42.308594 86.171875 42.097656 85.941406 42.0625 L 79.785156 41.199219 C 79.671875 41.183594 79.5625 41.210938 79.472656 41.277344 C 79.382812 41.34375 79.324219 41.445312 79.308594 41.554688 L 78.710938 45.800781 C 78.679688 46.027344 78.839844 46.242188 79.066406 46.273438 Z M 85.285156 47.496094 C 85.25 47.496094 85.210938 47.496094 85.175781 47.488281 L 79.015625 46.621094 C 78.597656 46.5625 78.300781 46.171875 78.359375 45.75 L 78.960938 41.503906 C 78.988281 41.300781 79.09375 41.121094 79.261719 40.996094 C 79.425781 40.871094 79.628906 40.820312 79.832031 40.847656 L 85.992188 41.714844 C 86.414062 41.773438 86.707031 42.164062 86.648438 42.585938 L 86.050781 46.832031 C 86.019531 47.035156 85.914062 47.21875 85.75 47.339844 C 85.613281 47.441406 85.453125 47.496094 85.285156 47.496094 " fill-opacity="1" fill-rule="nonzero"/><path fill="#000000" d="M 82.5 44.589844 C 82.457031 44.589844 82.414062 44.574219 82.382812 44.546875 L 80.242188 42.671875 C 80.171875 42.609375 80.164062 42.496094 80.226562 42.421875 C 80.292969 42.351562 80.402344 42.34375 80.476562 42.40625 L 82.617188 44.28125 C 82.6875 44.34375 82.695312 44.457031 82.632812 44.53125 C 82.597656 44.570312 82.546875 44.589844 82.5 44.589844 " fill-opacity="1" fill-rule="nonzero"/><path fill="#000000" d="M 82.515625 44.59375 C 82.449219 44.59375 82.386719 44.554688 82.355469 44.492188 C 82.3125 44.402344 82.351562 44.296875 82.441406 44.257812 L 85.015625 43.046875 C 85.101562 43.003906 85.207031 43.042969 85.25 43.128906 C 85.289062 43.21875 85.253906 43.324219 85.164062 43.363281 L 82.589844 44.574219 C 82.566406 44.585938 82.539062 44.59375 82.515625 44.59375 " fill-opacity="1" fill-rule="nonzero"/><path fill="#ffffff" d="M 79.144531 60.449219 C 78.8125 56.929688 81.40625 53.808594 84.929688 53.476562 C 88.457031 53.144531 91.585938 55.734375 91.917969 59.253906 C 92.246094 62.773438 89.65625 65.898438 86.128906 66.226562 C 82.601562 66.558594 79.476562 63.96875 79.144531 60.449219 " fill-opacity="1" fill-rule="nonzero"/><path fill="#000000" d="M 85.542969 53.625 C 85.34375 53.625 85.148438 53.632812 84.949219 53.652344 C 83.289062 53.808594 81.789062 54.597656 80.726562 55.878906 C 79.664062 57.160156 79.164062 58.777344 79.320312 60.433594 C 79.625 63.652344 82.347656 66.078125 85.527344 66.078125 C 85.71875 66.078125 85.917969 66.070312 86.113281 66.050781 C 89.539062 65.730469 92.0625 62.6875 91.742188 59.269531 C 91.585938 57.613281 90.792969 56.117188 89.511719 55.058594 C 88.382812 54.121094 86.988281 53.625 85.542969 53.625 Z M 85.519531 66.429688 C 83.988281 66.429688 82.519531 65.90625 81.324219 64.917969 C 79.972656 63.796875 79.132812 62.214844 78.96875 60.464844 C 78.804688 58.714844 79.332031 57.007812 80.457031 55.652344 C 81.578125 54.300781 83.164062 53.464844 84.914062 53.300781 C 86.667969 53.136719 88.378906 53.664062 89.734375 54.785156 C 91.089844 55.90625 91.929688 57.488281 92.09375 59.238281 C 92.433594 62.847656 89.765625 66.0625 86.148438 66.402344 C 85.9375 66.421875 85.726562 66.429688 85.519531 66.429688 " fill-opacity="1" fill-rule="nonzero"/><path fill="#99b9ff" d="M 88.191406 62.386719 L 87.339844 61.335938 C 87.269531 61.246094 87.121094 61.179688 87.007812 61.179688 L 86.863281 61.183594 C 86.734375 61.183594 86.609375 61.214844 86.492188 61.265625 C 86.15625 61.402344 85.613281 61.40625 84.90625 60.183594 C 84.203125 58.964844 84.46875 58.496094 84.753906 58.273438 C 84.878906 58.179688 84.980469 58.054688 85.058594 57.921875 L 85.089844 57.867188 C 85.148438 57.769531 85.164062 57.605469 85.125 57.5 L 84.636719 56.242188 C 84.597656 56.136719 84.472656 56.066406 84.363281 56.085938 L 84.046875 56.144531 C 83.785156 56.195312 83.539062 56.324219 83.363281 56.53125 C 82.621094 57.394531 82.746094 59.128906 83.742188 60.851562 C 84.742188 62.578125 86.1875 63.554688 87.3125 63.339844 C 87.570312 63.292969 87.804688 63.148438 87.972656 62.949219 L 88.1875 62.699219 C 88.257812 62.613281 88.261719 62.472656 88.191406 62.386719 " fill-opacity="1" fill-rule="nonzero"/><path fill="#000000" d="M 84.402344 56.261719 C 84.398438 56.261719 84.394531 56.261719 84.394531 56.261719 L 84.078125 56.320312 C 83.847656 56.359375 83.640625 56.476562 83.5 56.644531 C 82.800781 57.457031 82.964844 59.152344 83.894531 60.765625 C 84.832031 62.382812 86.222656 63.371094 87.277344 63.167969 C 87.492188 63.125 87.691406 63.007812 87.839844 62.835938 L 88.050781 62.585938 C 88.070312 62.566406 88.070312 62.519531 88.050781 62.496094 L 87.203125 61.445312 C 87.167969 61.402344 87.070312 61.355469 87.007812 61.355469 L 86.867188 61.359375 C 86.769531 61.359375 86.667969 61.382812 86.558594 61.429688 C 85.941406 61.679688 85.347656 61.304688 84.753906 60.269531 C 84.15625 59.242188 84.121094 58.542969 84.644531 58.136719 C 84.742188 58.058594 84.832031 57.957031 84.910156 57.828125 L 84.941406 57.777344 C 84.972656 57.726562 84.980469 57.621094 84.957031 57.566406 L 84.472656 56.304688 C 84.460938 56.28125 84.429688 56.261719 84.402344 56.261719 Z M 86.992188 63.546875 C 85.84375 63.546875 84.519531 62.546875 83.589844 60.941406 C 82.566406 59.171875 82.421875 57.355469 83.230469 56.414062 C 83.425781 56.1875 83.707031 56.027344 84.015625 55.972656 L 84.332031 55.914062 C 84.523438 55.878906 84.730469 55.996094 84.800781 56.179688 L 85.289062 57.4375 C 85.347656 57.59375 85.328125 57.816406 85.242188 57.957031 L 85.210938 58.011719 C 85.113281 58.175781 84.996094 58.3125 84.863281 58.414062 C 84.730469 58.519531 84.328125 58.832031 85.058594 60.09375 C 85.789062 61.359375 86.265625 61.164062 86.421875 61.101562 C 86.574219 61.039062 86.71875 61.007812 86.859375 61.003906 L 87.003906 61.003906 C 87.171875 60.996094 87.375 61.09375 87.476562 61.222656 L 88.328125 62.277344 C 88.453125 62.429688 88.449219 62.664062 88.320312 62.8125 L 88.109375 63.0625 C 87.90625 63.296875 87.636719 63.457031 87.34375 63.515625 C 87.230469 63.535156 87.113281 63.546875 86.992188 63.546875 " fill-opacity="1" fill-rule="nonzero"/><path fill="#5479f7" d="M 14.496094 44.269531 C 11.988281 43.519531 10.570312 40.878906 11.324219 38.378906 C 12.078125 35.875 14.722656 34.453125 17.226562 35.207031 C 19.734375 35.957031 21.15625 38.59375 20.398438 41.097656 C 19.644531 43.601562 17.003906 45.023438 14.496094 44.269531 Z M 24.714844 43.355469 L 25.246094 41.59375 L 23.496094 40.605469 C 23.546875 40.175781 23.558594 39.75 23.539062 39.324219 L 25.34375 38.445312 L 24.921875 36.65625 L 22.910156 36.679688 C 22.738281 36.285156 22.535156 35.910156 22.304688 35.550781 L 23.429688 33.886719 L 22.167969 32.546875 L 20.4375 33.566406 C 20.097656 33.316406 19.730469 33.09375 19.347656 32.894531 L 19.488281 30.894531 L 17.726562 30.363281 L 16.734375 32.113281 C 16.304688 32.0625 15.878906 32.050781 15.453125 32.074219 L 14.574219 30.269531 L 12.78125 30.691406 L 12.800781 32.703125 C 12.410156 32.871094 12.03125 33.074219 11.671875 33.308594 L 10.007812 32.183594 L 8.664062 33.445312 L 9.6875 35.171875 C 9.433594 35.511719 9.207031 35.878906 9.011719 36.261719 L 7.007812 36.121094 L 6.476562 37.882812 L 8.226562 38.871094 C 8.175781 39.300781 8.164062 39.726562 8.1875 40.148438 L 6.378906 41.03125 L 6.800781 42.820312 L 8.8125 42.800781 C 8.984375 43.191406 9.1875 43.566406 9.417969 43.925781 L 8.292969 45.589844 L 9.554688 46.929688 L 11.285156 45.910156 C 11.625 46.160156 11.992188 46.382812 12.378906 46.578125 L 12.234375 48.582031 L 14 49.113281 L 14.988281 47.363281 C 15.417969 47.410156 15.847656 47.425781 16.269531 47.402344 L 17.148438 49.207031 L 18.941406 48.785156 L 18.921875 46.773438 C 19.3125 46.605469 19.691406 46.402344 20.050781 46.167969 L 21.71875 47.292969 L 23.058594 46.03125 L 22.039062 44.304688 C 22.289062 43.964844 22.515625 43.597656 22.710938 43.214844 L 24.714844 43.355469 " fill-opacity="1" fill-rule="nonzero"/><path fill="#5479f7" d="M 5.867188 100.238281 C 5.867188 100.238281 5.445312 74.902344 22.5 65.332031 C 28.808594 61.792969 36.359375 61.3125 43.714844 61.628906 C 48.890625 61.847656 53.914062 61.695312 58.578125 64.480469 C 65.199219 68.4375 70.878906 75.253906 74.390625 85.710938 L 77.578125 104.714844 L 5.867188 100.238281 " fill-opacity="1" fill-rule="nonzero"/><path fill="#5479f7" d="M 34.5 103.589844 C 14.171875 103.300781 8.070312 105.613281 6.316406 102.351562 C 4.066406 98.152344 10.574219 87.605469 18.914062 85.5625 C 20.992188 85.054688 23.726562 84.9375 45.902344 96.671875 C 53.679688 100.785156 55.863281 102.132812 55.605469 103.152344 C 55.160156 104.917969 47.835938 103.78125 34.5 103.589844 " fill-opacity="1" fill-rule="nonzero"/><path fill="#ffffff" d="M 29.71875 87.398438 C 29.703125 87.398438 29.6875 87.398438 29.675781 87.394531 C 29.578125 87.371094 29.523438 87.273438 29.546875 87.179688 C 31.269531 80.335938 36.21875 74.707031 36.269531 74.652344 C 36.332031 74.578125 36.445312 74.574219 36.515625 74.636719 C 36.589844 74.703125 36.597656 74.8125 36.53125 74.886719 C 36.484375 74.941406 31.589844 80.507812 29.886719 87.265625 C 29.867188 87.347656 29.796875 87.398438 29.71875 87.398438 " fill-opacity="1" fill-rule="nonzero"/><path fill="#ffffff" d="M 45.902344 96.671875 C 41.316406 94.246094 37.5625 92.328125 34.472656 90.8125 C 31.488281 92.800781 27.882812 96.65625 28.292969 103.578125 C 30.199219 103.558594 32.261719 103.558594 34.5 103.589844 C 47.835938 103.78125 55.160156 104.917969 55.605469 103.152344 C 55.863281 102.132812 53.679688 100.785156 45.902344 96.671875 " fill-opacity="1" fill-rule="nonzero"/><path fill="#000000" d="M 30.90625 103.390625 C 32.097656 103.390625 33.300781 103.398438 34.5 103.414062 C 38.714844 103.476562 42.375 103.632812 45.316406 103.757812 C 51.457031 104.019531 55.164062 104.179688 55.4375 103.109375 C 55.664062 102.207031 53.234375 100.75 45.820312 96.828125 C 41.472656 94.527344 37.660156 92.570312 34.488281 91.015625 C 31.527344 93.011719 28.128906 96.769531 28.460938 103.402344 C 29.269531 103.394531 30.085938 103.390625 30.90625 103.390625 Z M 51.402344 104.300781 C 49.8125 104.300781 47.785156 104.214844 45.300781 104.109375 C 42.363281 103.984375 38.703125 103.828125 34.496094 103.769531 C 32.417969 103.738281 30.332031 103.734375 28.296875 103.757812 C 28.296875 103.757812 28.292969 103.757812 28.292969 103.757812 C 28.199219 103.757812 28.125 103.683594 28.117188 103.589844 C 27.707031 96.621094 31.292969 92.714844 34.375 90.664062 C 34.429688 90.628906 34.496094 90.625 34.550781 90.652344 C 37.746094 92.21875 41.59375 94.191406 45.984375 96.515625 C 53.953125 100.730469 56.070312 102.039062 55.777344 103.195312 C 55.5625 104.046875 54.132812 104.300781 51.402344 104.300781 " fill-opacity="1" fill-rule="nonzero"/><path fill="#ffffff" d="M 33.804688 90.660156 C 33.773438 90.660156 33.742188 90.652344 33.714844 90.636719 C 33.683594 90.617188 30.5 88.75 26.941406 87.292969 C 26.847656 87.253906 26.804688 87.152344 26.84375 87.0625 C 26.878906 86.972656 26.984375 86.929688 27.074219 86.964844 C 30.660156 88.433594 33.863281 90.316406 33.894531 90.332031 C 33.980469 90.382812 34.007812 90.492188 33.957031 90.574219 C 33.925781 90.632812 33.867188 90.660156 33.804688 90.660156 " fill-opacity="1" fill-rule="nonzero"/><path fill="#ffffff" d="M 29.019531 87.113281 C 28.957031 87.113281 28.894531 87.078125 28.863281 87.015625 C 27.511719 84.285156 28.570312 80.828125 28.617188 80.683594 C 28.648438 80.589844 28.746094 80.539062 28.839844 80.570312 C 28.933594 80.597656 28.984375 80.695312 28.953125 80.789062 C 28.945312 80.824219 27.890625 84.257812 29.179688 86.859375 C 29.222656 86.945312 29.1875 87.054688 29.097656 87.097656 C 29.074219 87.109375 29.046875 87.113281 29.019531 87.113281 " fill-opacity="1" fill-rule="nonzero"/><path fill="#ffffff" d="M 41.972656 47.363281 L 38.09375 59.925781 C 38.09375 59.925781 28.660156 61.441406 24.257812 64.738281 C 24.257812 64.738281 31.640625 61.859375 36.121094 64.945312 C 40.601562 68.035156 51.832031 69.199219 58.28125 65.195312 C 58.28125 65.195312 49.378906 61.367188 49.3125 61.125 C 49.199219 60.714844 49.667969 59.566406 49.667969 59.566406 C 49.667969 59.566406 50.714844 60.210938 52.117188 60.582031 C 53.164062 60.859375 54.015625 60.105469 54.476562 59.125 C 55.53125 56.882812 56.230469 53.917969 56.230469 53.917969 L 57.882812 53.507812 C 57.679688 51.0625 57.101562 49.871094 57.550781 47.628906 C 57.921875 45.785156 59.316406 45.449219 59.316406 41.082031 L 47.324219 36.699219 L 41.976562 42.242188 C 41.976562 42.242188 41.4375 41.238281 40.089844 41.664062 C 38.746094 42.097656 38.53125 47.972656 39.992188 48.242188 C 41 48.429688 41.972656 47.363281 41.972656 47.363281 " fill-opacity="1" fill-rule="nonzero"/><path fill="#000000" d="M 30.792969 63.332031 C 32.65625 63.332031 34.609375 63.691406 36.222656 64.800781 C 38.433594 66.324219 42.359375 67.378906 46.46875 67.554688 C 50.953125 67.746094 54.992188 66.917969 57.898438 65.222656 C 57.203125 64.921875 55.472656 64.171875 53.75 63.410156 C 49.207031 61.402344 49.175781 61.296875 49.140625 61.171875 C 49.019531 60.726562 49.421875 59.703125 49.503906 59.5 C 49.523438 59.453125 49.566406 59.414062 49.613281 59.398438 C 49.664062 59.382812 49.71875 59.390625 49.761719 59.417969 C 49.773438 59.425781 50.804688 60.050781 52.160156 60.410156 C 53.410156 60.742188 54.128906 59.449219 54.316406 59.046875 C 55.351562 56.851562 56.050781 53.90625 56.058594 53.878906 C 56.074219 53.8125 56.125 53.761719 56.1875 53.746094 L 57.695312 53.375 C 57.628906 52.652344 57.527344 52.03125 57.441406 51.476562 C 57.242188 50.222656 57.070312 49.140625 57.378906 47.597656 C 57.511719 46.941406 57.765625 46.472656 58.035156 45.972656 C 58.546875 45.023438 59.125 43.953125 59.140625 41.203125 L 47.371094 36.902344 L 42.101562 42.363281 C 42.0625 42.40625 42.003906 42.425781 41.949219 42.417969 C 41.894531 42.410156 41.84375 42.375 41.820312 42.324219 C 41.800781 42.289062 41.328125 41.457031 40.144531 41.835938 C 39.519531 42.035156 39.058594 43.957031 39.179688 45.867188 C 39.261719 47.125 39.59375 47.988281 40.027344 48.070312 C 40.925781 48.238281 41.832031 47.253906 41.839844 47.246094 C 41.898438 47.183594 41.988281 47.167969 42.058594 47.210938 C 42.132812 47.25 42.164062 47.335938 42.140625 47.414062 L 38.265625 59.976562 C 38.246094 60.039062 38.191406 60.085938 38.125 60.097656 C 38.035156 60.113281 30.082031 61.417969 25.457031 64.15625 C 26.691406 63.792969 28.683594 63.332031 30.792969 63.332031 Z M 47.753906 67.9375 C 43.015625 67.9375 38.4375 66.757812 36.019531 65.089844 C 31.667969 62.09375 24.394531 64.875 24.320312 64.902344 C 24.238281 64.9375 24.144531 64.902344 24.101562 64.824219 C 24.058594 64.75 24.082031 64.652344 24.152344 64.597656 C 28.28125 61.503906 36.890625 59.953125 37.957031 59.769531 L 41.617188 47.910156 C 41.214844 48.207031 40.601562 48.535156 39.960938 48.417969 C 39.074219 48.25 38.871094 46.59375 38.828125 45.890625 C 38.726562 44.308594 39.042969 41.816406 40.039062 41.5 C 41.117188 41.152344 41.738281 41.667969 41.992188 41.96875 L 47.195312 36.578125 C 47.246094 36.527344 47.320312 36.507812 47.382812 36.53125 L 59.378906 40.914062 C 59.449219 40.941406 59.496094 41.007812 59.496094 41.082031 C 59.496094 44.011719 58.882812 45.140625 58.34375 46.136719 C 58.078125 46.636719 57.847656 47.0625 57.726562 47.664062 C 57.429688 49.148438 57.585938 50.152344 57.789062 51.421875 C 57.882812 52.019531 57.992188 52.695312 58.058594 53.492188 C 58.066406 53.582031 58.007812 53.660156 57.925781 53.679688 L 56.378906 54.0625 C 56.242188 54.613281 55.578125 57.203125 54.636719 59.199219 C 54.183594 60.15625 53.273438 61.070312 52.070312 60.75 C 50.984375 60.464844 50.121094 60.023438 49.757812 59.824219 C 49.601562 60.246094 49.445312 60.796875 49.472656 61.035156 C 49.980469 61.386719 55.015625 63.597656 58.351562 65.035156 C 58.414062 65.058594 58.453125 65.117188 58.460938 65.183594 C 58.464844 65.246094 58.433594 65.308594 58.375 65.34375 C 55.402344 67.191406 51.527344 67.9375 47.753906 67.9375 " fill-opacity="1" fill-rule="nonzero"/><path fill="#000000" d="M 41.972656 42.460938 C 41.972656 42.460938 43.8125 42.375 43.777344 43.984375 C 43.746094 45.597656 42.742188 48.363281 44.378906 49.363281 C 46.015625 50.363281 47.019531 45.964844 47.019531 44.664062 C 47.019531 43.363281 48.320312 39.832031 50.839844 40.148438 C 53.625 40.496094 55.050781 42.46875 59.316406 42.058594 C 59.960938 41.996094 62.308594 41.769531 62.980469 40.269531 C 63.457031 39.214844 62.882812 38.015625 62.636719 37.515625 C 62.238281 36.714844 60.96875 34.65625 54.710938 32.769531 C 50.261719 31.425781 48.035156 30.753906 46.214844 31.59375 C 43.152344 33.003906 41.570312 37.421875 41.972656 42.460938 " fill-opacity="1" fill-rule="nonzero"/><path fill="#ffffff" d="M 49.667969 59.566406 L 46.484375 57.640625 C 45.839844 57.25 45.371094 56.632812 45.167969 55.90625 L 44.582031 53.832031 L 49.667969 59.566406 " fill-opacity="1" fill-rule="nonzero"/><path fill="#000000" d="M 49.667969 59.742188 C 49.636719 59.742188 49.605469 59.734375 49.578125 59.71875 L 46.394531 57.792969 C 45.710938 57.375 45.214844 56.726562 44.996094 55.957031 L 44.410156 53.882812 C 44.386719 53.789062 44.441406 53.691406 44.535156 53.664062 C 44.628906 53.636719 44.726562 53.691406 44.753906 53.785156 L 45.335938 55.859375 C 45.527344 56.542969 45.96875 57.121094 46.578125 57.488281 L 49.761719 59.417969 C 49.84375 59.46875 49.871094 59.574219 49.820312 59.660156 C 49.785156 59.714844 49.726562 59.742188 49.667969 59.742188 " fill-opacity="1" fill-rule="nonzero"/><path fill="#5479f7" d="M 51.8125 55.550781 C 51.796875 55.550781 51.78125 55.550781 51.769531 55.546875 L 48.582031 54.734375 C 46.1875 54.265625 44.207031 52.480469 43.886719 50.488281 L 43.589844 48.640625 C 43.574219 48.542969 43.636719 48.453125 43.734375 48.4375 C 43.832031 48.421875 43.921875 48.488281 43.9375 48.582031 L 44.234375 50.429688 C 44.535156 52.285156 46.394531 53.949219 48.660156 54.386719 L 51.855469 55.203125 C 51.949219 55.226562 52.007812 55.324219 51.984375 55.417969 C 51.964844 55.496094 51.890625 55.550781 51.8125 55.550781 " fill-opacity="1" fill-rule="nonzero"/><path fill="#5479f7" d="M 53.117188 55.917969 C 53.402344 55.4375 53.234375 54.808594 52.742188 54.519531 C 52.25 54.230469 51.621094 54.386719 51.335938 54.867188 C 51.050781 55.351562 51.214844 55.976562 51.707031 56.265625 C 52.199219 56.558594 52.832031 56.402344 53.117188 55.917969 " fill-opacity="1" fill-rule="nonzero"/><path fill="#5479f7" d="M 46.007812 40.660156 C 45.910156 40.660156 45.832031 40.582031 45.832031 40.484375 C 45.832031 36.242188 49.289062 32.792969 53.535156 32.792969 L 54.445312 32.792969 C 55.175781 32.792969 55.894531 32.894531 56.589844 33.097656 C 56.683594 33.125 56.738281 33.222656 56.710938 33.316406 C 56.683594 33.40625 56.585938 33.460938 56.492188 33.433594 C 55.828125 33.242188 55.140625 33.148438 54.445312 33.148438 L 53.535156 33.148438 C 49.484375 33.148438 46.1875 36.4375 46.1875 40.484375 C 46.1875 40.582031 46.105469 40.660156 46.007812 40.660156 " fill-opacity="1" fill-rule="nonzero"/><path fill="#5479f7" d="M 48.027344 45.425781 C 47.804688 48.550781 45.316406 50.914062 42.476562 50.710938 C 39.632812 50.503906 37.511719 47.808594 37.734375 44.6875 C 37.960938 41.566406 40.445312 39.199219 43.289062 39.40625 C 46.132812 39.609375 48.253906 42.304688 48.027344 45.425781 " fill-opacity="1" fill-rule="nonzero"/><path fill="#000000" d="M 42.949219 39.570312 C 40.347656 39.570312 38.121094 41.800781 37.910156 44.699219 C 37.695312 47.71875 39.746094 50.335938 42.488281 50.535156 C 43.8125 50.628906 45.097656 50.152344 46.113281 49.1875 C 47.128906 48.222656 47.746094 46.878906 47.851562 45.414062 C 47.957031 43.949219 47.539062 42.535156 46.671875 41.429688 C 45.808594 40.332031 44.601562 39.675781 43.277344 39.582031 C 43.167969 39.574219 43.058594 39.570312 42.949219 39.570312 Z M 42.820312 50.898438 C 42.699219 50.898438 42.582031 50.894531 42.460938 50.886719 C 39.527344 50.675781 37.328125 47.890625 37.558594 44.675781 C 37.789062 41.460938 40.367188 39.019531 43.300781 39.230469 C 44.726562 39.332031 46.023438 40.035156 46.949219 41.214844 C 47.871094 42.386719 48.316406 43.886719 48.207031 45.441406 C 48.09375 46.992188 47.4375 48.414062 46.355469 49.445312 C 45.359375 50.390625 44.117188 50.898438 42.820312 50.898438 " fill-opacity="1" fill-rule="nonzero"/><path fill="#99b9ff" d="M 46.492188 45.265625 C 46.332031 47.480469 44.566406 49.160156 42.550781 49.015625 C 40.535156 48.867188 39.027344 46.957031 39.1875 44.742188 C 39.347656 42.527344 41.113281 40.847656 43.128906 40.992188 C 45.144531 41.136719 46.652344 43.050781 46.492188 45.265625 " fill-opacity="1" fill-rule="nonzero"/><path fill="#000000" d="M 84.21875 102.3125 L 58.96875 102.3125 L 77.6875 73.574219 C 78.269531 72.675781 79.289062 72.132812 80.386719 72.132812 L 100.875 72.132812 C 102.175781 72.132812 102.96875 73.523438 102.273438 74.589844 L 84.21875 102.3125 " fill-opacity="1" fill-rule="nonzero"/><path fill="#caddff" d="M 89.601562 82.210938 C 88.78125 83.46875 87.019531 84.492188 85.660156 84.492188 C 84.304688 84.492188 83.871094 83.46875 84.691406 82.210938 C 85.511719 80.949219 87.277344 79.929688 88.632812 79.929688 C 89.988281 79.929688 90.421875 80.949219 89.601562 82.210938 " fill-opacity="1" fill-rule="nonzero"/><path fill="#000000" d="M 83.496094 104.714844 L 37.867188 104.714844 C 37.417969 104.714844 37.054688 104.351562 37.054688 103.902344 L 37.054688 102.109375 L 84.308594 102.109375 L 84.308594 103.902344 C 84.308594 104.351562 83.945312 104.714844 83.496094 104.714844 " fill-opacity="1" fill-rule="nonzero"/><path fill="#ffffff" d="M 82.902344 102.515625 L 61.21875 102.515625 C 61.121094 102.515625 61.042969 102.4375 61.042969 102.339844 C 61.042969 102.242188 61.121094 102.164062 61.21875 102.164062 L 82.902344 102.164062 C 83 102.164062 83.078125 102.242188 83.078125 102.339844 C 83.078125 102.4375 83 102.515625 82.902344 102.515625 " fill-opacity="1" fill-rule="nonzero"/><path fill="#000000" d="M 100.777344 56.152344 C 100.679688 56.152344 100.597656 56.070312 100.597656 55.972656 L 100.597656 55.0625 C 100.597656 54.964844 100.679688 54.886719 100.777344 54.886719 C 100.875 54.886719 100.953125 54.964844 100.953125 55.0625 L 100.953125 55.972656 C 100.953125 56.070312 100.875 56.152344 100.777344 56.152344 " fill-opacity="1" fill-rule="nonzero"/><path fill="#000000" d="M 100.777344 58.277344 C 100.679688 58.277344 100.597656 58.195312 100.597656 58.097656 L 100.597656 57.1875 C 100.597656 57.089844 100.679688 57.011719 100.777344 57.011719 C 100.875 57.011719 100.953125 57.089844 100.953125 57.1875 L 100.953125 58.097656 C 100.953125 58.195312 100.875 58.277344 100.777344 58.277344 " fill-opacity="1" fill-rule="nonzero"/><path fill="#000000" d="M 100.167969 56.757812 L 99.253906 56.757812 C 99.15625 56.757812 99.078125 56.679688 99.078125 56.582031 C 99.078125 56.484375 99.15625 56.40625 99.253906 56.40625 L 100.167969 56.40625 C 100.265625 56.40625 100.34375 56.484375 100.34375 56.582031 C 100.34375 56.679688 100.265625 56.757812 100.167969 56.757812 " fill-opacity="1" fill-rule="nonzero"/><path fill="#000000" d="M 102.296875 56.757812 L 101.382812 56.757812 C 101.285156 56.757812 101.207031 56.679688 101.207031 56.582031 C 101.207031 56.484375 101.285156 56.40625 101.382812 56.40625 L 102.296875 56.40625 C 102.394531 56.40625 102.472656 56.484375 102.472656 56.582031 C 102.472656 56.679688 102.394531 56.757812 102.296875 56.757812 " fill-opacity="1" fill-rule="nonzero"/><path fill="#000000" d="M 8.300781 74.070312 C 8.226562 74.070312 8.15625 74.023438 8.132812 73.945312 C 7.042969 70.40625 6.488281 66.722656 6.488281 63 C 6.488281 61.984375 6.53125 60.957031 6.613281 59.949219 C 6.621094 59.851562 6.707031 59.777344 6.804688 59.785156 C 6.902344 59.792969 6.972656 59.878906 6.964844 59.976562 C 6.882812 60.976562 6.84375 61.992188 6.84375 63 C 6.84375 66.6875 7.390625 70.332031 8.472656 73.84375 C 8.5 73.933594 8.449219 74.035156 8.355469 74.0625 C 8.335938 74.066406 8.320312 74.070312 8.300781 74.070312 " fill-opacity="1" fill-rule="nonzero"/><path fill="#000000" d="M 11.421875 77.84375 C 11.351562 77.84375 11.285156 77.804688 11.257812 77.734375 C 9.839844 74.3125 8.949219 70.695312 8.601562 66.992188 C 8.507812 65.980469 8.453125 64.953125 8.441406 63.9375 C 8.441406 63.839844 8.519531 63.761719 8.617188 63.761719 C 8.714844 63.761719 8.792969 63.835938 8.796875 63.933594 C 8.808594 64.9375 8.859375 65.957031 8.953125 66.957031 C 9.296875 70.628906 10.179688 74.207031 11.582031 77.601562 C 11.621094 77.691406 11.578125 77.792969 11.488281 77.832031 C 11.464844 77.839844 11.441406 77.84375 11.421875 77.84375 " fill-opacity="1" fill-rule="nonzero"/><path fill="#000000" d="M 61.070312 9.804688 C 61.058594 9.804688 61.050781 9.800781 61.039062 9.800781 C 57.964844 9.203125 54.828125 8.996094 51.710938 9.1875 C 51.609375 9.191406 51.527344 9.121094 51.523438 9.023438 C 51.515625 8.925781 51.589844 8.839844 51.6875 8.835938 C 54.835938 8.640625 58.003906 8.851562 61.105469 9.453125 C 61.199219 9.472656 61.261719 9.566406 61.246094 9.660156 C 61.226562 9.746094 61.15625 9.804688 61.070312 9.804688 " fill-opacity="1" fill-rule="nonzero"/><path fill="#000000" d="M 47.292969 11.328125 C 47.207031 11.328125 47.132812 11.265625 47.117188 11.179688 C 47.101562 11.082031 47.167969 10.992188 47.265625 10.976562 C 50.433594 10.484375 53.660156 10.402344 56.855469 10.734375 C 56.953125 10.746094 57.023438 10.832031 57.011719 10.929688 C 57.003906 11.027344 56.917969 11.097656 56.820312 11.085938 C 53.65625 10.757812 50.457031 10.835938 47.320312 11.324219 C 47.3125 11.328125 47.300781 11.328125 47.292969 11.328125 " fill-opacity="1" fill-rule="nonzero"/><path fill="#000000" d="M 100.445312 52.304688 C 100.355469 52.304688 100.277344 52.234375 100.269531 52.140625 C 100.179688 51.144531 100.046875 50.132812 99.878906 49.140625 C 99.253906 45.507812 98.101562 42.003906 96.441406 38.730469 C 96.398438 38.640625 96.433594 38.535156 96.519531 38.492188 C 96.605469 38.449219 96.714844 38.484375 96.757812 38.570312 C 98.429688 41.878906 99.597656 45.414062 100.226562 49.082031 C 100.398438 50.082031 100.53125 51.105469 100.621094 52.113281 C 100.628906 52.210938 100.554688 52.292969 100.460938 52.304688 C 100.453125 52.304688 100.449219 52.304688 100.445312 52.304688 " fill-opacity="1" fill-rule="nonzero"/><path fill="#000000" d="M 97.96875 48.695312 C 97.886719 48.695312 97.8125 48.632812 97.796875 48.550781 C 97.617188 47.5625 97.390625 46.570312 97.128906 45.59375 C 96.171875 42.035156 94.695312 38.65625 92.738281 35.546875 C 92.6875 35.464844 92.714844 35.355469 92.796875 35.304688 C 92.878906 35.253906 92.988281 35.277344 93.039062 35.359375 C 95.011719 38.496094 96.503906 41.910156 97.472656 45.503906 C 97.734375 46.488281 97.960938 47.492188 98.144531 48.484375 C 98.160156 48.582031 98.097656 48.671875 98 48.691406 C 97.992188 48.695312 97.980469 48.695312 97.96875 48.695312 " fill-opacity="1" fill-rule="nonzero"/><path fill="#000000" d="M 44.945312 13.914062 L 44.949219 13.914062 Z M 44.140625 13.148438 C 44.007812 13.148438 43.878906 13.1875 43.769531 13.269531 C 43.628906 13.367188 43.539062 13.515625 43.511719 13.683594 C 43.484375 13.851562 43.523438 14.019531 43.625 14.160156 C 43.722656 14.296875 43.871094 14.386719 44.039062 14.414062 C 44.386719 14.472656 44.714844 14.234375 44.773438 13.886719 C 44.828125 13.539062 44.589844 13.210938 44.242188 13.15625 C 44.210938 13.148438 44.175781 13.148438 44.140625 13.148438 Z M 44.140625 14.777344 C 44.089844 14.777344 44.035156 14.773438 43.984375 14.761719 C 43.722656 14.722656 43.492188 14.578125 43.335938 14.363281 C 43.183594 14.152344 43.121094 13.886719 43.164062 13.628906 C 43.203125 13.367188 43.347656 13.136719 43.5625 12.980469 C 43.777344 12.828125 44.039062 12.765625 44.300781 12.808594 C 44.839844 12.894531 45.207031 13.40625 45.121094 13.945312 C 45.042969 14.429688 44.621094 14.777344 44.140625 14.777344 " fill-opacity="1" fill-rule="nonzero"/><path fill="#000000" d="M 8.773438 53.910156 C 8.46875 53.910156 8.195312 54.132812 8.144531 54.445312 C 8.085938 54.792969 8.324219 55.121094 8.671875 55.175781 C 8.839844 55.203125 9.011719 55.164062 9.148438 55.066406 C 9.289062 54.964844 9.378906 54.816406 9.40625 54.648438 C 9.433594 54.480469 9.394531 54.3125 9.292969 54.175781 C 9.195312 54.035156 9.046875 53.945312 8.878906 53.917969 C 8.84375 53.910156 8.808594 53.910156 8.773438 53.910156 Z M 8.777344 55.539062 C 8.722656 55.539062 8.671875 55.535156 8.617188 55.523438 C 8.078125 55.4375 7.707031 54.929688 7.796875 54.390625 C 7.882812 53.851562 8.394531 53.480469 8.933594 53.570312 C 9.195312 53.609375 9.425781 53.753906 9.578125 53.96875 C 9.734375 54.183594 9.796875 54.445312 9.753906 54.707031 C 9.710938 54.964844 9.570312 55.195312 9.355469 55.351562 C 9.183594 55.472656 8.984375 55.539062 8.777344 55.539062 " fill-opacity="1" fill-rule="nonzero"/><path fill="#5479f7" d="M 81.394531 8.933594 C 72.046875 9.035156 64.519531 13.894531 64.585938 19.789062 C 64.613281 22.425781 66.15625 24.820312 68.691406 26.65625 L 65.835938 32.53125 L 73.917969 29.195312 C 76.234375 29.914062 78.851562 30.308594 81.621094 30.277344 C 90.96875 30.179688 98.496094 25.320312 98.433594 19.425781 C 98.367188 13.53125 90.738281 8.835938 81.394531 8.933594 " fill-opacity="1" fill-rule="nonzero"/><path fill="#000000" d="M 88.089844 8.871094 C 88.070312 8.871094 88.050781 8.867188 88.03125 8.863281 C 87.8125 8.785156 87.585938 8.710938 87.359375 8.640625 C 87.265625 8.609375 87.214844 8.511719 87.242188 8.417969 C 87.273438 8.324219 87.371094 8.273438 87.464844 8.304688 C 87.695312 8.375 87.925781 8.453125 88.148438 8.53125 C 88.242188 8.5625 88.289062 8.664062 88.257812 8.753906 C 88.230469 8.828125 88.164062 8.871094 88.089844 8.871094 " fill-opacity="1" fill-rule="nonzero"/><path fill="#000000" d="M 79.597656 28.894531 C 78.992188 28.894531 78.386719 28.875 77.792969 28.835938 C 77.695312 28.828125 77.621094 28.746094 77.625 28.648438 C 77.632812 28.550781 77.71875 28.476562 77.816406 28.484375 C 78.496094 28.53125 79.191406 28.550781 79.882812 28.542969 C 84.371094 28.492188 88.574219 27.347656 91.722656 25.316406 C 94.84375 23.300781 96.546875 20.65625 96.519531 17.867188 C 96.484375 14.589844 94.066406 11.585938 89.890625 9.621094 C 89.804688 9.578125 89.765625 9.472656 89.808594 9.386719 C 89.847656 9.296875 89.953125 9.261719 90.042969 9.300781 C 94.347656 11.324219 96.835938 14.445312 96.871094 17.863281 C 96.902344 20.777344 95.144531 23.527344 91.914062 25.613281 C 88.714844 27.679688 84.441406 28.84375 79.886719 28.894531 C 79.792969 28.894531 79.695312 28.894531 79.597656 28.894531 " fill-opacity="1" fill-rule="nonzero"/><path fill="#000000" d="M 64.097656 31.148438 C 64.050781 31.148438 64.003906 31.128906 63.96875 31.09375 C 63.921875 31.039062 63.90625 30.960938 63.941406 30.894531 L 66.730469 25.152344 C 64.136719 23.234375 62.699219 20.777344 62.671875 18.230469 C 62.640625 15.316406 64.398438 12.5625 67.625 10.480469 C 70.828125 8.414062 75.101562 7.246094 79.652344 7.199219 C 80.726562 7.1875 81.800781 7.238281 82.84375 7.351562 C 82.941406 7.363281 83.011719 7.449219 83 7.546875 C 82.992188 7.644531 82.902344 7.710938 82.808594 7.703125 C 81.777344 7.589844 80.71875 7.539062 79.65625 7.550781 C 75.171875 7.597656 70.964844 8.746094 67.820312 10.777344 C 64.695312 12.792969 62.992188 15.4375 63.023438 18.226562 C 63.050781 20.699219 64.480469 23.089844 67.054688 24.953125 C 67.125 25.003906 67.148438 25.097656 67.113281 25.175781 L 64.460938 30.632812 L 72.113281 27.472656 C 72.152344 27.457031 72.191406 27.457031 72.234375 27.46875 C 72.933594 27.683594 73.664062 27.871094 74.402344 28.027344 C 74.5 28.046875 74.5625 28.136719 74.542969 28.234375 C 74.523438 28.328125 74.429688 28.390625 74.332031 28.371094 C 73.601562 28.222656 72.882812 28.035156 72.1875 27.824219 L 64.167969 31.136719 C 64.144531 31.144531 64.121094 31.148438 64.097656 31.148438 " fill-opacity="1" fill-rule="nonzero"/><path fill="#ffffff" d="M 74.65625 22.597656 L 69.085938 22.597656 L 69.085938 21.648438 L 71.847656 18.644531 C 72.246094 18.203125 72.527344 17.832031 72.695312 17.535156 C 72.867188 17.238281 72.949219 16.9375 72.949219 16.640625 C 72.949219 16.246094 72.839844 15.929688 72.617188 15.6875 C 72.394531 15.441406 72.097656 15.320312 71.722656 15.320312 C 71.273438 15.320312 70.925781 15.457031 70.679688 15.730469 C 70.433594 16.003906 70.308594 16.375 70.308594 16.847656 L 68.929688 16.847656 C 68.929688 16.347656 69.042969 15.894531 69.273438 15.488281 C 69.5 15.085938 69.828125 14.773438 70.257812 14.550781 C 70.683594 14.324219 71.175781 14.214844 71.734375 14.214844 C 72.535156 14.214844 73.171875 14.414062 73.636719 14.820312 C 74.101562 15.222656 74.332031 15.78125 74.332031 16.492188 C 74.332031 16.90625 74.214844 17.335938 73.984375 17.789062 C 73.75 18.242188 73.367188 18.753906 72.835938 19.332031 L 70.8125 21.496094 L 74.65625 21.496094 L 74.65625 22.597656 " fill-opacity="1" fill-rule="nonzero"/><path fill="#ffffff" d="M 76.835938 19.648438 L 79.003906 19.648438 L 79.003906 16.195312 L 78.898438 16.378906 Z M 80.386719 19.648438 L 81.414062 19.648438 L 81.414062 20.757812 L 80.386719 20.757812 L 80.386719 22.597656 L 79.003906 22.597656 L 79.003906 20.757812 L 75.425781 20.757812 L 75.382812 19.917969 L 78.957031 14.328125 L 80.386719 14.328125 L 80.386719 19.648438 " fill-opacity="1" fill-rule="nonzero"/><path fill="#ffffff" d="M 82.808594 23.308594 L 81.722656 23.308594 L 84.980469 14.328125 L 86.066406 14.328125 L 82.808594 23.308594 " fill-opacity="1" fill-rule="nonzero"/><path fill="#ffffff" d="M 92.449219 15.09375 L 89.140625 22.597656 L 87.6875 22.597656 L 90.996094 15.433594 L 86.710938 15.433594 L 86.710938 14.328125 L 92.449219 14.328125 L 92.449219 15.09375 " fill-opacity="1" fill-rule="nonzero"/></svg>