<svg xmlns="http://www.w3.org/2000/svg" xmlns:xlink="http://www.w3.org/1999/xlink" width="150" zoomAndPan="magnify" viewBox="0 0 112.5 112.499997" height="150" preserveAspectRatio="xMidYMid meet" version="1.0"><defs><clipPath id="b4b9aa40f9"><path d="M 8 4 L 104 4 L 104 107.75 L 8 107.75 Z M 8 4 " clip-rule="nonzero"/></clipPath></defs><g clip-path="url(#b4b9aa40f9)"><path fill="#8d740d" d="M 96.25 59.125 C 90.121094 83.054688 76.582031 98.304688 56 104.464844 C 35.449219 98.3125 21.914062 83.09375 15.769531 59.214844 C 11.921875 44.253906 12.328125 30.351562 12.597656 25.835938 C 31.8125 25.226562 47.84375 13.898438 56.003906 7.980469 C 64.109375 13.839844 80.1875 25.226562 99.398438 25.835938 C 99.671875 30.339844 100.078125 44.175781 96.25 59.125 Z M 102.722656 23.960938 C 102.636719 23.078125 101.890625 22.40625 101.003906 22.40625 C 81.835938 22.40625 66.054688 10.988281 57.574219 4.851562 L 57.011719 4.445312 C 56.40625 4.007812 55.589844 4.007812 54.988281 4.445312 L 54.550781 4.765625 C 46.667969 10.488281 30.261719 22.40625 10.992188 22.40625 C 10.105469 22.40625 9.363281 23.078125 9.273438 23.960938 C 9.203125 24.65625 7.601562 41.25 12.398438 59.980469 C 18.8125 85.007812 33.722656 101.585938 55.519531 107.921875 C 55.675781 107.96875 55.839844 107.992188 56 107.992188 C 56.164062 107.992188 56.324219 107.96875 56.484375 107.921875 C 78.277344 101.585938 93.1875 85.007812 99.597656 59.980469 C 104.394531 41.25 102.792969 24.65625 102.722656 23.960938 " fill-opacity="1" fill-rule="nonzero"/></g><path fill="#8d740d" d="M 75.078125 42.542969 L 52.917969 71.386719 C 52.339844 72.140625 51.484375 72.625 50.539062 72.734375 C 50.40625 72.75 50.273438 72.757812 50.140625 72.757812 C 49.332031 72.757812 48.546875 72.480469 47.917969 71.964844 L 36.753906 62.824219 C 35.257812 61.597656 35.035156 59.390625 36.261719 57.890625 C 37.488281 56.394531 39.699219 56.171875 41.195312 57.398438 L 49.5625 64.246094 L 69.511719 38.269531 C 70.695312 36.730469 72.894531 36.445312 74.429688 37.625 C 75.964844 38.804688 76.253906 41.003906 75.078125 42.542969 Z M 56 14.722656 C 48.511719 20.125 34.882812 29.335938 18.484375 30.339844 C 18.054688 41.839844 18.839844 86.414062 56 97.902344 C 93.15625 86.414062 93.941406 41.839844 93.511719 30.339844 C 77.109375 29.328125 63.445312 20.085938 56 14.722656 " fill-opacity="1" fill-rule="nonzero"/></svg>