<svg xmlns="http://www.w3.org/2000/svg" xmlns:xlink="http://www.w3.org/1999/xlink" width="150" zoomAndPan="magnify" viewBox="0 0 112.5 112.499997" height="150" preserveAspectRatio="xMidYMid meet" version="1.0"><defs><clipPath id="f992dc767f"><path d="M 8.671875 8.671875 L 103.5 8.671875 L 103.5 103.5 L 8.671875 103.5 Z M 8.671875 8.671875 " clip-rule="nonzero"/></clipPath></defs><g clip-path="url(#f992dc767f)"><path fill="#000000" d="M 37.117188 84.535156 C 31.878906 84.535156 27.683594 88.777344 27.683594 94.015625 C 27.683594 99.253906 31.878906 103.5 37.117188 103.5 C 42.359375 103.5 46.601562 99.253906 46.601562 94.015625 C 46.601562 88.777344 42.359375 84.535156 37.117188 84.535156 Z M 8.671875 8.671875 L 8.671875 18.152344 L 18.152344 18.152344 L 35.199219 54.117188 L 28.796875 65.734375 C 28.0625 67.109375 27.636719 68.648438 27.636719 70.308594 C 27.636719 75.546875 31.878906 79.792969 37.117188 79.792969 L 94.015625 79.792969 L 94.015625 70.308594 L 39.132812 70.308594 C 38.46875 70.308594 37.949219 69.789062 37.949219 69.125 C 37.949219 68.910156 37.996094 68.722656 38.089844 68.554688 L 42.335938 60.828125 L 77.660156 60.828125 C 81.214844 60.828125 84.320312 58.859375 85.957031 55.941406 L 102.90625 25.171875 C 103.285156 24.507812 103.5 23.722656 103.5 22.894531 C 103.5 20.261719 101.367188 18.152344 98.757812 18.152344 L 28.65625 18.152344 L 24.152344 8.671875 Z M 84.535156 84.535156 C 79.292969 84.535156 75.097656 88.777344 75.097656 94.015625 C 75.097656 99.253906 79.292969 103.5 84.535156 103.5 C 89.773438 103.5 94.015625 99.253906 94.015625 94.015625 C 94.015625 88.777344 89.773438 84.535156 84.535156 84.535156 Z M 84.535156 84.535156 " fill-opacity="1" fill-rule="nonzero"/></g></svg>