<svg xmlns="http://www.w3.org/2000/svg" xmlns:xlink="http://www.w3.org/1999/xlink" width="500" zoomAndPan="magnify" viewBox="0 0 375 179.999997" height="240" preserveAspectRatio="xMidYMid meet" version="1.0"><defs><g/></defs><path stroke-linecap="butt" transform="matrix(1.345655, 0, 0, 1.345655, 10.956932, 46.266208)" fill="none" stroke-linejoin="miter" d="M 46.721635 30.206747 C 47.371876 30.726359 47.696997 31.199525 47.696997 31.629149 C 47.696997 32.058773 47.502505 32.453562 47.119327 32.819322 C 46.744858 33.170569 44.634478 35.928287 40.791088 41.095381 C 36.959311 46.259573 34.375764 49.812675 33.04335 51.751787 C 31.719645 53.699607 30.790729 55.110398 30.250797 55.981257 C 29.710865 56.860824 28.593263 58.431272 26.897992 60.689699 C 25.199818 62.948125 23.492935 64.988837 21.774441 66.81764 C 20.067558 68.646443 18.009429 70.402674 15.597151 72.089237 C 13.184872 73.784509 10.871292 74.858567 8.656408 75.311414 C 7.710075 75.311414 6.763742 75.105311 5.814506 74.69891 C 4.008926 73.926749 3.106136 72.507249 3.106136 70.437509 C 3.106136 67.816225 5.556152 64.730482 10.459085 61.186088 C 15.347505 57.650402 18.987693 55.88256 21.379651 55.88256 C 21.742509 55.88256 21.922487 55.946423 21.922487 56.079954 C 21.922487 56.222194 21.698966 56.454423 21.24612 56.773738 C 17.370799 59.426954 13.840919 62.297884 10.65648 65.380723 C 7.47204 68.475174 5.881272 70.678446 5.881272 71.99054 C 5.881272 72.176323 6.020609 72.269215 6.293478 72.269215 C 6.560542 72.269215 7.144017 71.973123 8.046807 71.378036 C 10.215245 69.848228 13.28357 67.049869 17.248879 62.985862 C 21.6322 58.117763 24.32025 55.005895 25.310126 53.650259 C 27.060552 51.261204 29.159321 48.78216 31.606434 46.21603 L 32.959167 44.79653 C 33.00271 44.697833 33.069476 44.602039 33.159465 44.514953 C 33.246551 44.427867 33.356859 44.274015 33.487488 44.053398 C 33.853249 43.458311 34.012906 43.159316 33.96646 43.159316 C 33.835832 43.159316 33.542642 43.385739 33.092699 43.838586 C 32.639852 44.288529 31.995417 44.912645 31.159393 45.705126 C 30.323369 46.497607 28.912578 47.560055 26.929923 48.892468 C 24.947269 50.216173 23.344889 50.875123 22.122784 50.875123 C 20.909388 50.875123 19.968861 50.474528 19.298299 49.670435 C 18.613224 48.854731 18.273589 47.983873 18.273589 47.05786 C 18.273589 46.13475 18.86287 44.747182 20.041432 42.895156 C 21.208383 41.046033 22.738191 39.040155 24.63376 36.883329 C 26.526425 34.711988 28.973538 32.703208 31.969291 30.851182 C 34.976656 29.002059 38.05369 27.896069 41.203295 27.530308 C 43.055321 27.939612 44.248397 28.595658 44.788329 29.498448 C 44.887027 29.452003 45.069907 29.431683 45.334067 29.431683 C 45.609839 29.431683 46.071394 29.690037 46.721635 30.206747 Z M 25.707818 44.514953 C 26.88638 44.427867 28.929995 43.348002 31.83576 41.278262 C 34.744427 39.194007 37.383129 37.118461 39.748961 35.04872 C 42.117696 32.967368 43.302064 31.771389 43.302064 31.463686 C 43.302064 31.3766 43.214978 31.330154 43.037904 31.330154 C 40.692391 31.826544 38.076913 33.066066 35.191468 35.04872 C 32.30312 37.031375 29.957608 38.947264 28.152028 40.796387 C 26.346448 42.648412 25.443658 43.821169 25.443658 44.317558 C 25.443658 44.448187 25.530744 44.514953 25.707818 44.514953 Z M 52.033872 45.539663 C 53.520138 45.539663 56.460737 44.207249 60.855669 41.542422 C 65.259311 38.874692 69.26526 36.215671 72.864809 33.562455 L 78.351218 29.562311 C 78.757618 29.881626 78.960819 30.267707 78.960819 30.720553 C 78.960819 31.170497 78.737298 31.60012 78.284452 32.009424 C 77.831605 32.404213 77.18717 32.987688 76.351146 33.75985 C 75.526733 34.532011 73.938868 35.907967 71.593355 37.890622 C 69.247843 39.873277 67.056182 41.673051 65.018373 43.292848 C 59.697428 47.589083 55.778564 50.114573 53.255977 50.875123 C 52.440273 51.107352 51.604249 51.223466 50.745002 51.223466 C 49.885755 51.223466 49.206485 51.150895 48.712998 51.008655 C 48.216609 50.875123 47.676677 50.584837 47.093201 50.13199 C 45.91464 49.142114 45.325359 46.933037 45.325359 43.50766 C 45.325359 42.561327 45.731759 41.118604 46.547463 39.179493 C 47.363168 37.240381 48.707193 34.894869 50.579539 32.140053 C 52.451884 29.38814 54.637739 26.633324 57.137103 23.881411 C 59.636467 21.126595 62.815101 18.374682 66.670102 15.619866 C 70.536714 12.86505 74.655875 10.635652 79.027585 8.928769 C 79.709757 8.696541 80.322261 8.580426 80.862193 8.580426 C 81.402125 8.580426 81.895612 8.818461 82.348458 9.291627 C 82.801305 9.764794 83.114814 10.249572 83.288986 10.745961 L 83.637329 11.422328 C 83.637329 12.458649 82.034949 14.737396 78.83019 18.264373 C 75.535442 21.919076 71.735596 25.405413 67.430651 28.720481 C 63.122805 32.03555 59.119758 34.86584 55.418609 37.211352 C 52.390924 39.194007 50.87563 41.272456 50.87563 43.440894 C 50.87563 44.840073 51.261711 45.539663 52.033872 45.539663 Z M 58.129882 31.530452 C 59.25329 31.530452 62.667055 28.755316 68.371179 23.202141 C 74.078205 17.651869 76.928815 14.563224 76.928815 13.933303 L 76.864952 13.802674 L 75.706711 14.330995 C 73.361198 15.872415 70.237719 18.493699 66.339175 22.194848 C 62.440632 25.884385 59.746776 28.76983 58.260511 30.851182 C 58.074728 31.0718 57.978933 31.243068 57.978933 31.364989 C 57.978933 31.475297 58.028282 31.530452 58.129882 31.530452 Z M 77.265547 47.15946 L 77.811285 42.831293 C 77.811285 42.697761 77.776451 42.630995 77.712588 42.630995 C 77.645822 42.630995 77.518096 42.720984 77.332313 42.895156 C 76.748838 43.525077 76.002802 44.300141 75.100012 45.226154 C 74.197222 46.149264 72.649997 47.394592 70.458336 48.959234 C 68.278287 50.512265 66.510444 51.287329 65.154808 51.287329 C 64.925482 51.243786 64.643904 51.162506 64.312978 51.040586 C 63.97044 50.930277 63.532108 50.561614 62.992176 49.934596 C 62.452243 49.304675 62.182277 48.40769 62.182277 47.24074 C 62.182277 46.062178 63.073456 44.268209 64.858716 41.855931 C 66.632364 39.432042 68.757259 37.057501 71.236303 34.735211 C 73.724056 32.410019 76.48758 30.395433 79.52978 28.68855 C 82.580687 26.970056 85.233903 26.110809 87.49233 26.110809 C 88.339965 26.154352 89.010526 26.766855 89.506916 27.945417 C 89.959762 27.492571 90.366163 27.266148 90.729021 27.266148 C 91.091878 27.266148 91.521502 27.536114 92.017891 28.076046 C 92.293663 28.119589 92.563629 28.270538 92.82779 28.523087 C 93.103562 28.764024 93.239996 29.112368 93.239996 29.562311 C 93.239996 30.015158 92.920681 30.511547 92.282052 31.051479 C 91.335719 32.230041 90.229728 33.562455 88.961178 35.04872 C 87.707141 36.534985 86.810157 37.609044 86.270225 38.270897 C 85.730292 38.921138 85.161332 39.646853 84.566245 40.450946 C 83.576369 41.850125 83.036437 42.979339 82.949351 43.838586 C 87.55329 41.635314 94.793027 36.877523 104.674369 29.562311 C 105.080769 29.881626 105.28397 30.267707 105.28397 30.720553 C 105.28397 31.170497 105.103992 31.556577 104.738232 31.875892 C 104.375374 32.183596 103.937042 32.56387 103.41743 33.016717 C 102.90072 33.466661 101.87601 34.349131 100.346202 35.661224 C 98.813491 36.958803 97.338837 38.209937 95.916435 39.408819 C 94.496935 40.610603 92.871333 41.943017 91.04253 43.408962 C 89.21663 44.872005 87.579415 46.123138 86.136693 47.15946 C 82.656162 49.635601 80.487724 50.875123 79.628477 50.875123 C 78.780841 50.875123 78.174143 50.605157 77.811285 50.065224 C 77.445525 49.525292 77.265547 48.555736 77.265547 47.15946 Z M 70.359639 44.317558 C 70.899571 44.317558 72.557105 43.214471 75.332241 41.011198 C 78.107377 38.799218 80.740273 36.584334 83.228026 34.372353 L 87.013357 31.051479 C 87.187529 30.874405 87.277518 30.752485 87.277518 30.685719 C 87.277518 30.610244 87.210752 30.572507 87.080123 30.572507 C 85.361629 30.572507 83.123523 31.556577 80.37161 33.527621 C 77.628405 35.489955 75.250961 37.565501 73.233472 39.757162 C 71.230498 41.937211 70.226107 43.414768 70.226107 44.184026 C 70.226107 44.274015 70.272553 44.317558 70.359639 44.317558 Z M 120.024702 29.083339 C 119.978256 30.714748 118.976769 32.322933 117.017337 33.907896 C 115.055003 35.484149 112.677559 36.270825 109.8792 36.270825 C 108.700638 36.270825 108.111357 35.928287 108.111357 35.246115 C 108.111357 34.970343 108.314558 34.767143 108.723861 34.636514 C 111.432231 33.06026 113.150725 31.777195 113.876441 30.787319 C 113.96643 30.598633 114.009972 30.395433 114.009972 30.174815 C 114.009972 29.942586 113.893858 29.826472 113.661629 29.826472 C 109.829851 30.378016 106.172245 32.48259 102.691714 36.140196 C 99.222794 39.783288 97.489786 42.619384 97.489786 44.648484 C 97.489786 45.594817 97.852643 46.067984 98.578359 46.067984 C 101.91665 46.067984 105.434919 45.098428 109.136067 43.159316 C 112.837216 41.223107 118.338139 37.658393 125.64174 32.470979 C 126.135226 32.108121 126.88997 31.568189 127.903069 30.851182 C 128.927779 30.125467 129.528672 29.695843 129.705746 29.562311 C 130.112147 29.881626 130.315347 30.267707 130.315347 30.720553 C 130.315347 31.170497 130.112147 31.573995 129.705746 31.925241 C 127.44732 34.183667 124.524138 36.71206 120.933298 39.510419 C 117.351166 42.305875 113.237811 44.961993 108.590329 47.472969 C 103.942848 49.972333 100.154613 51.223466 97.225625 51.223466 C 93.753803 51.223466 92.020794 49.37144 92.020794 45.670292 C 92.020794 43.095453 92.874235 40.578672 94.581118 38.122851 C 96.299612 35.664127 98.398382 33.605998 100.874523 31.942658 C 103.353567 30.267707 105.948725 28.923682 108.657095 27.910583 C 111.365465 26.885873 113.542612 26.374969 115.182729 26.374969 C 116.834457 26.374969 118.018825 26.601392 118.735832 27.051336 C 119.461547 27.504182 119.847628 27.954126 119.891171 28.406972 Z M 141.143022 16.49653 C 141.592966 16.49653 141.886155 16.589422 142.016783 16.775205 C 142.643802 17.535755 142.960213 18.15987 142.960213 18.641745 C 142.960213 19.117814 142.820876 19.524215 142.545104 19.866753 C 142.280944 20.194776 141.955823 20.575051 141.569743 21.004675 C 141.195274 21.434298 140.431821 22.023579 139.273579 22.772518 C 138.129851 23.512747 137.01225 23.881411 135.920774 23.881411 C 135.116681 23.747879 134.716086 23.25149 134.716086 22.392243 C 134.716086 21.039509 135.523081 19.715804 137.142878 18.426933 C 138.762675 17.140966 140.095089 16.49653 141.143022 16.49653 Z M 124.90151 43.159316 C 124.538652 43.797946 124.355772 44.366907 124.355772 44.863296 C 124.355772 45.356783 124.625738 45.606429 125.16567 45.606429 C 125.484985 45.606429 126.024918 45.467091 126.785467 45.191319 C 135.221184 40.776067 143.476923 35.56543 151.549782 29.562311 C 151.956182 29.881626 152.162286 30.267707 152.162286 30.720553 C 152.162286 31.170497 151.935862 31.60012 151.483016 32.009424 C 151.033072 32.404213 150.388637 32.987688 149.54971 33.75985 C 148.725297 34.532011 147.137432 35.907967 144.791919 37.890622 C 142.446407 39.873277 140.260552 41.673051 138.234354 43.292848 C 132.901797 47.589083 128.977128 50.114573 126.454541 50.875123 C 125.638837 51.107352 124.75927 51.223466 123.810034 51.223466 C 120.341114 51.223466 118.608106 49.37144 118.608106 45.670292 C 118.608106 44.227569 119.394781 42.163635 120.968132 39.475585 C 122.544386 36.787534 124.169989 34.421702 125.842037 32.372282 C 127.516989 30.322861 128.622979 29.184939 129.162911 28.95271 C 129.967004 28.456321 130.843668 28.209578 131.790001 28.209578 C 132.739237 28.209578 133.642027 28.389555 134.501274 28.755316 C 134.774143 28.885945 134.91348 29.068825 134.91348 29.298151 C 134.91348 29.518768 134.698669 29.8555 134.269045 30.308347 C 133.839422 30.75829 133.183375 31.45788 132.303808 32.404213 C 131.421338 33.353449 130.112147 34.98776 128.37043 37.312952 C 126.640324 39.635242 125.484985 41.585965 124.90151 43.159316 Z M 124.90151 43.159316 " stroke="#00507f" stroke-width="3.045339" stroke-opacity="1" stroke-miterlimit="4"/><g fill="#76cbfd" fill-opacity="1"><g transform="translate(39.6362, 113.548949)"><g><path d="M 34.1875 -26.640625 C 35.070312 -25.941406 35.515625 -25.300781 35.515625 -24.71875 C 35.515625 -24.144531 35.253906 -23.613281 34.734375 -23.125 C 34.222656 -22.644531 31.382812 -18.925781 26.21875 -11.96875 C 21.0625 -5.019531 17.585938 -0.242188 15.796875 2.359375 C 14.003906 4.972656 12.742188 6.867188 12.015625 8.046875 C 11.285156 9.234375 9.78125 11.34375 7.5 14.375 C 5.226562 17.414062 2.9375 20.164062 0.625 22.625 C -1.675781 25.082031 -4.445312 27.445312 -7.6875 29.71875 C -10.9375 32 -14.050781 33.445312 -17.03125 34.0625 C -18.300781 34.0625 -19.578125 33.785156 -20.859375 33.234375 C -23.285156 32.203125 -24.5 30.289062 -24.5 27.5 C -24.5 23.976562 -21.203125 19.832031 -14.609375 15.0625 C -8.023438 10.300781 -3.125 7.921875 0.09375 7.921875 C 0.570312 7.921875 0.8125 8.007812 0.8125 8.1875 C 0.8125 8.375 0.507812 8.679688 -0.09375 9.109375 C -5.3125 12.691406 -10.0625 16.5625 -14.34375 20.71875 C -18.625 24.875 -20.765625 27.832031 -20.765625 29.59375 C -20.765625 29.832031 -20.582031 29.953125 -20.21875 29.953125 C -19.851562 29.953125 -19.0625 29.5625 -17.84375 28.78125 C -14.9375 26.707031 -10.8125 22.941406 -5.46875 17.484375 C 0.425781 10.929688 4.039062 6.742188 5.375 4.921875 C 7.738281 1.703125 10.5625 -1.632812 13.84375 -5.09375 L 15.65625 -7.015625 C 15.71875 -7.128906 15.8125 -7.25 15.9375 -7.375 C 16.0625 -7.5 16.210938 -7.710938 16.390625 -8.015625 C 16.878906 -8.804688 17.09375 -9.203125 17.03125 -9.203125 C 16.84375 -9.203125 16.445312 -8.894531 15.84375 -8.28125 C 15.238281 -7.675781 14.375 -6.84375 13.25 -5.78125 C 12.125 -4.71875 10.222656 -3.289062 7.546875 -1.5 C 4.878906 0.289062 2.726562 1.1875 1.09375 1.1875 C -0.539062 1.1875 -1.8125 0.640625 -2.71875 -0.453125 C -3.632812 -1.546875 -4.09375 -2.710938 -4.09375 -3.953125 C -4.09375 -5.203125 -3.300781 -7.070312 -1.71875 -9.5625 C -0.144531 -12.050781 1.910156 -14.75 4.453125 -17.65625 C 7.003906 -20.570312 10.296875 -23.273438 14.328125 -25.765625 C 18.367188 -28.253906 22.515625 -29.742188 26.765625 -30.234375 C 29.253906 -29.679688 30.863281 -28.800781 31.59375 -27.59375 C 31.71875 -27.65625 31.960938 -27.6875 32.328125 -27.6875 C 32.691406 -27.6875 33.3125 -27.335938 34.1875 -26.640625 Z M 5.921875 -7.375 C 7.492188 -7.5 10.238281 -8.957031 14.15625 -11.75 C 18.070312 -14.539062 21.625 -17.332031 24.8125 -20.125 C 28 -22.914062 29.59375 -24.523438 29.59375 -24.953125 C 29.59375 -25.078125 29.472656 -25.140625 29.234375 -25.140625 C 26.078125 -24.460938 22.554688 -22.789062 18.671875 -20.125 C 14.785156 -17.457031 11.628906 -14.878906 9.203125 -12.390625 C 6.773438 -9.898438 5.5625 -8.320312 5.5625 -7.65625 C 5.5625 -7.46875 5.679688 -7.375 5.921875 -7.375 Z M 5.921875 -7.375 "/></g></g></g><g fill="#76cbfd" fill-opacity="1"><g transform="translate(68.769639, 113.548949)"><g><path d="M 12.203125 -6.015625 C 14.203125 -6.015625 18.160156 -7.800781 24.078125 -11.375 C 30.003906 -14.957031 35.394531 -18.539062 40.25 -22.125 L 47.625 -27.5 C 48.164062 -27.070312 48.4375 -26.554688 48.4375 -25.953125 C 48.4375 -25.347656 48.132812 -24.769531 47.53125 -24.21875 C 46.925781 -23.675781 46.0625 -22.890625 44.9375 -21.859375 C 43.8125 -20.828125 41.671875 -18.972656 38.515625 -16.296875 C 35.359375 -13.628906 32.414062 -11.203125 29.6875 -9.015625 C 22.519531 -3.242188 17.238281 0.15625 13.84375 1.1875 C 12.75 1.488281 11.625 1.640625 10.46875 1.640625 C 9.3125 1.640625 8.398438 1.546875 7.734375 1.359375 C 7.066406 1.179688 6.34375 0.789062 5.5625 0.1875 C 3.976562 -1.15625 3.1875 -4.128906 3.1875 -8.734375 C 3.1875 -10.015625 3.734375 -11.957031 4.828125 -14.5625 C 5.921875 -17.175781 7.726562 -20.332031 10.25 -24.03125 C 12.769531 -27.738281 15.710938 -31.441406 19.078125 -35.140625 C 22.441406 -38.847656 26.71875 -42.550781 31.90625 -46.25 C 37.101562 -49.957031 42.644531 -52.96875 48.53125 -55.28125 C 49.445312 -55.582031 50.269531 -55.734375 51 -55.734375 C 51.726562 -55.734375 52.394531 -55.410156 53 -54.765625 C 53.601562 -54.128906 54.023438 -53.476562 54.265625 -52.8125 L 54.734375 -51.90625 C 54.734375 -50.507812 52.578125 -47.441406 48.265625 -42.703125 C 43.828125 -37.785156 38.707031 -33.097656 32.90625 -28.640625 C 27.113281 -24.179688 21.726562 -20.367188 16.75 -17.203125 C 12.6875 -14.535156 10.65625 -11.742188 10.65625 -8.828125 C 10.65625 -6.953125 11.171875 -6.015625 12.203125 -6.015625 Z M 20.390625 -24.859375 C 21.910156 -24.859375 26.507812 -28.59375 34.1875 -36.0625 C 41.875 -43.53125 45.71875 -47.6875 45.71875 -48.53125 L 45.625 -48.71875 L 44.078125 -47.984375 C 40.921875 -45.921875 36.710938 -42.398438 31.453125 -37.421875 C 26.203125 -32.441406 22.578125 -28.554688 20.578125 -25.765625 C 20.335938 -25.460938 20.21875 -25.234375 20.21875 -25.078125 C 20.21875 -24.929688 20.273438 -24.859375 20.390625 -24.859375 Z M 20.390625 -24.859375 "/></g></g></g><g fill="#76cbfd" fill-opacity="1"><g transform="translate(98.72245, 113.548949)"><g><path d="M 16.203125 -3.828125 L 16.9375 -9.65625 C 16.9375 -9.832031 16.890625 -9.921875 16.796875 -9.921875 C 16.710938 -9.921875 16.546875 -9.800781 16.296875 -9.5625 C 15.503906 -8.707031 14.5 -7.65625 13.28125 -6.40625 C 12.070312 -5.164062 9.992188 -3.5 7.046875 -1.40625 C 4.109375 0.6875 1.726562 1.734375 -0.09375 1.734375 C -0.394531 1.671875 -0.769531 1.5625 -1.21875 1.40625 C -1.675781 1.257812 -2.269531 0.765625 -3 -0.078125 C -3.726562 -0.929688 -4.09375 -2.144531 -4.09375 -3.71875 C -4.09375 -5.300781 -2.894531 -7.71875 -0.5 -10.96875 C 1.894531 -14.21875 4.757812 -17.40625 8.09375 -20.53125 C 11.4375 -23.65625 15.15625 -26.367188 19.25 -28.671875 C 23.351562 -30.984375 26.921875 -32.140625 29.953125 -32.140625 C 31.109375 -32.078125 32.019531 -31.257812 32.6875 -29.6875 C 33.300781 -30.289062 33.847656 -30.59375 34.328125 -30.59375 C 34.816406 -30.59375 35.394531 -30.226562 36.0625 -29.5 C 36.425781 -29.4375 36.789062 -29.238281 37.15625 -28.90625 C 37.519531 -28.570312 37.703125 -28.101562 37.703125 -27.5 C 37.703125 -26.894531 37.273438 -26.226562 36.421875 -25.5 C 35.148438 -23.914062 33.660156 -22.125 31.953125 -20.125 C 30.253906 -18.125 29.039062 -16.679688 28.3125 -15.796875 C 27.59375 -14.921875 26.835938 -13.9375 26.046875 -12.84375 C 24.710938 -10.957031 23.984375 -9.4375 23.859375 -8.28125 C 30.046875 -11.257812 39.789062 -17.664062 53.09375 -27.5 C 53.632812 -27.070312 53.90625 -26.554688 53.90625 -25.953125 C 53.90625 -25.347656 53.660156 -24.832031 53.171875 -24.40625 C 52.691406 -23.976562 52.101562 -23.460938 51.40625 -22.859375 C 50.707031 -22.253906 49.328125 -21.070312 47.265625 -19.3125 C 45.203125 -17.550781 43.210938 -15.863281 41.296875 -14.25 C 39.378906 -12.644531 37.191406 -10.851562 34.734375 -8.875 C 32.273438 -6.90625 30.078125 -5.222656 28.140625 -3.828125 C 23.460938 -0.484375 20.546875 1.1875 19.390625 1.1875 C 18.242188 1.1875 17.425781 0.820312 16.9375 0.09375 C 16.445312 -0.632812 16.203125 -1.941406 16.203125 -3.828125 Z M 6.921875 -7.65625 C 7.648438 -7.65625 9.878906 -9.140625 13.609375 -12.109375 C 17.347656 -15.085938 20.882812 -18.0625 24.21875 -21.03125 L 29.328125 -25.5 C 29.566406 -25.738281 29.6875 -25.90625 29.6875 -26 C 29.6875 -26.09375 29.59375 -26.140625 29.40625 -26.140625 C 27.101562 -26.140625 24.097656 -24.816406 20.390625 -22.171875 C 16.691406 -19.535156 13.488281 -16.742188 10.78125 -13.796875 C 8.082031 -10.847656 6.734375 -8.859375 6.734375 -7.828125 C 6.734375 -7.710938 6.796875 -7.65625 6.921875 -7.65625 Z M 6.921875 -7.65625 "/></g></g></g><g fill="#76cbfd" fill-opacity="1"><g transform="translate(134.228838, 113.548949)"><g><path d="M 38.25 -28.140625 C 38.1875 -25.953125 36.832031 -23.796875 34.1875 -21.671875 C 31.550781 -19.546875 28.351562 -18.484375 24.59375 -18.484375 C 23.007812 -18.484375 22.21875 -18.941406 22.21875 -19.859375 C 22.21875 -20.210938 22.488281 -20.484375 23.03125 -20.671875 C 26.675781 -22.796875 28.984375 -24.523438 29.953125 -25.859375 C 30.078125 -26.097656 30.140625 -26.367188 30.140625 -26.671875 C 30.140625 -26.984375 29.988281 -27.140625 29.6875 -27.140625 C 24.53125 -26.410156 19.613281 -23.585938 14.9375 -18.671875 C 10.257812 -13.753906 7.921875 -9.925781 7.921875 -7.1875 C 7.921875 -5.914062 8.40625 -5.28125 9.375 -5.28125 C 13.875 -5.28125 18.609375 -6.582031 23.578125 -9.1875 C 28.554688 -11.800781 35.960938 -16.597656 45.796875 -23.578125 C 46.472656 -24.066406 47.492188 -24.796875 48.859375 -25.765625 C 50.222656 -26.742188 51.023438 -27.320312 51.265625 -27.5 C 51.816406 -27.070312 52.09375 -26.554688 52.09375 -25.953125 C 52.09375 -25.347656 51.816406 -24.800781 51.265625 -24.3125 C 48.234375 -21.28125 44.300781 -17.878906 39.46875 -14.109375 C 34.644531 -10.347656 29.109375 -6.78125 22.859375 -3.40625 C 16.609375 -0.0390625 11.507812 1.640625 7.5625 1.640625 C 2.882812 1.640625 0.546875 -0.847656 0.546875 -5.828125 C 0.546875 -9.285156 1.695312 -12.664062 4 -15.96875 C 6.3125 -19.28125 9.132812 -22.0625 12.46875 -24.3125 C 15.8125 -26.5625 19.300781 -28.367188 22.9375 -29.734375 C 26.582031 -31.097656 29.515625 -31.78125 31.734375 -31.78125 C 33.953125 -31.78125 35.546875 -31.472656 36.515625 -30.859375 C 37.484375 -30.253906 38 -29.648438 38.0625 -29.046875 Z M 38.25 -28.140625 "/></g></g></g><g fill="#76cbfd" fill-opacity="1"><g transform="translate(168.915835, 113.548949)"><g><path d="M 31.96875 -45.078125 C 32.570312 -45.078125 32.960938 -44.957031 33.140625 -44.71875 C 33.992188 -43.675781 34.421875 -42.835938 34.421875 -42.203125 C 34.421875 -41.566406 34.238281 -41.019531 33.875 -40.5625 C 33.507812 -40.113281 33.066406 -39.597656 32.546875 -39.015625 C 32.035156 -38.441406 31.003906 -37.65625 29.453125 -36.65625 C 27.910156 -35.65625 26.410156 -35.15625 24.953125 -35.15625 C 23.859375 -35.332031 23.3125 -36 23.3125 -37.15625 C 23.3125 -38.976562 24.40625 -40.753906 26.59375 -42.484375 C 28.78125 -44.210938 30.570312 -45.078125 31.96875 -45.078125 Z M 10.109375 -9.203125 C 9.617188 -8.347656 9.375 -7.585938 9.375 -6.921875 C 9.375 -6.253906 9.738281 -5.921875 10.46875 -5.921875 C 10.894531 -5.921875 11.625 -6.101562 12.65625 -6.46875 C 24.007812 -12.414062 35.117188 -19.425781 45.984375 -27.5 C 46.535156 -27.070312 46.8125 -26.554688 46.8125 -25.953125 C 46.8125 -25.347656 46.503906 -24.769531 45.890625 -24.21875 C 45.285156 -23.675781 44.421875 -22.890625 43.296875 -21.859375 C 42.171875 -20.828125 40.03125 -18.972656 36.875 -16.296875 C 33.71875 -13.628906 30.773438 -11.203125 28.046875 -9.015625 C 20.878906 -3.242188 15.597656 0.15625 12.203125 1.1875 C 11.109375 1.488281 9.925781 1.640625 8.65625 1.640625 C 3.976562 1.640625 1.640625 -0.847656 1.640625 -5.828125 C 1.640625 -7.765625 2.703125 -10.539062 4.828125 -14.15625 C 6.953125 -17.769531 9.132812 -20.957031 11.375 -23.71875 C 13.625 -26.476562 15.113281 -28.015625 15.84375 -28.328125 C 16.9375 -28.992188 18.117188 -29.328125 19.390625 -29.328125 C 20.671875 -29.328125 21.882812 -29.082031 23.03125 -28.59375 C 23.394531 -28.414062 23.578125 -28.171875 23.578125 -27.859375 C 23.578125 -27.554688 23.289062 -27.101562 22.71875 -26.5 C 22.144531 -25.894531 21.265625 -24.953125 20.078125 -23.671875 C 18.890625 -22.398438 17.128906 -20.203125 14.796875 -17.078125 C 12.460938 -13.953125 10.898438 -11.328125 10.109375 -9.203125 Z M 10.109375 -9.203125 "/></g></g></g><path stroke-linecap="butt" transform="matrix(1.815185, 0, 0, 1.815185, 211.113682, 22.838138)" fill="none" stroke-linejoin="miter" d="M 6.287877 54.999196 L 1.366289 54.999196 L 15.610271 16.213987 L 20.454387 16.213987 L 34.69837 54.999196 L 29.776782 54.999196 L 25.870931 44.011165 L 10.193728 44.011165 Z M 11.665685 39.844924 L 24.386062 39.844924 L 18.175436 22.34499 L 17.876311 22.34499 Z M 45.445378 16.213987 L 45.445378 54.999196 L 40.758357 54.999196 L 40.758357 16.213987 Z M 54.847396 54.999196 L 54.847396 16.213987 L 67.944371 16.213987 C 70.974364 16.213987 73.462058 16.730464 75.405299 17.763416 C 77.350693 18.78776 78.79037 20.19731 79.728635 21.994217 C 80.664748 23.782515 81.133881 25.822596 81.133881 28.114459 C 81.133881 30.683928 80.544237 32.926295 79.362798 34.845865 C 78.183511 36.754675 76.356476 38.129793 73.881695 38.97337 L 82.644574 54.999196 L 77.189294 54.999196 L 69.011755 39.832012 C 68.691109 39.84062 68.361856 39.844924 68.023994 39.844924 L 59.534417 39.844924 L 59.534417 54.999196 Z M 59.534417 35.614123 L 67.866899 35.614123 C 70.974364 35.614123 73.19306 34.944856 74.520834 33.608474 C 75.848608 32.263484 76.511419 30.432146 76.511419 28.114459 C 76.511419 25.770949 75.844304 23.894418 74.507922 22.489173 C 73.180148 21.081775 70.944237 20.380229 67.80234 20.380229 L 59.534417 20.380229 Z M 59.534417 35.614123 " stroke="#545454" stroke-width="4.93333" stroke-opacity="1" stroke-miterlimit="4"/><g fill="#ffffff" fill-opacity="1"><g transform="translate(211.113682, 122.673335)"><g><path d="M 11.40625 0 L 2.46875 0 L 28.328125 -70.390625 L 37.125 -70.390625 L 62.96875 0 L 54.03125 0 L 46.953125 -19.9375 L 18.5 -19.9375 Z M 21.171875 -27.5 L 44.28125 -27.5 L 33 -59.265625 L 32.453125 -59.265625 Z M 21.171875 -27.5 "/></g></g></g><g fill="#ffffff" fill-opacity="1"><g transform="translate(276.56414, 122.673335)"><g><path d="M 17.046875 -70.390625 L 17.046875 0 L 8.53125 0 L 8.53125 -70.390625 Z M 17.046875 -70.390625 "/></g></g></g><g fill="#ffffff" fill-opacity="1"><g transform="translate(302.13932, 122.673335)"><g><path d="M 8.53125 0 L 8.53125 -70.390625 L 32.3125 -70.390625 C 37.8125 -70.390625 42.328125 -69.457031 45.859375 -67.59375 C 49.390625 -65.726562 52 -63.164062 53.6875 -59.90625 C 55.382812 -56.65625 56.234375 -52.957031 56.234375 -48.8125 C 56.234375 -44.132812 55.160156 -40.0625 53.015625 -36.59375 C 50.878906 -33.125 47.566406 -30.617188 43.078125 -29.078125 L 58.984375 0 L 49.09375 0 L 34.234375 -27.53125 C 33.660156 -27.507812 33.066406 -27.5 32.453125 -27.5 L 17.046875 -27.5 L 17.046875 0 Z M 17.046875 -35.203125 L 32.171875 -35.203125 C 37.804688 -35.203125 41.828125 -36.414062 44.234375 -38.84375 C 46.640625 -41.269531 47.84375 -44.59375 47.84375 -48.8125 C 47.84375 -53.050781 46.632812 -56.445312 44.21875 -59 C 41.800781 -61.550781 37.738281 -62.828125 32.03125 -62.828125 L 17.046875 -62.828125 Z M 17.046875 -35.203125 "/></g></g></g></svg>